<svg xmlns="http://www.w3.org/2000/svg" xmlns:xlink="http://www.w3.org/1999/xlink" width="500" zoomAndPan="magnify" viewBox="0 0 375 374.999991" height="500" preserveAspectRatio="xMidYMid meet" version="1.0"><defs><clipPath id="bbfa4c7051"><path d="M 104 71 L 273 71 L 273 347 L 104 347 Z M 104 71 " clip-rule="nonzero"/></clipPath><clipPath id="bc9bd711c4"><path d="M 266.589844 125.089844 C 254.410156 93.632812 223.175781 71.476562 190.640625 71.207031 L 190.101562 71.207031 C 154.28125 71.207031 124.128906 91.027344 110.960938 123.070312 C 97.792969 155.066406 105.34375 191.828125 129.746094 214.523438 C 139.496094 223.644531 143.183594 232.230469 142.015625 243.195312 C 141.339844 249.441406 143.632812 254.609375 148.621094 258.113281 C 151.40625 260.046875 152.84375 262.652344 153.070312 266.070312 L 153.609375 270.023438 C 155.089844 277.394531 156.304688 283.328125 152.933594 289.484375 L 152.890625 291.328125 C 156.214844 298.382812 155.136719 303.503906 153.652344 307.730469 C 152.441406 311.234375 152.980469 315.234375 155.179688 318.605469 C 157.429688 322.066406 161.023438 324.359375 164.796875 324.71875 L 169.246094 324 L 169.832031 319.550781 C 164.304688 317.660156 159.046875 315.863281 160.078125 310.066406 C 161.25 303.503906 167.628906 303.460938 170.328125 303.460938 L 176.035156 303.460938 C 179.585938 303.460938 183.132812 303.460938 186.683594 303.414062 L 191.089844 301.617188 L 191.089844 297.167969 C 183.089844 296.945312 179.539062 296.945312 175.988281 296.945312 L 171.359375 296.945312 C 166.910156 296.898438 163.808594 296.628906 161.742188 294.515625 L 159.855469 292 C 159.988281 286.742188 161.292969 282.203125 169.203125 282.113281 L 184.976562 282.070312 C 186.550781 282.070312 189.425781 282.023438 190.414062 281.035156 L 191.042969 279.820312 L 190.683594 275.597656 C 179.40625 275.507812 173.472656 275.597656 167.496094 275.328125 C 162.6875 275.148438 159.539062 271.820312 159.628906 267.101562 C 159.765625 260.632812 165.699219 260.632812 167.945312 260.585938 L 175.496094 260.585938 C 178.640625 260.585938 181.785156 260.585938 184.933594 260.542969 L 189.335938 260.496094 L 191 258.207031 L 190.683594 254.027344 C 181.335938 253.980469 177.382812 253.980469 173.472656 253.980469 L 162.550781 253.980469 C 157.070312 253.980469 153.5625 253.800781 151.273438 251.464844 C 148.980469 249.128906 148.84375 245.488281 148.933594 240.230469 C 149.113281 228.589844 145.023438 219.511719 136.035156 211.558594 C 119.050781 196.589844 111.410156 177.222656 111.230469 148.730469 C 110.871094 130.796875 119.273438 112.550781 134.328125 98.710938 C 150.867188 83.429688 173.113281 75.972656 195.269531 78.21875 C 228.523438 81.589844 251.445312 100.058594 261.554688 131.652344 C 271.53125 162.886719 263.488281 191.332031 238.277344 213.9375 C 231.535156 219.960938 228.34375 226.433594 228.121094 234.296875 L 227.984375 238.207031 C 227.851562 241.578125 227.761719 242.96875 227.714844 244.410156 C 227.492188 250.609375 223.851562 254.070312 217.648438 254.027344 L 205.785156 254.117188 C 201.738281 254.207031 201.695312 256.226562 201.648438 257.125 L 201.558594 260.226562 L 207.539062 260.585938 L 209.695312 260.632812 C 214.234375 260.855469 216.660156 263.015625 217.019531 266.519531 L 216.03125 272.273438 C 211.222656 275.417969 209.019531 275.460938 207.222656 275.460938 L 206.414062 275.460938 L 201.738281 277.574219 L 202.1875 280.628906 L 204.570312 281.933594 C 209.738281 282.070312 216.976562 282.203125 216.796875 289.753906 C 216.660156 296.628906 210.097656 296.808594 206.953125 296.898438 L 201.738281 299.054688 L 201.738281 303.371094 C 209.695312 303.460938 212.929688 303.820312 215.042969 306.066406 L 216.929688 309.390625 C 216.253906 318.289062 210.007812 318.289062 206.996094 318.335938 L 206.503906 318.335938 L 185.742188 318.425781 C 182.730469 318.46875 181.472656 319.144531 180.933594 319.683594 L 180.257812 320.402344 L 180.347656 324.898438 L 185.5625 324.898438 C 189.382812 324.898438 193.203125 324.898438 197.019531 324.941406 L 197.558594 324.941406 L 202.367188 324.988281 C 204.390625 331.234375 202.550781 333.257812 201.648438 334.246094 L 201.425781 334.515625 C 195.359375 341.253906 185.335938 341.570312 176.4375 335.324219 L 173.066406 333.257812 L 170.867188 333.75 L 168.574219 337.121094 C 178.144531 345.613281 185.695312 347.59375 193.203125 346.0625 C 201.066406 344.445312 207.539062 339.277344 210.996094 331.953125 L 211.445312 330.875 C 212.617188 328.085938 213.695312 325.527344 216.300781 323.503906 C 224.121094 317.4375 223.851562 315.054688 222.457031 303.773438 L 222.367188 303.191406 L 222.1875 289.347656 C 222.367188 285.125 222.546875 280.765625 222.097656 276.539062 L 222.457031 272.363281 C 223.492188 268.8125 223.941406 267.28125 223.941406 265.933594 L 225.0625 260.453125 C 233.421875 255.058594 235.804688 249.039062 234.996094 239.644531 C 234.230469 230.792969 237.289062 223.78125 244.882812 216.949219 C 270.679688 193.671875 279.21875 157.628906 266.589844 125.136719 " clip-rule="nonzero"/></clipPath><clipPath id="0128b272aa"><path d="M 142 135.269531 L 235 135.269531 L 235 238.886719 L 142 238.886719 Z M 142 135.269531 " clip-rule="nonzero"/></clipPath><clipPath id="793bbdf02d"><path d="M 149.292969 154.617188 C 149.382812 151.15625 150.867188 147.832031 153.339844 145.492188 C 155.675781 143.292969 158.730469 142.125 161.878906 142.214844 C 169.472656 142.484375 174.417969 148.863281 174.460938 158.527344 L 174.234375 164.007812 C 171.226562 167.378906 168.886719 168.234375 165.832031 168.234375 L 165.652344 168.234375 C 159.71875 168.144531 155.316406 166.617188 152.484375 163.648438 C 150.28125 161.359375 149.203125 158.210938 149.292969 154.617188 M 202.460938 157.628906 C 202.683594 148.371094 208.03125 142.035156 215.714844 142.214844 C 222.503906 142.394531 227.761719 148.054688 227.714844 155.15625 C 227.671875 159.066406 226.007812 168.097656 211.265625 168.097656 L 210.324219 168.1875 L 206.1875 167.605469 C 202.503906 164.277344 202.414062 160.863281 202.460938 157.582031 M 174.597656 185.175781 L 174.460938 218.253906 C 174.460938 222.972656 174.507812 227.691406 174.507812 232.410156 L 174.507812 236.769531 L 176.257812 238.429688 L 181.023438 238.429688 L 181.023438 201.757812 C 181.023438 196.097656 181.023438 190.433594 181.023438 184.773438 L 181.023438 183.964844 L 180.976562 178.75 C 184.347656 175.46875 186.101562 174.839844 188.390625 174.839844 L 188.574219 174.839844 C 196.121094 175.019531 195.988281 181.265625 195.898438 183.917969 L 195.851562 184.683594 L 195.898438 213.308594 C 195.898438 220.09375 195.898438 226.835938 195.941406 233.621094 L 196.390625 237.21875 L 197.695312 238.65625 L 202.367188 238.566406 L 202.414062 228.410156 L 202.414062 189.941406 C 202.414062 177.265625 203.539062 175.964844 215.894531 174.527344 L 218.277344 174.121094 C 229.019531 171.515625 235.761719 162.570312 234.636719 153.449219 C 233.378906 143.023438 224.972656 135.292969 214.90625 135.652344 C 204.886719 135.921875 196.707031 143.875 195.941406 154.257812 L 195.808594 157.941406 C 195.941406 166.570312 191.941406 168.097656 188.617188 168.144531 L 184.347656 167.558594 C 181.066406 164.277344 180.886719 161.539062 180.933594 159.378906 L 180.976562 155.832031 C 179.988281 144.144531 172.394531 136.414062 162.6875 135.695312 C 153.25 134.976562 144.621094 141.808594 142.554688 151.515625 C 141.382812 157.089844 142.554688 162.4375 145.832031 166.570312 C 149.742188 171.515625 156.351562 174.390625 163.988281 174.570312 C 171.359375 174.707031 174.597656 177.984375 174.460938 185.265625 " clip-rule="nonzero"/></clipPath><clipPath id="4857be4fb9"><path d="M 184 28.164062 L 193 28.164062 L 193 56 L 184 56 Z M 184 28.164062 " clip-rule="nonzero"/></clipPath><clipPath id="bd749ab04c"><path d="M 185.515625 52.960938 L 187.761719 55.703125 L 188.484375 55.703125 L 191.042969 54.894531 C 192.527344 46.308594 192.570312 38.894531 191.449219 31.121094 L 190.234375 28.421875 L 185.921875 28.871094 C 185.203125 33.726562 185.066406 36.46875 184.976562 38.445312 L 184.886719 39.703125 L 184.933594 43.703125 C 184.933594 48.289062 184.933594 50.714844 185.5625 52.960938 " clip-rule="nonzero"/></clipPath><clipPath id="a770d26362"><path d="M 123.28125 44.460938 L 140.746094 44.460938 L 140.746094 70 L 123.28125 70 Z M 123.28125 44.460938 " clip-rule="nonzero"/></clipPath><clipPath id="def2587d2b"><path d="M 138.914062 68.914062 L 140.484375 66.308594 C 136.980469 58.445312 133.070312 51.703125 128.710938 45.859375 L 126.824219 44.558594 L 123.859375 45.949219 C 124.710938 50.714844 125.65625 52.558594 126.644531 54.445312 C 129.296875 59.566406 132.035156 64.914062 136.261719 69.273438 L 138.507812 69.230469 " clip-rule="nonzero"/></clipPath><clipPath id="a619795d74"><path d="M 236.210938 44.460938 L 253.671875 44.460938 L 253.671875 70 L 236.210938 70 Z M 236.210938 44.460938 " clip-rule="nonzero"/></clipPath><clipPath id="c43c232cdd"><path d="M 239.757812 69.453125 L 240.03125 69.363281 L 241.152344 69.003906 C 246.5 62.265625 250.546875 55.207031 253.285156 48.0625 L 252.523438 45.726562 L 250.589844 44.78125 L 248.703125 45.1875 C 243.578125 52.242188 239.757812 58.804688 236.882812 65.5 L 236.75 67.34375 L 238.636719 69.273438 " clip-rule="nonzero"/></clipPath><clipPath id="3d650d5095"><path d="M 78 203 L 103 203 L 103 220 L 78 220 Z M 78 203 " clip-rule="nonzero"/></clipPath><clipPath id="c8e642bad9"><path d="M 101.523438 203.601562 L 100.578125 203.199219 L 98.644531 203.378906 C 92.21875 206.613281 86.601562 210.027344 81.121094 213.355469 L 80.175781 213.9375 L 78.378906 217.578125 L 79.816406 219.691406 L 82.601562 219.691406 C 88.984375 216.140625 94.824219 212.816406 100.714844 209.308594 L 102.734375 207.109375 L 102.691406 206.164062 L 102.242188 204.097656 " clip-rule="nonzero"/></clipPath><clipPath id="30b46d8d21"><path d="M 273.464844 203 L 299 203 L 299 220 L 273.464844 220 Z M 273.464844 203 " clip-rule="nonzero"/></clipPath><clipPath id="6fa825e422"><path d="M 296.925781 214.074219 L 279.800781 204.097656 C 279.171875 203.738281 278.410156 203.558594 277.734375 203.378906 L 277.375 203.289062 L 274.589844 204.367188 L 273.734375 207.78125 C 281.464844 212.457031 287.308594 215.78125 293.824219 219.375 L 297.375 219.554688 L 298.722656 215.195312 " clip-rule="nonzero"/></clipPath><clipPath id="68241673fa"><path d="M 77.878906 90 L 103.492188 90 L 103.492188 107 L 77.878906 107 Z M 77.878906 90 " clip-rule="nonzero"/></clipPath><clipPath id="c198651361"><path d="M 96.847656 105.722656 L 98.734375 106.664062 L 102.195312 105.902344 L 103.183594 102.753906 C 95.5 97.136719 88.804688 93.226562 81.972656 90.308594 L 79.5 90.621094 L 77.929688 93.675781 C 83.996094 99.339844 90.78125 102.710938 96.804688 105.675781 " clip-rule="nonzero"/></clipPath><clipPath id="f645ba4e08"><path d="M 274 90 L 299 90 L 299 107 L 274 107 Z M 274 90 " clip-rule="nonzero"/></clipPath><clipPath id="d857d77216"><path d="M 278.273438 106.664062 L 279.9375 105.8125 C 286.585938 102.484375 293.195312 99.207031 298.496094 94.171875 L 298.765625 92.554688 L 296.789062 90.128906 L 295.261719 90.171875 C 287.171875 93.8125 280.65625 97.585938 274.992188 101.855469 L 274.050781 104.195312 L 275.128906 106.753906 " clip-rule="nonzero"/></clipPath><clipPath id="a5c02ef96c"><path d="M 61.578125 151.570312 L 89.519531 151.570312 L 89.519531 158.554688 L 61.578125 158.554688 Z M 61.578125 151.570312 " clip-rule="nonzero"/></clipPath><clipPath id="2cedcd9471"><path d="M 86.558594 157.988281 L 89.027344 156.28125 L 88.578125 152.28125 C 83.769531 151.921875 81.390625 151.921875 78.917969 152.011719 L 76.714844 152.054688 L 70.152344 151.964844 C 67.726562 151.964844 66.421875 152.011719 65.074219 152.101562 L 61.972656 154.167969 L 61.972656 156.550781 L 64.132812 158.078125 C 72.042969 158.4375 79.367188 158.390625 86.558594 158.03125 " clip-rule="nonzero"/></clipPath><clipPath id="915f055628"><path d="M 287.4375 151.570312 L 315.375 151.570312 L 315.375 158.554688 L 287.4375 158.554688 Z M 287.4375 151.570312 " clip-rule="nonzero"/></clipPath><clipPath id="114e6235ec"><path d="M 311.394531 151.964844 L 291.351562 152.011719 C 288.476562 152.054688 288.027344 153.449219 287.980469 154.929688 L 288.25 157.851562 C 293.417969 158.347656 295.753906 158.300781 298.226562 158.257812 L 300.429688 158.210938 L 304.609375 158.300781 C 307.035156 158.347656 309.238281 158.390625 311.394531 158.210938 L 315.082031 155.832031 L 314.855469 152.054688 " clip-rule="nonzero"/></clipPath></defs><g clip-path="url(#bbfa4c7051)"><g clip-path="url(#bc9bd711c4)"><path fill="#cdc9be" d="M 39.460938 6.042969 L 337.496094 6.042969 L 337.496094 369.277344 L 39.460938 369.277344 Z M 39.460938 6.042969 " fill-opacity="1" fill-rule="nonzero"/></g></g><g clip-path="url(#0128b272aa)"><g clip-path="url(#793bbdf02d)"><path fill="#cdc9be" d="M 39.460938 6.042969 L 337.496094 6.042969 L 337.496094 369.277344 L 39.460938 369.277344 Z M 39.460938 6.042969 " fill-opacity="1" fill-rule="nonzero"/></g></g><g clip-path="url(#4857be4fb9)"><g clip-path="url(#bd749ab04c)"><path fill="#cdc9be" d="M 39.460938 6.042969 L 337.496094 6.042969 L 337.496094 369.277344 L 39.460938 369.277344 Z M 39.460938 6.042969 " fill-opacity="1" fill-rule="nonzero"/></g></g><g clip-path="url(#a770d26362)"><g clip-path="url(#def2587d2b)"><path fill="#cdc9be" d="M 39.460938 6.042969 L 337.496094 6.042969 L 337.496094 369.277344 L 39.460938 369.277344 Z M 39.460938 6.042969 " fill-opacity="1" fill-rule="nonzero"/></g></g><g clip-path="url(#a619795d74)"><g clip-path="url(#c43c232cdd)"><path fill="#cdc9be" d="M 39.460938 6.042969 L 337.496094 6.042969 L 337.496094 369.277344 L 39.460938 369.277344 Z M 39.460938 6.042969 " fill-opacity="1" fill-rule="nonzero"/></g></g><g clip-path="url(#3d650d5095)"><g clip-path="url(#c8e642bad9)"><path fill="#cdc9be" d="M 39.460938 6.042969 L 337.496094 6.042969 L 337.496094 369.277344 L 39.460938 369.277344 Z M 39.460938 6.042969 " fill-opacity="1" fill-rule="nonzero"/></g></g><g clip-path="url(#30b46d8d21)"><g clip-path="url(#6fa825e422)"><path fill="#cdc9be" d="M 39.460938 6.042969 L 337.496094 6.042969 L 337.496094 369.277344 L 39.460938 369.277344 Z M 39.460938 6.042969 " fill-opacity="1" fill-rule="nonzero"/></g></g><g clip-path="url(#68241673fa)"><g clip-path="url(#c198651361)"><path fill="#cdc9be" d="M 39.460938 6.042969 L 337.496094 6.042969 L 337.496094 369.277344 L 39.460938 369.277344 Z M 39.460938 6.042969 " fill-opacity="1" fill-rule="nonzero"/></g></g><g clip-path="url(#f645ba4e08)"><g clip-path="url(#d857d77216)"><path fill="#cdc9be" d="M 39.460938 6.042969 L 337.496094 6.042969 L 337.496094 369.277344 L 39.460938 369.277344 Z M 39.460938 6.042969 " fill-opacity="1" fill-rule="nonzero"/></g></g><g clip-path="url(#a5c02ef96c)"><g clip-path="url(#2cedcd9471)"><path fill="#cdc9be" d="M 39.460938 6.042969 L 337.496094 6.042969 L 337.496094 369.277344 L 39.460938 369.277344 Z M 39.460938 6.042969 " fill-opacity="1" fill-rule="nonzero"/></g></g><g clip-path="url(#915f055628)"><g clip-path="url(#114e6235ec)"><path fill="#cdc9be" d="M 39.460938 6.042969 L 337.496094 6.042969 L 337.496094 369.277344 L 39.460938 369.277344 Z M 39.460938 6.042969 " fill-opacity="1" fill-rule="nonzero"/></g></g></svg>