<svg xmlns="http://www.w3.org/2000/svg" xmlns:xlink="http://www.w3.org/1999/xlink" width="500" zoomAndPan="magnify" viewBox="0 0 375 374.999991" height="500" preserveAspectRatio="xMidYMid meet" version="1.0"><defs><clipPath id="a99e4ea1c5"><path d="M 126.292969 289 L 248.375 289 L 248.375 343 L 126.292969 343 Z M 126.292969 289 " clip-rule="nonzero"/></clipPath><clipPath id="06f1b4116c"><path d="M 139.109375 293.210938 L 132.449219 334.363281 L 129.566406 333.917969 L 132.5 333.917969 L 133.59375 336.453125 L 136.226562 339.382812 L 136.226562 336.453125 L 238.710938 336.453125 L 238.710938 339.382812 L 238.710938 336.453125 L 242.488281 334.8125 L 245.417969 333.964844 L 242.535156 334.414062 L 235.828125 293.261719 C 235.578125 291.671875 236.671875 290.179688 238.210938 289.933594 L 241.292969 290.777344 L 248.300781 334.015625 C 248.300781 339.136719 243.429688 342.367188 238.710938 342.367188 L 136.277344 342.367188 C 131.554688 342.367188 126.6875 339.136719 126.6875 334.015625 L 126.734375 333.570312 L 133.394531 292.417969 C 133.644531 290.828125 135.132812 289.734375 136.726562 289.980469 L 139.410156 291.722656 Z M 139.109375 293.210938 " clip-rule="nonzero"/></clipPath><clipPath id="ae66feb280"><path d="M 24 32 L 350.8125 32 L 350.8125 275 L 24 275 Z M 24 32 " clip-rule="nonzero"/></clipPath><clipPath id="79f916948b"><path d="M 324.640625 38.546875 L 50.296875 38.546875 C 39.3125 38.546875 30.664062 47.246094 30.664062 58.28125 L 27.78125 58.28125 L 30.714844 58.28125 L 30.714844 249.027344 L 27.78125 249.027344 L 30.714844 249.027344 C 30.714844 260.0625 39.363281 268.859375 50.347656 268.859375 L 50.347656 271.792969 L 50.347656 268.859375 L 324.691406 268.859375 L 324.691406 271.792969 L 324.691406 268.859375 C 335.675781 268.859375 344.371094 260.0625 344.371094 249.027344 L 347.304688 249.027344 L 344.371094 249.027344 L 344.371094 58.28125 L 347.304688 58.28125 L 344.371094 58.28125 C 344.371094 47.246094 335.722656 38.546875 324.691406 38.546875 M 324.691406 32.734375 C 338.953125 32.734375 350.1875 44.066406 350.1875 58.28125 L 350.1875 249.027344 C 350.1875 263.242188 338.953125 274.675781 324.691406 274.675781 L 50.296875 274.675781 C 36.03125 274.675781 24.851562 263.242188 24.851562 249.027344 L 24.851562 58.28125 C 24.851562 44.113281 36.082031 32.734375 50.296875 32.734375 Z M 324.691406 32.734375 " clip-rule="nonzero"/></clipPath><clipPath id="4daab4013b"><path d="M 24 227 L 350.8125 227 L 350.8125 233.808594 L 24 233.808594 Z M 24 227 " clip-rule="nonzero"/></clipPath><clipPath id="afa549962b"><path d="M 27.78125 227.210938 L 347.207031 227.210938 C 348.796875 227.210938 350.136719 228.503906 350.136719 230.144531 L 348.84375 233.074219 L 27.78125 233.074219 C 26.191406 233.074219 24.851562 231.78125 24.851562 230.144531 L 26.140625 227.210938 Z M 27.78125 227.210938 " clip-rule="nonzero"/></clipPath><clipPath id="f778a3935a"><path d="M 138 84 L 237 84 L 237 183 L 138 183 Z M 138 84 " clip-rule="nonzero"/></clipPath><clipPath id="355d8de244"><path d="M 236.324219 133.574219 C 236.324219 160.5625 214.503906 182.429688 187.519531 182.429688 C 160.53125 182.429688 138.714844 160.5625 138.714844 133.574219 C 138.714844 106.589844 160.582031 84.769531 187.519531 84.769531 C 214.457031 84.769531 236.324219 106.636719 236.324219 133.574219 " clip-rule="nonzero"/></clipPath><clipPath id="414cd6e0ab"><path d="M 135 81 L 239.957031 81 L 239.957031 186 L 135 186 Z M 135 81 " clip-rule="nonzero"/></clipPath><clipPath id="b6ad1749b0"><path d="M 239.207031 133.574219 C 239.207031 162.152344 216.046875 185.3125 187.46875 185.3125 C 158.890625 185.3125 135.78125 162.152344 135.78125 133.574219 L 138.714844 133.574219 L 135.78125 133.574219 C 135.78125 104.996094 158.941406 81.835938 187.519531 81.835938 L 187.519531 84.769531 L 187.519531 81.835938 C 216.097656 81.835938 239.257812 104.996094 239.257812 133.574219 L 236.324219 133.574219 L 239.257812 133.574219 M 233.441406 133.574219 C 233.441406 108.226562 212.914062 87.652344 187.519531 87.652344 C 162.121094 87.652344 141.644531 108.226562 141.644531 133.574219 C 141.644531 158.921875 162.171875 179.5 187.519531 179.5 C 212.867188 179.5 233.441406 158.921875 233.441406 133.574219 Z M 233.441406 133.574219 " clip-rule="nonzero"/></clipPath><clipPath id="b4535353f4"><path d="M 173 119 L 202 119 L 202 148 L 173 148 Z M 173 119 " clip-rule="nonzero"/></clipPath><clipPath id="a9319fb7b9"><path d="M 187.519531 147.839844 C 179.566406 147.839844 173.15625 141.429688 173.15625 133.476562 L 176.085938 133.476562 L 173.15625 133.476562 C 173.15625 125.574219 179.566406 119.113281 187.519531 119.113281 L 187.519531 122.042969 L 187.519531 119.113281 C 195.421875 119.113281 201.832031 125.574219 201.832031 133.476562 L 198.898438 133.476562 L 201.832031 133.476562 C 201.832031 141.378906 195.421875 147.839844 187.519531 147.839844 M 187.519531 142.023438 C 192.191406 142.023438 196.015625 138.199219 196.015625 133.527344 C 196.015625 128.855469 192.191406 125.027344 187.519531 125.027344 C 182.847656 125.027344 179.019531 128.855469 179.019531 133.527344 C 179.019531 138.199219 182.847656 142.023438 187.519531 142.023438 Z M 187.519531 142.023438 " clip-rule="nonzero"/></clipPath><clipPath id="990b916efe"><path d="M 184 67 L 190.84375 67 L 190.84375 87.867188 L 184 87.867188 Z M 184 67 " clip-rule="nonzero"/></clipPath><clipPath id="e800d09d8b"><path d="M 184.585938 84.71875 L 184.585938 70.703125 C 184.585938 69.113281 185.878906 67.773438 187.519531 67.773438 L 190.449219 69.066406 L 190.449219 84.71875 C 190.449219 86.308594 189.160156 87.652344 187.519531 87.652344 L 184.585938 86.359375 Z M 184.585938 84.71875 " clip-rule="nonzero"/></clipPath><clipPath id="45238c03a7"><path d="M 184 179.082031 L 190.84375 179.082031 L 190.84375 200 L 184 200 Z M 184 179.082031 " clip-rule="nonzero"/></clipPath><clipPath id="60baf75668"><path d="M 184.585938 196.792969 L 184.585938 182.730469 C 184.585938 181.136719 185.878906 179.796875 187.519531 179.796875 L 190.449219 181.089844 L 190.449219 196.746094 C 190.449219 198.335938 189.160156 199.675781 187.519531 199.675781 L 184.585938 198.382812 Z M 184.585938 196.792969 " clip-rule="nonzero"/></clipPath><clipPath id="8231a73b4b"><path d="M 233 130 L 253.988281 130 L 253.988281 136.984375 L 233 136.984375 Z M 233 130 " clip-rule="nonzero"/></clipPath><clipPath id="d21b66853f"><path d="M 236.523438 130.84375 L 250.539062 130.84375 C 252.128906 130.84375 253.46875 132.132812 253.46875 133.773438 L 252.179688 136.707031 L 236.523438 136.707031 C 234.933594 136.707031 233.589844 135.414062 233.589844 133.773438 L 234.882812 130.84375 Z M 236.523438 130.84375 " clip-rule="nonzero"/></clipPath><clipPath id="3f4575e010"><path d="M 121 130 L 141.726562 130 L 141.726562 136.984375 L 121 136.984375 Z M 121 130 " clip-rule="nonzero"/></clipPath><clipPath id="5608b7ec75"><path d="M 124.449219 130.84375 L 138.464844 130.84375 C 140.054688 130.84375 141.398438 132.132812 141.398438 133.773438 L 140.105469 136.707031 L 124.449219 136.707031 C 122.859375 136.707031 121.515625 135.414062 121.515625 133.773438 L 122.808594 130.84375 Z M 124.449219 130.84375 " clip-rule="nonzero"/></clipPath><clipPath id="c3d010bfe7"><path d="M 208 76 L 223 76 L 223 94.886719 L 208 94.886719 Z M 208 76 " clip-rule="nonzero"/></clipPath><clipPath id="78e490290b"><path d="M 209.484375 89.839844 L 216.492188 77.664062 C 217.289062 76.269531 219.078125 75.773438 220.46875 76.617188 L 222.359375 79.203125 L 214.554688 92.773438 C 213.761719 94.164062 211.972656 94.660156 210.578125 93.816406 L 208.691406 91.230469 Z M 209.484375 89.839844 " clip-rule="nonzero"/></clipPath><clipPath id="c58300ca21"><path d="M 152 173 L 166.988281 173 L 166.988281 191.710938 L 152 191.710938 Z M 152 173 " clip-rule="nonzero"/></clipPath><clipPath id="508936e11c"><path d="M 153.472656 186.902344 L 160.480469 174.726562 C 161.277344 173.335938 163.066406 172.839844 164.457031 173.683594 L 166.347656 176.269531 L 158.542969 189.835938 C 157.75 191.226562 155.960938 191.722656 154.566406 190.878906 L 152.679688 188.296875 Z M 153.472656 186.902344 " clip-rule="nonzero"/></clipPath><clipPath id="32d270b818"><path d="M 153 76 L 166 76 L 166 94.886719 L 153 94.886719 Z M 153 76 " clip-rule="nonzero"/></clipPath><clipPath id="2d38e7a8ba"><path d="M 160.480469 92.773438 L 153.472656 80.59375 C 152.679688 79.203125 153.125 77.414062 154.519531 76.617188 L 157.699219 76.269531 L 165.550781 89.839844 C 166.347656 91.230469 165.898438 93.019531 164.507812 93.816406 L 161.328125 94.164062 Z M 160.480469 92.773438 " clip-rule="nonzero"/></clipPath><clipPath id="1070fb3fd7"><path d="M 209.085938 173 L 222 173 L 222 191.710938 L 209.085938 191.710938 Z M 209.085938 173 " clip-rule="nonzero"/></clipPath><clipPath id="c93d04ab8e"><path d="M 216.492188 189.785156 L 209.484375 177.609375 C 208.691406 176.21875 209.136719 174.429688 210.53125 173.632812 L 213.710938 173.285156 L 221.5625 186.855469 C 222.359375 188.246094 221.910156 190.035156 220.519531 190.828125 L 217.339844 191.179688 Z M 216.492188 189.785156 " clip-rule="nonzero"/></clipPath><clipPath id="068fdd1cbb"><path d="M 226 154 L 245 154 L 245 169 L 226 169 Z M 226 154 " clip-rule="nonzero"/></clipPath><clipPath id="098b78f273"><path d="M 231.402344 155.691406 L 243.53125 162.75 C 244.921875 163.542969 245.417969 165.332031 244.574219 166.726562 L 241.988281 168.613281 L 228.421875 160.761719 C 227.03125 159.964844 226.53125 158.175781 227.378906 156.785156 L 229.960938 154.898438 Z M 231.402344 155.691406 " clip-rule="nonzero"/></clipPath><clipPath id="1d1b684ac9"><path d="M 129.097656 98 L 148 98 L 148 113 L 129.097656 113 Z M 129.097656 98 " clip-rule="nonzero"/></clipPath><clipPath id="98d768a8c9"><path d="M 134.339844 99.679688 L 146.515625 106.6875 C 147.90625 107.484375 148.40625 109.273438 147.558594 110.664062 L 144.976562 112.550781 L 131.40625 104.699219 C 130.015625 103.90625 129.519531 102.113281 130.363281 100.722656 L 132.949219 98.835938 Z M 134.339844 99.679688 " clip-rule="nonzero"/></clipPath><clipPath id="f91b0c0266"><path d="M 227 99.09375 L 245 99.09375 L 245 113 L 227 113 Z M 227 99.09375 " clip-rule="nonzero"/></clipPath><clipPath id="c16559fd3c"><path d="M 228.472656 106.738281 L 240.597656 99.730469 C 241.988281 98.933594 243.777344 99.382812 244.574219 100.773438 L 244.921875 103.953125 L 231.355469 111.757812 C 229.960938 112.550781 228.171875 112.105469 227.378906 110.714844 L 227.03125 107.53125 Z M 228.472656 106.738281 " clip-rule="nonzero"/></clipPath><clipPath id="92e945e369"><path d="M 130 155.226562 L 148 155.226562 L 148 169 L 130 169 Z M 130 155.226562 " clip-rule="nonzero"/></clipPath><clipPath id="7567565a7c"><path d="M 131.457031 162.75 L 143.632812 155.742188 C 145.023438 154.945312 146.8125 155.394531 147.609375 156.785156 L 147.957031 159.964844 L 134.390625 167.769531 C 132.996094 168.5625 131.207031 168.117188 130.414062 166.726562 L 130.066406 163.542969 Z M 131.457031 162.75 " clip-rule="nonzero"/></clipPath></defs><g clip-path="url(#a99e4ea1c5)"><g clip-path="url(#06f1b4116c)"><path fill="#cdc9be" d="M 0 7.882812 L 374.667969 7.882812 L 374.667969 367.117188 L 0 367.117188 Z M 0 7.882812 " fill-opacity="1" fill-rule="nonzero"/></g></g><g clip-path="url(#ae66feb280)"><g clip-path="url(#79f916948b)"><path fill="#cdc9be" d="M 0 7.882812 L 374.667969 7.882812 L 374.667969 367.117188 L 0 367.117188 Z M 0 7.882812 " fill-opacity="1" fill-rule="nonzero"/></g></g><g clip-path="url(#4daab4013b)"><g clip-path="url(#afa549962b)"><path fill="#cdc9be" d="M 0 7.882812 L 374.667969 7.882812 L 374.667969 367.117188 L 0 367.117188 Z M 0 7.882812 " fill-opacity="1" fill-rule="nonzero"/></g></g><g clip-path="url(#f778a3935a)"><g clip-path="url(#355d8de244)"><path fill="#ffffff" d="M 0 7.882812 L 374.667969 7.882812 L 374.667969 367.117188 L 0 367.117188 Z M 0 7.882812 " fill-opacity="1" fill-rule="nonzero"/></g></g><g clip-path="url(#414cd6e0ab)"><g clip-path="url(#b6ad1749b0)"><path fill="#cdc9be" d="M 0 7.882812 L 374.667969 7.882812 L 374.667969 367.117188 L 0 367.117188 Z M 0 7.882812 " fill-opacity="1" fill-rule="nonzero"/></g></g><g clip-path="url(#b4535353f4)"><g clip-path="url(#a9319fb7b9)"><path fill="#cdc9be" d="M 0 7.882812 L 374.667969 7.882812 L 374.667969 367.117188 L 0 367.117188 Z M 0 7.882812 " fill-opacity="1" fill-rule="nonzero"/></g></g><g clip-path="url(#990b916efe)"><g clip-path="url(#e800d09d8b)"><path fill="#cdc9be" d="M 0 7.882812 L 374.667969 7.882812 L 374.667969 367.117188 L 0 367.117188 Z M 0 7.882812 " fill-opacity="1" fill-rule="nonzero"/></g></g><g clip-path="url(#45238c03a7)"><g clip-path="url(#60baf75668)"><path fill="#cdc9be" d="M 0 7.882812 L 374.667969 7.882812 L 374.667969 367.117188 L 0 367.117188 Z M 0 7.882812 " fill-opacity="1" fill-rule="nonzero"/></g></g><g clip-path="url(#8231a73b4b)"><g clip-path="url(#d21b66853f)"><path fill="#cdc9be" d="M 0 7.882812 L 374.667969 7.882812 L 374.667969 367.117188 L 0 367.117188 Z M 0 7.882812 " fill-opacity="1" fill-rule="nonzero"/></g></g><g clip-path="url(#3f4575e010)"><g clip-path="url(#5608b7ec75)"><path fill="#cdc9be" d="M 0 7.882812 L 374.667969 7.882812 L 374.667969 367.117188 L 0 367.117188 Z M 0 7.882812 " fill-opacity="1" fill-rule="nonzero"/></g></g><g clip-path="url(#c3d010bfe7)"><g clip-path="url(#78e490290b)"><path fill="#cdc9be" d="M 0 7.882812 L 374.667969 7.882812 L 374.667969 367.117188 L 0 367.117188 Z M 0 7.882812 " fill-opacity="1" fill-rule="nonzero"/></g></g><g clip-path="url(#c58300ca21)"><g clip-path="url(#508936e11c)"><path fill="#cdc9be" d="M 0 7.882812 L 374.667969 7.882812 L 374.667969 367.117188 L 0 367.117188 Z M 0 7.882812 " fill-opacity="1" fill-rule="nonzero"/></g></g><g clip-path="url(#32d270b818)"><g clip-path="url(#2d38e7a8ba)"><path fill="#cdc9be" d="M 0 7.882812 L 374.667969 7.882812 L 374.667969 367.117188 L 0 367.117188 Z M 0 7.882812 " fill-opacity="1" fill-rule="nonzero"/></g></g><g clip-path="url(#1070fb3fd7)"><g clip-path="url(#c93d04ab8e)"><path fill="#cdc9be" d="M 0 7.882812 L 374.667969 7.882812 L 374.667969 367.117188 L 0 367.117188 Z M 0 7.882812 " fill-opacity="1" fill-rule="nonzero"/></g></g><g clip-path="url(#068fdd1cbb)"><g clip-path="url(#098b78f273)"><path fill="#cdc9be" d="M 0 7.882812 L 374.667969 7.882812 L 374.667969 367.117188 L 0 367.117188 Z M 0 7.882812 " fill-opacity="1" fill-rule="nonzero"/></g></g><g clip-path="url(#1d1b684ac9)"><g clip-path="url(#98d768a8c9)"><path fill="#cdc9be" d="M 0 7.882812 L 374.667969 7.882812 L 374.667969 367.117188 L 0 367.117188 Z M 0 7.882812 " fill-opacity="1" fill-rule="nonzero"/></g></g><g clip-path="url(#f91b0c0266)"><g clip-path="url(#c16559fd3c)"><path fill="#cdc9be" d="M 0 7.882812 L 374.667969 7.882812 L 374.667969 367.117188 L 0 367.117188 Z M 0 7.882812 " fill-opacity="1" fill-rule="nonzero"/></g></g><g clip-path="url(#92e945e369)"><g clip-path="url(#7567565a7c)"><path fill="#cdc9be" d="M 0 7.882812 L 374.667969 7.882812 L 374.667969 367.117188 L 0 367.117188 Z M 0 7.882812 " fill-opacity="1" fill-rule="nonzero"/></g></g></svg>