<svg xmlns="http://www.w3.org/2000/svg" xmlns:xlink="http://www.w3.org/1999/xlink" width="500" zoomAndPan="magnify" viewBox="0 0 375 374.999991" height="500" preserveAspectRatio="xMidYMid meet" version="1.0"><defs><clipPath id="7895520737"><path d="M 73 116.152344 L 107 116.152344 L 107 155 L 73 155 Z M 73 116.152344 " clip-rule="nonzero"/></clipPath><clipPath id="f3ad9d562f"><path d="M 106.101562 133.234375 C 106.101562 141.269531 99.601562 154.632812 89.789062 154.632812 C 79.980469 154.632812 73.480469 141.3125 73.480469 133.234375 L 75.863281 133.234375 L 73.480469 133.234375 C 73.480469 124.234375 80.789062 116.925781 89.789062 116.925781 L 89.789062 119.308594 L 89.789062 116.925781 C 98.792969 116.925781 106.101562 124.234375 106.101562 133.234375 L 103.757812 133.234375 L 106.140625 133.234375 M 101.417969 133.234375 C 101.417969 126.855469 96.25 121.648438 89.832031 121.648438 C 83.410156 121.648438 78.242188 126.816406 78.242188 133.234375 C 78.242188 140.585938 84.21875 149.871094 89.832031 149.871094 C 95.441406 149.871094 101.417969 140.585938 101.417969 133.234375 Z M 101.417969 133.234375 " clip-rule="nonzero"/></clipPath><clipPath id="fc3ab2c228"><path d="M 58 158 L 122 158 L 122 181 L 58 181 Z M 58 158 " clip-rule="nonzero"/></clipPath><clipPath id="47bff30d27"><path d="M 116.71875 178.089844 L 116.71875 168.117188 L 119.101562 168.117188 L 117.851562 170.136719 L 100.410156 163.476562 L 100.851562 161.132812 L 103.03125 162.0625 C 100.691406 167.632812 96.046875 173.769531 89.832031 173.769531 C 83.613281 173.769531 78.96875 167.632812 76.628906 162.0625 L 78.808594 161.132812 L 79.253906 163.476562 L 61.851562 170.097656 L 60.601562 168.078125 L 62.984375 168.078125 L 62.984375 178.132812 C 62.984375 179.421875 61.933594 180.511719 60.601562 180.511719 L 58.21875 179.464844 L 58.21875 168.078125 C 58.21875 167.269531 58.621094 166.503906 59.308594 166.058594 C 64.757812 162.585938 71.300781 160.085938 78.40625 158.753906 L 80.585938 159.15625 L 81.03125 160.207031 C 83.289062 165.574219 86.804688 169.007812 89.871094 169.007812 C 92.941406 169.007812 96.453125 165.574219 98.714844 160.207031 L 100.246094 158.589844 L 101.335938 158.792969 C 108.441406 160.125 114.984375 162.628906 120.433594 166.101562 L 121.523438 167.269531 L 121.523438 178.089844 C 121.523438 179.382812 120.472656 180.472656 119.140625 180.472656 L 116.761719 179.421875 Z M 116.71875 178.089844 " clip-rule="nonzero"/></clipPath><clipPath id="54559d69cd"><path d="M 27.351562 88 L 152.210938 88 L 152.210938 235 L 27.351562 235 Z M 27.351562 88 " clip-rule="nonzero"/></clipPath><clipPath id="8017508343"><path d="M 147.324219 150.71875 C 147.324219 118.902344 121.5625 93.144531 89.789062 93.144531 L 88.699219 93.144531 L 88.09375 90.804688 L 88.175781 93.1875 C 57.25 94.035156 31.894531 120.558594 32.296875 151.523438 C 32.703125 179.140625 52.484375 202.03125 78.648438 207.160156 L 80.179688 207.925781 L 86.519531 227.589844 C 87.167969 229.566406 89.144531 230.375 90.878906 229.808594 L 92.65625 228.800781 L 95.28125 228.316406 L 93.019531 227.589844 L 99.117188 208.734375 C 99.398438 207.925781 100.085938 207.320312 100.894531 207.121094 C 127.296875 201.910156 147.242188 178.617188 147.242188 150.636719 L 149.625 150.636719 L 147.242188 150.636719 M 151.964844 150.636719 C 151.964844 180.917969 130.367188 206.152344 101.78125 211.761719 L 101.335938 209.421875 L 103.597656 210.148438 L 97.582031 229.082031 C 96.695312 231.828125 94.675781 233.605469 92.375 234.332031 C 88.5 235.582031 83.574219 233.886719 82.039062 229.082031 L 84.300781 228.355469 L 82.039062 229.082031 L 75.941406 210.226562 L 78.203125 209.5 L 77.757812 211.84375 C 49.417969 206.273438 27.980469 181.480469 27.574219 151.605469 L 29.957031 151.566406 L 27.574219 151.605469 C 27.089844 118.097656 54.542969 89.390625 88.015625 88.421875 L 89.226562 88.382812 L 89.832031 88.382812 C 124.230469 88.382812 152.085938 116.277344 152.085938 150.675781 Z M 151.964844 150.636719 " clip-rule="nonzero"/></clipPath><clipPath id="51d8993ce5"><path d="M 268.746094 116.152344 L 302 116.152344 L 302 155 L 268.746094 155 Z M 268.746094 116.152344 " clip-rule="nonzero"/></clipPath><clipPath id="0738077562"><path d="M 301.46875 133.234375 C 301.46875 141.269531 294.96875 154.632812 285.15625 154.632812 C 275.347656 154.632812 268.847656 141.3125 268.847656 133.234375 L 271.230469 133.234375 L 268.847656 133.234375 C 268.847656 124.234375 276.152344 116.925781 285.15625 116.925781 L 285.15625 119.308594 L 285.15625 116.925781 C 294.160156 116.925781 301.46875 124.234375 301.46875 133.234375 L 299.085938 133.234375 L 301.46875 133.234375 M 296.746094 133.234375 C 296.746094 126.855469 291.578125 121.648438 285.15625 121.648438 C 278.738281 121.648438 273.570312 126.816406 273.570312 133.234375 C 273.570312 140.585938 279.546875 149.871094 285.15625 149.871094 C 290.769531 149.871094 296.746094 140.585938 296.746094 133.234375 Z M 296.746094 133.234375 " clip-rule="nonzero"/></clipPath><clipPath id="0a05b3500b"><path d="M 253.285156 158 L 317 158 L 317 181 L 253.285156 181 Z M 253.285156 158 " clip-rule="nonzero"/></clipPath><clipPath id="4592104f69"><path d="M 312.085938 178.089844 L 312.085938 168.117188 L 314.46875 168.117188 L 313.21875 170.136719 L 295.777344 163.476562 L 296.21875 161.132812 L 298.398438 162.0625 C 296.058594 167.632812 291.414062 173.769531 285.199219 173.769531 C 278.980469 173.769531 274.335938 167.632812 271.996094 162.0625 L 274.175781 161.132812 L 274.621094 163.476562 L 257.21875 170.097656 L 255.96875 168.078125 L 258.347656 168.078125 L 258.347656 178.132812 C 258.347656 179.421875 257.300781 180.511719 255.96875 180.511719 L 253.585938 179.464844 L 253.585938 168.078125 C 253.585938 167.269531 253.988281 166.503906 254.675781 166.058594 C 260.125 162.585938 266.667969 160.085938 273.773438 158.753906 L 275.953125 159.15625 L 276.398438 160.207031 C 278.65625 165.574219 282.167969 169.007812 285.238281 169.007812 C 288.304688 169.007812 291.820312 165.574219 294.078125 160.207031 L 295.613281 158.589844 L 296.703125 158.792969 C 303.808594 160.125 310.351562 162.628906 315.800781 166.101562 L 316.890625 167.269531 L 316.890625 178.089844 C 316.890625 179.382812 315.839844 180.472656 314.507812 180.472656 L 312.128906 179.421875 Z M 312.085938 178.089844 " clip-rule="nonzero"/></clipPath><clipPath id="24e8344472"><path d="M 222.367188 88 L 348 88 L 348 235 L 222.367188 235 Z M 222.367188 88 " clip-rule="nonzero"/></clipPath><clipPath id="0e409d4be4"><path d="M 342.691406 150.71875 C 342.691406 118.902344 316.929688 93.144531 285.15625 93.144531 L 284.066406 93.144531 L 283.460938 90.804688 L 283.542969 93.1875 C 252.65625 94.035156 227.261719 120.597656 227.707031 151.566406 L 225.324219 151.605469 L 227.707031 151.566406 C 228.109375 179.179688 247.894531 202.074219 274.054688 207.199219 L 275.589844 207.96875 L 281.925781 227.628906 C 282.574219 229.609375 284.550781 230.414062 286.289062 229.851562 L 288.0625 228.839844 L 290.6875 228.355469 L 288.429688 227.628906 L 294.523438 208.773438 C 294.808594 207.96875 295.492188 207.363281 296.300781 207.160156 C 322.703125 201.953125 342.648438 178.65625 342.648438 150.675781 L 345.03125 150.675781 L 342.648438 150.675781 M 347.371094 150.675781 C 347.371094 180.957031 325.773438 206.191406 297.1875 211.804688 L 296.746094 209.460938 L 299.003906 210.1875 L 292.949219 229.082031 C 292.0625 231.828125 290.042969 233.605469 287.742188 234.332031 C 283.867188 235.582031 278.941406 233.886719 277.40625 229.082031 L 279.667969 228.355469 L 277.40625 229.082031 L 271.308594 210.226562 L 273.570312 209.5 L 273.125 211.84375 C 244.785156 206.273438 223.347656 181.480469 222.941406 151.605469 C 222.457031 118.097656 249.910156 89.390625 283.382812 88.421875 L 284.59375 88.382812 L 285.199219 88.382812 C 319.597656 88.382812 347.453125 116.277344 347.453125 150.675781 Z M 347.371094 150.675781 " clip-rule="nonzero"/></clipPath><clipPath id="d43fda43c7"><path d="M 117 57 L 265.179688 57 L 265.179688 232.6875 L 117 232.6875 Z M 117 57 " clip-rule="nonzero"/></clipPath><clipPath id="c6185ca8ce"><path d="M 264.972656 131.703125 C 264.972656 90.199219 230.773438 56.6875 189.070312 57.859375 C 149.382812 58.988281 116.839844 93.023438 117.40625 132.75 C 117.890625 168.199219 143.324219 197.550781 176.875 204.171875 L 184.386719 227.425781 C 186.523438 234.046875 195.851562 234.046875 197.992188 227.425781 L 205.5 204.171875 C 239.414062 197.511719 265.011719 167.632812 265.011719 131.703125 " clip-rule="nonzero"/></clipPath><clipPath id="61f5800e54"><path d="M 114.15625 55 L 267.554688 55 L 267.554688 235 L 114.15625 235 Z M 114.15625 55 " clip-rule="nonzero"/></clipPath><clipPath id="b6e07b7b79"><path d="M 262.589844 131.703125 C 262.589844 92.214844 230.613281 60.199219 191.167969 60.199219 L 189.796875 60.199219 L 189.027344 57.859375 L 189.109375 60.242188 C 150.753906 61.332031 119.222656 94.316406 119.746094 132.75 C 120.230469 167.027344 144.820312 195.492188 177.320312 201.871094 L 178.855469 202.636719 L 186.605469 226.699219 C 187.496094 229.488281 190.28125 230.535156 192.703125 229.769531 L 195.164062 228.355469 L 203.199219 203.445312 C 203.480469 202.636719 204.167969 202.03125 204.976562 201.832031 C 237.800781 195.371094 262.546875 166.421875 262.546875 131.703125 L 264.929688 131.703125 L 262.546875 131.703125 M 267.273438 131.703125 C 267.273438 168.765625 240.867188 199.609375 205.863281 206.472656 L 205.421875 204.132812 L 207.679688 204.859375 L 200.171875 228.113281 L 197.910156 227.386719 L 200.171875 228.113281 L 196.78125 233.363281 L 194.074219 234.210938 C 189.554688 235.664062 183.820312 233.683594 182.042969 228.074219 L 184.304688 227.347656 L 182.042969 228.074219 L 174.535156 204.816406 L 176.796875 204.089844 L 176.351562 206.433594 C 141.710938 199.609375 115.46875 169.289062 114.941406 132.75 L 117.324219 132.710938 L 114.941406 132.75 C 114.417969 91.773438 148.007812 56.648438 188.988281 55.515625 L 190.441406 55.476562 L 191.167969 55.476562 C 233.238281 55.476562 267.3125 89.632812 267.3125 131.703125 Z M 267.273438 131.703125 " clip-rule="nonzero"/></clipPath><clipPath id="4db80a03a4"><path d="M 171.234375 93 L 211 93 L 211 139 L 171.234375 139 Z M 171.234375 93 " clip-rule="nonzero"/></clipPath><clipPath id="f259e083e2"><path d="M 210.667969 113.050781 C 210.667969 122.859375 202.714844 138.847656 191.128906 138.847656 C 179.539062 138.847656 171.585938 122.902344 171.585938 113.050781 L 173.96875 113.050781 L 171.585938 113.050781 C 171.585938 102.269531 180.347656 93.507812 191.128906 93.507812 L 191.128906 95.851562 L 191.128906 93.46875 C 201.90625 93.46875 210.667969 102.230469 210.667969 113.007812 L 208.328125 113.007812 L 210.707031 113.007812 M 205.984375 113.007812 C 205.984375 104.8125 199.363281 98.191406 191.167969 98.191406 C 182.972656 98.191406 176.351562 104.8125 176.351562 113.007812 C 176.351562 122.171875 183.78125 134.082031 191.167969 134.082031 C 198.554688 134.082031 205.984375 122.171875 205.984375 113.007812 Z M 205.984375 113.007812 " clip-rule="nonzero"/></clipPath><clipPath id="1246207197"><path d="M 152.210938 144.691406 L 230 144.691406 L 230 170.851562 L 152.210938 170.851562 Z M 152.210938 144.691406 " clip-rule="nonzero"/></clipPath><clipPath id="f8ab6e0739"><path d="M 224.878906 168.320312 L 224.878906 155.964844 L 227.261719 155.964844 L 226.011719 157.984375 L 204.328125 149.707031 L 204.773438 147.367188 L 206.953125 148.296875 C 204.085938 155.117188 198.515625 162.386719 191.207031 162.386719 C 183.902344 162.386719 178.328125 155.160156 175.464844 148.296875 L 177.644531 147.367188 L 178.085938 149.707031 C 169.933594 151.242188 162.542969 154.109375 156.445312 157.945312 L 155.195312 155.925781 L 157.457031 155.925781 L 157.457031 168.320312 C 157.457031 169.613281 156.40625 170.703125 155.074219 170.703125 L 152.691406 169.652344 L 152.691406 155.964844 C 152.691406 155.160156 153.097656 154.390625 153.78125 153.949219 C 160.445312 149.707031 168.398438 146.640625 177.117188 145.023438 L 179.296875 145.429688 L 179.742188 146.4375 C 182.527344 153.101562 186.96875 157.621094 191.128906 157.621094 C 195.285156 157.621094 199.726562 153.101562 202.511719 146.4375 L 204.046875 144.824219 L 205.136719 145.023438 C 213.859375 146.640625 221.8125 149.707031 228.511719 153.988281 L 229.605469 155.160156 L 229.605469 168.28125 C 229.605469 169.570312 228.554688 170.664062 227.222656 170.664062 L 224.839844 169.613281 Z M 224.878906 168.320312 " clip-rule="nonzero"/></clipPath><clipPath id="1040d7b473"><path d="M 20 271 L 355 271 L 355 320 L 20 320 Z M 20 271 " clip-rule="nonzero"/></clipPath><clipPath id="4840c96472"><path d="M 352.460938 319.519531 L 22.570312 319.519531 C 21.277344 319.519531 20.1875 318.46875 20.1875 317.136719 L 20.1875 274.140625 C 20.1875 272.847656 21.238281 271.757812 22.570312 271.757812 L 352.460938 271.757812 C 353.753906 271.757812 354.84375 272.808594 354.84375 274.140625 L 354.84375 317.136719 C 354.84375 318.429688 353.792969 319.519531 352.460938 319.519531 M 352.460938 314.796875 L 352.460938 317.175781 L 350.078125 317.175781 L 350.078125 274.140625 L 352.460938 274.140625 L 352.460938 276.519531 L 22.570312 276.519531 L 22.570312 274.140625 L 24.949219 274.140625 L 24.949219 317.136719 L 22.570312 317.136719 L 22.570312 314.753906 L 352.460938 314.753906 Z M 352.460938 314.796875 " clip-rule="nonzero"/></clipPath><clipPath id="8b87a570bf"><path d="M 217 271 L 222.367188 271 L 222.367188 320 L 217 320 Z M 217 271 " clip-rule="nonzero"/></clipPath><clipPath id="6e9d5bc390"><path d="M 217.25 317.136719 L 217.25 274.140625 C 217.25 272.847656 218.300781 271.757812 219.632812 271.757812 L 222.011719 272.808594 L 222.011719 317.136719 C 222.011719 318.429688 220.964844 319.519531 219.632812 319.519531 L 217.25 318.46875 Z M 217.25 317.136719 " clip-rule="nonzero"/></clipPath><clipPath id="f7f24c7633"><path d="M 309 285.007812 L 331 285.007812 L 331 307.601562 L 309 307.601562 Z M 309 285.007812 " clip-rule="nonzero"/></clipPath><clipPath id="836b9ef7eb"><path d="M 330.78125 296.222656 C 330.78125 302.238281 325.894531 307.085938 319.917969 307.085938 C 313.945312 307.085938 309.058594 302.238281 309.058594 296.222656 L 311.441406 296.222656 L 309.058594 296.222656 C 309.058594 290.207031 313.945312 285.363281 319.917969 285.363281 L 319.917969 287.746094 L 319.917969 285.363281 C 325.894531 285.363281 330.78125 290.207031 330.78125 296.222656 L 328.398438 296.222656 L 330.78125 296.222656 M 326.054688 296.222656 C 326.054688 292.832031 323.308594 290.128906 319.960938 290.128906 C 316.609375 290.128906 313.824219 292.871094 313.824219 296.222656 C 313.824219 299.574219 316.566406 302.320312 319.960938 302.320312 C 323.351562 302.320312 326.054688 299.574219 326.054688 296.222656 Z M 326.054688 296.222656 " clip-rule="nonzero"/></clipPath><clipPath id="20ad8a1ccf"><path d="M 276 285.007812 L 299 285.007812 L 299 307.601562 L 276 307.601562 Z M 276 285.007812 " clip-rule="nonzero"/></clipPath><clipPath id="44c8e4eaa3"><path d="M 298.5625 296.222656 C 298.5625 302.238281 293.675781 307.085938 287.699219 307.085938 C 281.726562 307.085938 276.839844 302.238281 276.839844 296.222656 L 279.222656 296.222656 L 276.839844 296.222656 C 276.839844 290.207031 281.683594 285.363281 287.699219 285.363281 L 287.699219 287.746094 L 287.699219 285.363281 C 293.675781 285.363281 298.5625 290.207031 298.5625 296.222656 L 296.179688 296.222656 L 298.5625 296.222656 M 293.835938 296.222656 C 293.835938 292.832031 291.09375 290.128906 287.742188 290.128906 C 284.390625 290.128906 281.605469 292.871094 281.605469 296.222656 C 281.605469 299.574219 284.351562 302.320312 287.742188 302.320312 C 291.132812 302.320312 293.835938 299.574219 293.835938 296.222656 Z M 293.835938 296.222656 " clip-rule="nonzero"/></clipPath><clipPath id="41572255fe"><path d="M 244 285.007812 L 266.367188 285.007812 L 266.367188 307.601562 L 244 307.601562 Z M 244 285.007812 " clip-rule="nonzero"/></clipPath><clipPath id="3177dafef6"><path d="M 266.304688 296.222656 C 266.304688 302.238281 261.417969 307.085938 255.441406 307.085938 C 249.46875 307.085938 244.582031 302.238281 244.582031 296.222656 L 246.964844 296.222656 L 244.582031 296.222656 C 244.582031 290.207031 249.46875 285.363281 255.441406 285.363281 L 255.441406 287.746094 L 255.441406 285.363281 C 261.417969 285.363281 266.304688 290.207031 266.304688 296.222656 L 263.921875 296.222656 L 266.304688 296.222656 M 261.578125 296.222656 C 261.578125 292.832031 258.835938 290.128906 255.484375 290.128906 C 252.132812 290.128906 249.347656 292.871094 249.347656 296.222656 C 249.347656 299.574219 252.089844 302.320312 255.484375 302.320312 C 258.875 302.320312 261.578125 299.574219 261.578125 296.222656 Z M 261.578125 296.222656 " clip-rule="nonzero"/></clipPath></defs><g clip-path="url(#7895520737)"><g clip-path="url(#f3ad9d562f)"><path fill="#cdc9be" d="M 0 35.289062 L 374.578125 35.289062 L 374.578125 339.710938 L 0 339.710938 Z M 0 35.289062 " fill-opacity="1" fill-rule="nonzero"/></g></g><g clip-path="url(#fc3ab2c228)"><g clip-path="url(#47bff30d27)"><path fill="#cdc9be" d="M 0 35.289062 L 374.578125 35.289062 L 374.578125 339.710938 L 0 339.710938 Z M 0 35.289062 " fill-opacity="1" fill-rule="nonzero"/></g></g><g clip-path="url(#54559d69cd)"><g clip-path="url(#8017508343)"><path fill="#cdc9be" d="M 0 35.289062 L 374.578125 35.289062 L 374.578125 339.710938 L 0 339.710938 Z M 0 35.289062 " fill-opacity="1" fill-rule="nonzero"/></g></g><g clip-path="url(#51d8993ce5)"><g clip-path="url(#0738077562)"><path fill="#cdc9be" d="M 0 35.289062 L 374.578125 35.289062 L 374.578125 339.710938 L 0 339.710938 Z M 0 35.289062 " fill-opacity="1" fill-rule="nonzero"/></g></g><g clip-path="url(#0a05b3500b)"><g clip-path="url(#4592104f69)"><path fill="#cdc9be" d="M 0 35.289062 L 374.578125 35.289062 L 374.578125 339.710938 L 0 339.710938 Z M 0 35.289062 " fill-opacity="1" fill-rule="nonzero"/></g></g><g clip-path="url(#24e8344472)"><g clip-path="url(#0e409d4be4)"><path fill="#cdc9be" d="M 0 35.289062 L 374.578125 35.289062 L 374.578125 339.710938 L 0 339.710938 Z M 0 35.289062 " fill-opacity="1" fill-rule="nonzero"/></g></g><g clip-path="url(#d43fda43c7)"><g clip-path="url(#c6185ca8ce)"><path fill="#ffffff" d="M 0 35.289062 L 374.578125 35.289062 L 374.578125 339.710938 L 0 339.710938 Z M 0 35.289062 " fill-opacity="1" fill-rule="nonzero"/></g></g><g clip-path="url(#61f5800e54)"><g clip-path="url(#b6e07b7b79)"><path fill="#cdc9be" d="M 0 35.289062 L 374.578125 35.289062 L 374.578125 339.710938 L 0 339.710938 Z M 0 35.289062 " fill-opacity="1" fill-rule="nonzero"/><path fill="#cdc9be" d="M 0 35.289062 L 374.578125 35.289062 L 374.578125 339.710938 L 0 339.710938 Z M 0 35.289062 " fill-opacity="1" fill-rule="nonzero"/></g></g><g clip-path="url(#4db80a03a4)"><g clip-path="url(#f259e083e2)"><path fill="#cdc9be" d="M 0 35.289062 L 374.578125 35.289062 L 374.578125 339.710938 L 0 339.710938 Z M 0 35.289062 " fill-opacity="1" fill-rule="nonzero"/></g></g><g clip-path="url(#1246207197)"><g clip-path="url(#f8ab6e0739)"><path fill="#cdc9be" d="M 0 35.289062 L 374.578125 35.289062 L 374.578125 339.710938 L 0 339.710938 Z M 0 35.289062 " fill-opacity="1" fill-rule="nonzero"/></g></g><g clip-path="url(#1040d7b473)"><g clip-path="url(#4840c96472)"><path fill="#cdc9be" d="M 0 35.289062 L 374.578125 35.289062 L 374.578125 339.710938 L 0 339.710938 Z M 0 35.289062 " fill-opacity="1" fill-rule="nonzero"/></g></g><g clip-path="url(#8b87a570bf)"><g clip-path="url(#6e9d5bc390)"><path fill="#cdc9be" d="M 0 35.289062 L 374.578125 35.289062 L 374.578125 339.710938 L 0 339.710938 Z M 0 35.289062 " fill-opacity="1" fill-rule="nonzero"/></g></g><g clip-path="url(#f7f24c7633)"><g clip-path="url(#836b9ef7eb)"><path fill="#cdc9be" d="M 0 35.289062 L 374.578125 35.289062 L 374.578125 339.710938 L 0 339.710938 Z M 0 35.289062 " fill-opacity="1" fill-rule="nonzero"/></g></g><g clip-path="url(#20ad8a1ccf)"><g clip-path="url(#44c8e4eaa3)"><path fill="#cdc9be" d="M 0 35.289062 L 374.578125 35.289062 L 374.578125 339.710938 L 0 339.710938 Z M 0 35.289062 " fill-opacity="1" fill-rule="nonzero"/></g></g><g clip-path="url(#41572255fe)"><g clip-path="url(#3177dafef6)"><path fill="#cdc9be" d="M 0 35.289062 L 374.578125 35.289062 L 374.578125 339.710938 L 0 339.710938 Z M 0 35.289062 " fill-opacity="1" fill-rule="nonzero"/></g></g></svg>