<svg xmlns="http://www.w3.org/2000/svg" xmlns:xlink="http://www.w3.org/1999/xlink" width="500" zoomAndPan="magnify" viewBox="0 0 375 374.999991" height="500" preserveAspectRatio="xMidYMid meet" version="1.0"><defs><clipPath id="a2b32bf8f5"><path d="M 23.289062 144 L 190 144 L 190 288.421875 L 23.289062 288.421875 Z M 23.289062 144 " clip-rule="nonzero"/></clipPath><clipPath id="cef50483f0"><path d="M 23.414062 266.683594 C 23.414062 278.621094 33.089844 288.335938 45.066406 288.335938 L 189.234375 288.335938 L 189.234375 144.085938 L 45.027344 144.085938 Z M 23.414062 266.683594 " clip-rule="nonzero"/></clipPath><clipPath id="3142cb2b29"><path d="M 20.378906 141 L 192 141 L 192 291 L 20.378906 291 Z M 20.378906 141 " clip-rule="nonzero"/></clipPath><clipPath id="3ceb4ded8b"><path d="M 25.84375 266.683594 C 25.84375 277.28125 34.429688 285.867188 45.027344 285.867188 L 45.027344 288.335938 L 45.027344 285.867188 L 189.234375 285.867188 L 189.234375 288.335938 L 186.804688 288.335938 L 186.804688 144.085938 L 189.277344 144.085938 L 189.277344 146.558594 L 45.027344 146.558594 L 45.027344 144.085938 L 47.457031 144.503906 L 25.800781 267.101562 L 23.371094 266.683594 L 25.84375 266.683594 M 20.941406 266.683594 L 20.984375 266.265625 L 42.640625 143.710938 C 42.847656 142.535156 43.851562 141.699219 45.066406 141.699219 L 189.234375 141.699219 C 190.574219 141.699219 191.707031 142.789062 191.707031 144.171875 L 191.707031 288.296875 C 191.707031 289.636719 190.617188 290.765625 189.234375 290.765625 L 45.027344 290.765625 C 31.75 290.765625 20.941406 280.003906 20.941406 266.683594 Z M 20.941406 266.683594 " clip-rule="nonzero"/></clipPath><clipPath id="4c9f905344"><path d="M 20.378906 120 L 47.550781 120 L 47.550781 269.984375 L 20.378906 269.984375 Z M 20.378906 120 " clip-rule="nonzero"/></clipPath><clipPath id="27edd587b6"><path d="M 20.941406 266.683594 C 20.941406 253.363281 31.75 242.597656 45.027344 242.597656 L 45.027344 245.070312 L 42.554688 245.070312 L 42.554688 122.472656 L 45.027344 122.472656 L 45.027344 124.945312 C 34.429688 124.945312 25.84375 133.53125 25.84375 144.128906 L 23.414062 144.128906 L 25.886719 144.128906 L 25.886719 266.683594 L 20.941406 266.683594 M 25.84375 266.683594 L 24.753906 269.15625 L 20.941406 268.023438 L 20.941406 144.085938 C 20.941406 130.765625 31.75 120.003906 45.027344 120.003906 L 47.496094 121.089844 L 47.496094 245.027344 C 47.496094 246.367188 46.410156 247.5 45.027344 247.5 C 34.429688 247.5 25.84375 256.085938 25.84375 266.683594 Z M 25.84375 266.683594 " clip-rule="nonzero"/></clipPath><clipPath id="d8db53408f"><path d="M 78.601562 163.242188 L 84 163.242188 L 84 267 L 78.601562 267 Z M 78.601562 163.242188 " clip-rule="nonzero"/></clipPath><clipPath id="c8f432d8b3"><path d="M 83.558594 181.824219 L 83.558594 185.761719 L 82.472656 188.234375 L 78.660156 187.144531 L 78.660156 181.824219 L 79.75 179.351562 L 83.558594 180.441406 Z M 83.558594 197.53125 L 83.558594 201.46875 L 82.472656 203.941406 L 78.660156 202.851562 L 78.660156 197.53125 L 79.75 195.058594 L 83.558594 196.148438 Z M 83.558594 213.238281 L 83.558594 217.175781 L 82.472656 219.648438 L 78.660156 218.558594 L 78.660156 213.238281 L 79.75 210.765625 L 83.558594 211.855469 Z M 83.558594 228.945312 L 83.558594 232.882812 L 82.472656 235.351562 L 78.660156 234.265625 L 78.660156 228.945312 L 79.75 226.472656 L 83.558594 227.5625 Z M 83.558594 244.652344 L 83.558594 248.589844 L 82.472656 251.058594 L 78.660156 249.972656 L 78.660156 244.652344 L 79.75 242.179688 L 83.558594 243.269531 Z M 83.558594 260.359375 L 83.558594 264.296875 L 82.472656 266.765625 L 78.660156 265.679688 L 78.660156 260.359375 L 79.75 257.886719 L 83.558594 258.976562 Z M 83.558594 166.074219 L 83.558594 170.011719 L 82.472656 172.484375 L 78.660156 171.394531 L 78.660156 166.074219 L 79.75 163.605469 L 83.558594 164.695312 Z M 83.558594 166.074219 " clip-rule="nonzero"/></clipPath><clipPath id="9aa45ea174"><path d="M 150.410156 163.242188 L 156 163.242188 L 156 267 L 150.410156 267 Z M 150.410156 163.242188 " clip-rule="nonzero"/></clipPath><clipPath id="ebbbb5c73b"><path d="M 155.644531 181.824219 L 155.644531 185.761719 L 154.554688 188.234375 L 150.742188 187.144531 L 150.742188 181.824219 L 151.832031 179.351562 L 155.644531 180.441406 Z M 155.644531 197.53125 L 155.644531 201.46875 L 154.554688 203.941406 L 150.742188 202.851562 L 150.742188 197.53125 L 151.832031 195.058594 L 155.644531 196.148438 Z M 155.644531 213.238281 L 155.644531 217.175781 L 154.554688 219.648438 L 150.742188 218.558594 L 150.742188 213.238281 L 151.832031 210.765625 L 155.644531 211.855469 Z M 155.644531 228.945312 L 155.644531 232.882812 L 154.554688 235.351562 L 150.742188 234.265625 L 150.742188 228.945312 L 151.832031 226.472656 L 155.644531 227.5625 Z M 155.644531 244.652344 L 155.644531 248.589844 L 154.554688 251.058594 L 150.742188 249.972656 L 150.742188 244.652344 L 151.832031 242.179688 L 155.644531 243.269531 Z M 155.644531 260.359375 L 155.644531 264.296875 L 154.554688 266.765625 L 150.742188 265.679688 L 150.742188 260.359375 L 151.832031 257.886719 L 155.644531 258.976562 Z M 155.644531 166.074219 L 155.644531 170.011719 L 154.554688 172.484375 L 150.742188 171.394531 L 150.742188 166.074219 L 151.832031 163.605469 L 155.644531 164.695312 Z M 155.644531 166.074219 " clip-rule="nonzero"/></clipPath><clipPath id="fc91de7cc4"><path d="M 66.957031 178 L 170.789062 178 L 170.789062 183 L 66.957031 183 Z M 66.957031 178 " clip-rule="nonzero"/></clipPath><clipPath id="700316db09"><path d="M 151.917969 182.957031 L 147.980469 182.957031 L 145.507812 181.867188 L 146.597656 178.054688 L 151.875 178.054688 L 154.34375 179.144531 L 153.257812 182.957031 Z M 136.210938 182.957031 L 132.273438 182.957031 L 129.800781 181.867188 L 130.890625 178.054688 L 136.167969 178.054688 L 138.640625 179.144531 L 137.550781 182.957031 Z M 120.503906 182.957031 L 116.566406 182.957031 L 114.09375 181.867188 L 115.183594 178.054688 L 120.460938 178.054688 L 122.933594 179.144531 L 121.84375 182.957031 Z M 104.796875 182.957031 L 100.859375 182.957031 L 98.386719 181.867188 L 99.476562 178.054688 L 104.753906 178.054688 L 107.226562 179.144531 L 106.136719 182.957031 Z M 89.089844 182.957031 L 85.152344 182.957031 L 82.679688 181.867188 L 83.769531 178.054688 L 89.046875 178.054688 L 91.519531 179.144531 L 90.429688 182.957031 Z M 73.382812 182.957031 L 69.445312 182.957031 L 66.972656 181.867188 L 68.0625 178.054688 L 73.339844 178.054688 L 75.8125 179.144531 L 74.722656 182.957031 Z M 167.664062 182.957031 L 163.726562 182.957031 L 161.257812 181.867188 L 162.34375 178.054688 L 167.621094 178.054688 L 170.09375 179.144531 L 169.003906 182.957031 Z M 167.664062 182.957031 " clip-rule="nonzero"/></clipPath><clipPath id="0e56b1c3aa"><path d="M 66.957031 250 L 170.789062 250 L 170.789062 255.425781 L 66.957031 255.425781 Z M 66.957031 250 " clip-rule="nonzero"/></clipPath><clipPath id="a68373021d"><path d="M 151.917969 255.082031 L 147.980469 255.082031 L 145.507812 253.992188 L 146.597656 250.179688 L 151.875 250.179688 L 154.34375 251.269531 L 153.257812 255.082031 Z M 136.210938 255.082031 L 132.273438 255.082031 L 129.800781 253.992188 L 130.890625 250.179688 L 136.167969 250.179688 L 138.640625 251.269531 L 137.550781 255.082031 Z M 120.503906 255.082031 L 116.566406 255.082031 L 114.09375 253.992188 L 115.183594 250.179688 L 120.460938 250.179688 L 122.933594 251.269531 L 121.84375 255.082031 Z M 104.796875 255.082031 L 100.859375 255.082031 L 98.386719 253.992188 L 99.476562 250.179688 L 104.753906 250.179688 L 107.226562 251.269531 L 106.136719 255.082031 Z M 89.089844 255.082031 L 85.152344 255.082031 L 82.679688 253.992188 L 83.769531 250.179688 L 89.046875 250.179688 L 91.519531 251.269531 L 90.429688 255.082031 Z M 73.382812 255.082031 L 69.445312 255.082031 L 66.972656 253.992188 L 68.0625 250.179688 L 73.339844 250.179688 L 75.8125 251.269531 L 74.722656 255.082031 Z M 167.664062 255.082031 L 163.726562 255.082031 L 161.257812 253.992188 L 162.34375 250.179688 L 167.621094 250.179688 L 170.09375 251.269531 L 169.003906 255.082031 Z M 167.664062 255.082031 " clip-rule="nonzero"/></clipPath><clipPath id="ba8b78d87e"><path d="M 235 89.492188 L 336.722656 89.492188 L 336.722656 189 L 235 189 Z M 235 89.492188 " clip-rule="nonzero"/></clipPath><clipPath id="059c2d7e35"><path d="M 335.539062 130.640625 C 340.230469 159.25 320.671875 184.378906 294.15625 188.734375 L 277.445312 188.695312 C 256.585938 185.257812 239.789062 168.464844 236.398438 147.605469 L 238.828125 147.226562 L 236.398438 147.605469 C 231.707031 118.996094 251.265625 93.867188 277.78125 89.511719 L 294.449219 89.550781 L 294.03125 91.980469 L 294.410156 89.550781 C 315.265625 92.988281 332.0625 109.78125 335.496094 130.640625 M 330.640625 131.4375 L 333.066406 131.058594 L 330.640625 131.4375 C 327.539062 112.671875 312.375 97.511719 293.613281 94.410156 L 278.535156 94.367188 C 254.617188 98.304688 236.941406 120.925781 241.214844 146.808594 C 244.273438 165.574219 259.433594 180.777344 278.199219 183.835938 L 277.78125 186.265625 L 278.199219 183.835938 L 293.320312 183.878906 C 317.277344 179.941406 334.910156 157.28125 330.640625 131.4375 Z M 330.640625 131.4375 " clip-rule="nonzero"/></clipPath><clipPath id="39bbf193f6"><path d="M 267 112.78125 L 301.789062 112.78125 L 301.789062 166 L 267 166 Z M 267 112.78125 " clip-rule="nonzero"/></clipPath><clipPath id="7e53d3d944"><path d="M 271.75 154.640625 C 275.644531 158.035156 281.589844 160.464844 285.570312 160.464844 L 285.570312 162.933594 L 285.570312 160.464844 C 292.0625 160.464844 296.710938 155.941406 296.710938 150.996094 L 299.183594 150.996094 L 296.710938 150.996094 C 296.710938 146.433594 292.230469 143.582031 284.859375 141.449219 L 284.816406 141.449219 C 277.78125 139.226562 269.488281 135.792969 269.488281 127.207031 L 271.957031 127.207031 L 269.488281 127.207031 C 269.488281 118.996094 276.984375 112.839844 285.570312 112.839844 L 285.570312 115.3125 L 285.570312 112.839844 C 291.394531 112.839844 296.628906 115.605469 299.433594 119.960938 L 299.851562 122.597656 L 296.042969 123.773438 L 295.289062 122.640625 C 293.445312 119.792969 289.84375 117.742188 285.527344 117.742188 C 279.035156 117.742188 274.386719 122.265625 274.386719 127.207031 C 274.386719 131.773438 278.617188 134.367188 286.28125 136.757812 L 285.527344 139.101562 L 286.199219 136.757812 C 293.027344 138.765625 301.570312 142.410156 301.570312 151.039062 C 301.570312 159.289062 294.03125 165.40625 285.488281 165.40625 C 280.042969 165.40625 273.003906 162.347656 268.441406 158.367188 L 267.308594 155.941406 L 270.660156 153.804688 Z M 271.75 154.640625 " clip-rule="nonzero"/></clipPath><clipPath id="cb2df8482c"><path d="M 283 106 L 288 106 L 288 171.972656 L 283 171.972656 Z M 283 106 " clip-rule="nonzero"/></clipPath><clipPath id="13a4c59155"><path d="M 288 108.820312 L 288 169.46875 C 288 170.808594 286.910156 171.941406 285.527344 171.941406 L 283.058594 170.851562 L 283.058594 108.820312 C 283.058594 107.480469 284.148438 106.347656 285.527344 106.347656 L 288 107.4375 Z M 288 108.820312 " clip-rule="nonzero"/></clipPath><clipPath id="1dc29f18f3"><path d="M 150.410156 84 L 260 84 L 260 193.324219 L 150.410156 193.324219 Z M 150.410156 84 " clip-rule="nonzero"/></clipPath><clipPath id="9019b2368d"><path d="M 238.03125 159.667969 L 252.1875 163.394531 L 251.558594 165.78125 L 249.425781 164.566406 C 251.8125 160.464844 253.570312 156.273438 254.785156 151.457031 L 257.171875 152.085938 L 255.957031 154.222656 L 243.226562 146.976562 C 242.34375 146.472656 241.84375 145.46875 242.011719 144.464844 L 241.96875 132.945312 C 241.800781 131.941406 242.261719 130.933594 243.140625 130.433594 L 255.832031 123.058594 L 257.089844 125.195312 L 254.703125 125.824219 C 253.488281 121.257812 251.644531 116.859375 249.257812 112.796875 L 251.351562 111.542969 L 251.980469 113.929688 L 237.820312 117.78125 C 236.859375 118.035156 235.8125 117.699219 235.183594 116.859375 L 226.972656 108.734375 C 226.136719 108.148438 225.757812 107.101562 226.050781 106.097656 L 229.78125 91.941406 L 232.167969 92.566406 L 230.953125 94.703125 C 226.722656 92.273438 222.535156 90.558594 217.886719 89.34375 L 218.511719 86.957031 L 220.648438 88.171875 L 213.402344 100.902344 C 212.902344 101.78125 211.894531 102.285156 210.890625 102.117188 L 199.328125 102.160156 C 198.324219 102.328125 197.320312 101.867188 196.816406 100.988281 L 189.445312 88.210938 L 191.582031 86.957031 L 192.210938 89.34375 C 187.851562 90.515625 183.371094 92.316406 179.183594 94.789062 L 177.925781 92.652344 L 180.3125 92.023438 L 184.167969 106.140625 C 184.417969 107.101562 184.082031 108.148438 183.246094 108.777344 L 175.078125 117.027344 C 174.492188 117.867188 173.445312 118.242188 172.441406 117.949219 L 158.28125 114.222656 L 158.910156 111.835938 L 161.046875 113.050781 C 158.785156 116.988281 156.902344 121.425781 155.6875 126.117188 L 153.296875 125.488281 L 154.511719 123.351562 L 167.246094 130.597656 C 168.125 131.101562 168.628906 132.105469 168.460938 133.113281 L 168.503906 144.671875 C 168.671875 145.679688 168.210938 146.683594 167.328125 147.1875 L 154.679688 154.558594 L 153.425781 152.421875 L 155.8125 151.792969 C 156.984375 156.191406 158.828125 160.671875 161.296875 164.820312 L 159.203125 166.074219 L 158.574219 163.6875 L 172.734375 159.835938 C 173.695312 159.582031 174.742188 159.917969 175.371094 160.757812 L 183.582031 168.882812 C 184.417969 169.46875 184.796875 170.515625 184.542969 171.519531 L 180.816406 185.679688 L 178.429688 185.050781 L 179.644531 182.914062 C 183.832031 185.34375 188.019531 187.058594 192.710938 188.273438 L 192.082031 190.664062 L 189.949219 189.449219 L 197.195312 176.714844 C 197.695312 175.835938 198.703125 175.332031 199.707031 175.5 L 211.265625 175.417969 C 212.273438 175.25 213.277344 175.710938 213.78125 176.589844 L 221.152344 189.238281 L 219.015625 190.496094 L 218.386719 188.105469 C 222.953125 186.894531 227.351562 185.050781 231.414062 182.621094 L 232.671875 184.714844 L 230.28125 185.34375 L 226.429688 171.226562 C 226.179688 170.265625 226.511719 169.21875 227.351562 168.589844 L 235.476562 160.378906 C 236.0625 159.542969 237.109375 159.164062 238.113281 159.457031 M 236.859375 164.191406 L 237.488281 161.804688 L 239.496094 163.226562 C 236.902344 166.828125 233.800781 169.929688 230.28125 172.527344 L 228.816406 170.558594 L 231.203125 169.929688 L 235.058594 184.042969 C 235.351562 185.089844 234.890625 186.222656 233.925781 186.808594 L 219.644531 192.796875 C 218.554688 193.089844 217.464844 192.632812 216.878906 191.667969 L 209.507812 179.019531 L 211.644531 177.761719 L 212.019531 180.191406 C 207.75 180.902344 203.351562 180.945312 198.953125 180.273438 L 199.328125 177.84375 L 201.464844 179.058594 L 194.21875 191.792969 C 193.675781 192.757812 192.542969 193.21875 191.457031 192.964844 L 177.132812 187.101562 C 176.167969 186.558594 175.707031 185.425781 176 184.335938 L 179.726562 170.179688 L 182.113281 170.808594 L 180.691406 172.820312 C 177.046875 170.222656 173.949219 167.082031 171.394531 163.605469 L 173.359375 162.140625 L 173.988281 164.527344 L 159.832031 168.378906 C 158.785156 168.671875 157.65625 168.210938 157.066406 167.25 L 151.078125 152.964844 C 150.785156 151.878906 151.246094 150.789062 152.210938 150.203125 L 164.859375 142.828125 L 166.113281 144.964844 L 163.6875 145.34375 C 162.972656 141.070312 162.933594 136.632812 163.644531 132.234375 L 166.074219 132.609375 L 164.859375 134.746094 L 152.125 127.5 C 151.164062 126.957031 150.703125 125.824219 150.953125 124.734375 L 156.816406 110.410156 C 157.359375 109.449219 158.492188 108.988281 159.582031 109.28125 L 173.738281 113.007812 L 173.109375 115.394531 L 171.097656 113.972656 C 173.695312 110.367188 176.835938 107.226562 180.355469 104.671875 L 181.820312 106.640625 L 179.433594 107.269531 L 175.582031 93.15625 C 175.289062 92.066406 175.75 90.933594 176.710938 90.390625 L 190.996094 84.402344 C 192.082031 84.105469 193.171875 84.566406 193.757812 85.53125 L 201.046875 98.433594 L 198.910156 99.6875 L 198.535156 97.257812 C 202.804688 96.589844 207.203125 96.503906 211.644531 97.21875 L 211.265625 99.648438 L 209.132812 98.433594 L 216.375 85.699219 C 216.921875 84.734375 218.050781 84.273438 219.140625 84.527344 L 233.464844 90.390625 C 234.429688 90.933594 234.890625 92.066406 234.597656 93.15625 L 230.867188 107.3125 L 228.480469 106.683594 L 229.90625 104.671875 C 233.507812 107.269531 236.605469 110.410156 239.203125 113.886719 L 237.234375 115.351562 L 236.605469 112.964844 L 250.765625 109.113281 C 251.8125 108.820312 252.941406 109.28125 253.527344 110.242188 L 259.519531 124.527344 C 259.8125 125.613281 259.351562 126.703125 258.386719 127.289062 L 245.695312 134.664062 L 244.441406 132.527344 L 246.867188 132.148438 C 247.582031 136.421875 247.621094 140.820312 246.910156 145.21875 L 244.480469 144.839844 L 245.695312 142.703125 L 258.429688 149.949219 C 259.394531 150.496094 259.851562 151.625 259.601562 152.714844 L 253.738281 167.039062 C 253.195312 168.003906 252.0625 168.464844 250.972656 168.171875 L 236.816406 164.441406 Z M 236.859375 164.191406 " clip-rule="nonzero"/></clipPath><clipPath id="3c84f28d84"><path d="M 153 86.578125 L 258 86.578125 L 258 191 L 153 191 Z M 153 86.578125 " clip-rule="nonzero"/></clipPath><clipPath id="6daf64da35"><path d="M 237.402344 162.054688 L 251.558594 165.78125 C 254.074219 161.46875 255.875 157.070312 257.171875 152.085938 L 244.441406 144.839844 C 245.066406 140.695312 245.027344 136.546875 244.398438 132.527344 L 257.089844 125.15625 C 255.832031 120.378906 253.90625 115.773438 251.351562 111.5 L 237.195312 115.351562 C 234.765625 112.085938 231.875 109.15625 228.441406 106.683594 L 232.167969 92.527344 C 227.769531 89.972656 223.371094 88.171875 218.472656 86.914062 L 211.265625 99.605469 C 207.121094 98.976562 202.972656 99.019531 198.910156 99.648438 L 191.582031 86.996094 C 187.015625 88.210938 182.324219 90.140625 177.925781 92.734375 L 181.78125 106.851562 C 178.472656 109.28125 175.539062 112.210938 173.066406 115.605469 L 158.910156 111.878906 C 156.523438 115.980469 154.554688 120.632812 153.296875 125.574219 L 166.03125 132.820312 C 165.402344 136.964844 165.445312 141.15625 166.074219 145.175781 L 153.425781 152.503906 C 154.640625 157.113281 156.566406 161.804688 159.164062 166.160156 L 173.320312 162.304688 C 175.75 165.613281 178.679688 168.546875 182.074219 170.976562 L 178.34375 185.132812 C 182.703125 187.6875 187.097656 189.488281 192.042969 190.746094 L 199.289062 178.011719 C 203.433594 178.640625 207.582031 178.597656 211.601562 177.929688 L 218.972656 190.578125 C 223.75 189.320312 228.355469 187.394531 232.628906 184.839844 L 228.773438 170.726562 C 232.082031 168.296875 235.015625 165.40625 237.445312 161.972656 " clip-rule="nonzero"/></clipPath><clipPath id="b880e1a887"><path d="M 150.410156 84 L 260 84 L 260 193.324219 L 150.410156 193.324219 Z M 150.410156 84 " clip-rule="nonzero"/></clipPath><clipPath id="a1883b2fc2"><path d="M 238.03125 159.667969 L 252.1875 163.394531 L 251.558594 165.78125 L 249.425781 164.566406 C 251.8125 160.464844 253.570312 156.273438 254.785156 151.457031 L 257.171875 152.085938 L 255.957031 154.222656 L 243.226562 146.976562 C 242.34375 146.472656 241.84375 145.46875 242.011719 144.464844 L 241.96875 132.945312 C 241.800781 131.941406 242.261719 130.933594 243.140625 130.433594 L 255.832031 123.058594 L 257.089844 125.195312 L 254.703125 125.824219 C 253.488281 121.257812 251.644531 116.859375 249.257812 112.796875 L 251.351562 111.542969 L 251.980469 113.929688 L 237.820312 117.78125 C 236.859375 118.035156 235.8125 117.699219 235.183594 116.859375 L 226.972656 108.734375 C 226.136719 108.148438 225.757812 107.101562 226.050781 106.097656 L 229.78125 91.941406 L 232.167969 92.566406 L 230.953125 94.703125 C 226.722656 92.273438 222.535156 90.558594 217.886719 89.34375 L 218.511719 86.957031 L 220.648438 88.171875 L 213.402344 100.902344 C 212.902344 101.78125 211.894531 102.285156 210.890625 102.117188 L 199.328125 102.160156 C 198.324219 102.328125 197.320312 101.867188 196.816406 100.988281 L 189.445312 88.210938 L 191.582031 86.957031 L 192.210938 89.34375 C 187.851562 90.515625 183.371094 92.316406 179.183594 94.789062 L 177.925781 92.652344 L 180.3125 92.023438 L 184.167969 106.140625 C 184.417969 107.101562 184.082031 108.148438 183.246094 108.777344 L 175.078125 117.027344 C 174.492188 117.867188 173.445312 118.242188 172.441406 117.949219 L 158.28125 114.222656 L 158.910156 111.835938 L 161.046875 113.050781 C 158.785156 116.988281 156.902344 121.425781 155.6875 126.117188 L 153.296875 125.488281 L 154.511719 123.351562 L 167.246094 130.597656 C 168.125 131.101562 168.628906 132.105469 168.460938 133.113281 L 168.503906 144.671875 C 168.671875 145.679688 168.210938 146.683594 167.328125 147.1875 L 154.679688 154.558594 L 153.425781 152.421875 L 155.8125 151.792969 C 156.984375 156.191406 158.828125 160.671875 161.296875 164.820312 L 159.203125 166.074219 L 158.574219 163.6875 L 172.734375 159.835938 C 173.695312 159.582031 174.742188 159.917969 175.371094 160.757812 L 183.582031 168.882812 C 184.417969 169.46875 184.796875 170.515625 184.542969 171.519531 L 180.816406 185.679688 L 178.429688 185.050781 L 179.644531 182.914062 C 183.832031 185.34375 188.019531 187.058594 192.710938 188.273438 L 192.082031 190.664062 L 189.949219 189.449219 L 197.195312 176.714844 C 197.695312 175.835938 198.703125 175.332031 199.707031 175.5 L 211.265625 175.417969 C 212.273438 175.25 213.277344 175.710938 213.78125 176.589844 L 221.152344 189.238281 L 219.015625 190.496094 L 218.386719 188.105469 C 222.953125 186.894531 227.351562 185.050781 231.414062 182.621094 L 232.671875 184.714844 L 230.28125 185.34375 L 226.429688 171.226562 C 226.179688 170.265625 226.511719 169.21875 227.351562 168.589844 L 235.476562 160.378906 C 236.0625 159.542969 237.109375 159.164062 238.113281 159.457031 M 236.859375 164.191406 L 237.488281 161.804688 L 239.496094 163.226562 C 236.902344 166.828125 233.800781 169.929688 230.28125 172.527344 L 228.816406 170.558594 L 231.203125 169.929688 L 235.058594 184.042969 C 235.351562 185.089844 234.890625 186.222656 233.925781 186.808594 L 219.644531 192.796875 C 218.554688 193.089844 217.464844 192.632812 216.878906 191.667969 L 209.507812 179.019531 L 211.644531 177.761719 L 212.019531 180.191406 C 207.75 180.902344 203.351562 180.945312 198.953125 180.273438 L 199.328125 177.84375 L 201.464844 179.058594 L 194.21875 191.792969 C 193.675781 192.757812 192.542969 193.21875 191.457031 192.964844 L 177.132812 187.101562 C 176.167969 186.558594 175.707031 185.425781 176 184.335938 L 179.726562 170.179688 L 182.113281 170.808594 L 180.691406 172.820312 C 177.046875 170.222656 173.949219 167.082031 171.394531 163.605469 L 173.359375 162.140625 L 173.988281 164.527344 L 159.832031 168.378906 C 158.785156 168.671875 157.65625 168.210938 157.066406 167.25 L 151.078125 152.964844 C 150.785156 151.878906 151.246094 150.789062 152.210938 150.203125 L 164.859375 142.828125 L 166.113281 144.964844 L 163.6875 145.34375 C 162.972656 141.070312 162.933594 136.632812 163.644531 132.234375 L 166.074219 132.609375 L 164.859375 134.746094 L 152.125 127.5 C 151.164062 126.957031 150.703125 125.824219 150.953125 124.734375 L 156.816406 110.410156 C 157.359375 109.449219 158.492188 108.988281 159.582031 109.28125 L 173.738281 113.007812 L 173.109375 115.394531 L 171.097656 113.972656 C 173.695312 110.367188 176.835938 107.226562 180.355469 104.671875 L 181.820312 106.640625 L 179.433594 107.269531 L 175.582031 93.15625 C 175.289062 92.066406 175.75 90.933594 176.710938 90.390625 L 190.996094 84.402344 C 192.082031 84.105469 193.171875 84.566406 193.757812 85.53125 L 201.046875 98.433594 L 198.910156 99.6875 L 198.535156 97.257812 C 202.804688 96.589844 207.203125 96.503906 211.644531 97.21875 L 211.265625 99.648438 L 209.132812 98.433594 L 216.375 85.699219 C 216.921875 84.734375 218.050781 84.273438 219.140625 84.527344 L 233.464844 90.390625 C 234.429688 90.933594 234.890625 92.066406 234.597656 93.15625 L 230.867188 107.3125 L 228.480469 106.683594 L 229.90625 104.671875 C 233.507812 107.269531 236.605469 110.410156 239.203125 113.886719 L 237.234375 115.351562 L 236.605469 112.964844 L 250.765625 109.113281 C 251.8125 108.820312 252.941406 109.28125 253.527344 110.242188 L 259.519531 124.527344 C 259.8125 125.613281 259.351562 126.703125 258.386719 127.289062 L 245.695312 134.664062 L 244.441406 132.527344 L 246.867188 132.148438 C 247.582031 136.421875 247.621094 140.820312 246.910156 145.21875 L 244.480469 144.839844 L 245.695312 142.703125 L 258.429688 149.949219 C 259.394531 150.496094 259.851562 151.625 259.601562 152.714844 L 253.738281 167.039062 C 253.195312 168.003906 252.0625 168.464844 250.972656 168.171875 L 236.816406 164.441406 Z M 236.859375 164.191406 " clip-rule="nonzero"/></clipPath><clipPath id="a57b150dd4"><path d="M 186.3125 216.613281 L 295.96875 216.613281 L 295.96875 263 L 186.3125 263 Z M 186.3125 216.613281 " clip-rule="nonzero"/></clipPath><clipPath id="e2a6495933"><path d="M 188.941406 217.46875 C 204.3125 216.210938 220.355469 216.128906 232.125 219.519531 L 231.457031 221.867188 L 232.125 219.519531 L 284.941406 234.851562 C 293.988281 237.488281 296.542969 245.742188 294.574219 252.402344 C 292.605469 259.058594 285.988281 264.796875 276.902344 262.160156 L 277.570312 259.8125 L 276.902344 262.160156 L 221.402344 246.074219 C 220.105469 245.699219 219.351562 244.316406 219.726562 243.019531 L 221.488281 240.964844 L 278.28125 257.425781 C 284.273438 259.1875 288.542969 255.667969 289.886719 251.019531 C 291.226562 246.367188 289.507812 241.257812 283.558594 239.542969 L 284.230469 237.195312 L 283.558594 239.542969 L 230.742188 224.210938 C 219.9375 221.070312 204.605469 221.070312 189.359375 222.328125 L 186.804688 221.449219 L 187.601562 217.550781 Z M 188.941406 217.46875 " clip-rule="nonzero"/></clipPath><clipPath id="ab5a29beef"><path d="M 187.285156 221.464844 L 353 221.464844 L 353 277.746094 L 187.285156 277.746094 Z M 187.285156 221.464844 " clip-rule="nonzero"/></clipPath><clipPath id="9763bf05d5"><path d="M 290.765625 241.550781 L 331.894531 222.996094 C 340.816406 218.976562 348.273438 223.582031 351.164062 229.992188 C 354.011719 236.316406 352.628906 244.902344 344.082031 248.714844 L 343.078125 246.496094 L 344.082031 248.714844 C 333.152344 253.613281 324.3125 257.679688 316.984375 261.070312 L 303.664062 267.1875 C 281.632812 277.113281 278.535156 277.28125 260.691406 277.28125 C 245.988281 277.28125 224.292969 274.976562 196.648438 262.746094 L 197.65625 260.484375 L 196.648438 262.746094 L 192.796875 261.699219 C 188.566406 261.867188 187.433594 260.820312 187.394531 259.4375 L 188.398438 256.925781 L 189.738281 256.882812 C 193.003906 256.757812 196.019531 257.089844 198.660156 258.222656 C 225.632812 270.117188 246.617188 272.335938 260.734375 272.335938 C 277.820312 272.335938 280.25 272.335938 301.65625 262.703125 L 315.015625 256.632812 C 322.34375 253.28125 331.226562 249.21875 342.15625 244.273438 C 347.726562 241.761719 348.734375 236.402344 346.765625 232.042969 C 344.796875 227.6875 340.0625 224.757812 333.988281 227.480469 L 332.984375 225.257812 L 333.988281 227.480469 L 292.859375 246.035156 C 291.601562 246.578125 290.179688 246.035156 289.589844 244.820312 L 289.589844 242.140625 Z M 290.765625 241.550781 " clip-rule="nonzero"/></clipPath><clipPath id="f3eae6e33b"><path d="M 186.3125 120 L 224 120 L 224 157.417969 L 186.3125 157.417969 Z M 186.3125 120 " clip-rule="nonzero"/></clipPath><clipPath id="83e527983a"><path d="M 223.621094 141.40625 C 221.949219 152.210938 212.148438 158.621094 202.429688 157.15625 L 194.21875 153.761719 C 188.773438 149.867188 185.84375 142.914062 186.847656 136.296875 L 189.277344 136.671875 L 186.847656 136.296875 C 188.480469 125.488281 198.28125 118.996094 207.957031 120.464844 L 216.292969 123.898438 L 214.867188 125.867188 L 216.292969 123.898438 C 221.738281 127.835938 224.628906 134.746094 223.582031 141.40625 L 221.152344 141.027344 L 223.582031 141.40625 M 218.722656 140.652344 C 219.476562 135.835938 217.339844 130.726562 213.402344 127.878906 L 209.296875 125.613281 L 207.203125 125.28125 C 200.082031 124.234375 192.878906 128.964844 191.664062 136.964844 C 190.953125 141.78125 193.089844 146.851562 197.027344 149.699219 L 195.601562 151.710938 L 197.027344 149.699219 L 201.046875 151.917969 L 203.097656 152.253906 C 210.21875 153.34375 217.464844 148.652344 218.679688 140.609375 Z M 218.722656 140.652344 " clip-rule="nonzero"/></clipPath></defs><g clip-path="url(#a2b32bf8f5)"><g clip-path="url(#cef50483f0)"><path fill="#ffffff" d="M 0 63.289062 L 374.570312 63.289062 L 374.570312 311.710938 L 0 311.710938 Z M 0 63.289062 " fill-opacity="1" fill-rule="nonzero"/></g></g><g clip-path="url(#3142cb2b29)"><g clip-path="url(#3ceb4ded8b)"><path fill="#cdc9be" d="M 0 63.289062 L 374.570312 63.289062 L 374.570312 311.710938 L 0 311.710938 Z M 0 63.289062 " fill-opacity="1" fill-rule="nonzero"/></g></g><g clip-path="url(#4c9f905344)"><g clip-path="url(#27edd587b6)"><path fill="#cdc9be" d="M 0 63.289062 L 374.570312 63.289062 L 374.570312 311.710938 L 0 311.710938 Z M 0 63.289062 " fill-opacity="1" fill-rule="nonzero"/></g></g><g clip-path="url(#d8db53408f)"><g clip-path="url(#c8f432d8b3)"><path fill="#cdc9be" d="M 0 63.289062 L 374.570312 63.289062 L 374.570312 311.710938 L 0 311.710938 Z M 0 63.289062 " fill-opacity="1" fill-rule="nonzero"/></g></g><g clip-path="url(#9aa45ea174)"><g clip-path="url(#ebbbb5c73b)"><path fill="#cdc9be" d="M 0 63.289062 L 374.570312 63.289062 L 374.570312 311.710938 L 0 311.710938 Z M 0 63.289062 " fill-opacity="1" fill-rule="nonzero"/></g></g><g clip-path="url(#fc91de7cc4)"><g clip-path="url(#700316db09)"><path fill="#cdc9be" d="M 0 63.289062 L 374.570312 63.289062 L 374.570312 311.710938 L 0 311.710938 Z M 0 63.289062 " fill-opacity="1" fill-rule="nonzero"/></g></g><g clip-path="url(#0e56b1c3aa)"><g clip-path="url(#a68373021d)"><path fill="#cdc9be" d="M 0 63.289062 L 374.570312 63.289062 L 374.570312 311.710938 L 0 311.710938 Z M 0 63.289062 " fill-opacity="1" fill-rule="nonzero"/></g></g><g clip-path="url(#ba8b78d87e)"><g clip-path="url(#059c2d7e35)"><path fill="#cdc9be" d="M 0 63.289062 L 374.570312 63.289062 L 374.570312 311.710938 L 0 311.710938 Z M 0 63.289062 " fill-opacity="1" fill-rule="nonzero"/><path fill="#cdc9be" d="M 0 63.289062 L 374.570312 63.289062 L 374.570312 311.710938 L 0 311.710938 Z M 0 63.289062 " fill-opacity="1" fill-rule="nonzero"/></g></g><g clip-path="url(#39bbf193f6)"><g clip-path="url(#7e53d3d944)"><path fill="#cdc9be" d="M 0 63.289062 L 374.570312 63.289062 L 374.570312 311.710938 L 0 311.710938 Z M 0 63.289062 " fill-opacity="1" fill-rule="nonzero"/></g></g><g clip-path="url(#cb2df8482c)"><g clip-path="url(#13a4c59155)"><path fill="#cdc9be" d="M 0 63.289062 L 374.570312 63.289062 L 374.570312 311.710938 L 0 311.710938 Z M 0 63.289062 " fill-opacity="1" fill-rule="nonzero"/></g></g><g clip-path="url(#1dc29f18f3)"><g clip-path="url(#9019b2368d)"><path fill="#cdc9be" d="M 0 63.289062 L 374.570312 63.289062 L 374.570312 311.710938 L 0 311.710938 Z M 0 63.289062 " fill-opacity="1" fill-rule="nonzero"/></g></g><g clip-path="url(#3c84f28d84)"><g clip-path="url(#6daf64da35)"><path fill="#ffffff" d="M 0 63.289062 L 374.570312 63.289062 L 374.570312 311.710938 L 0 311.710938 Z M 0 63.289062 " fill-opacity="1" fill-rule="nonzero"/></g></g><g clip-path="url(#b880e1a887)"><g clip-path="url(#a1883b2fc2)"><path fill="#cdc9be" d="M 0 63.289062 L 374.570312 63.289062 L 374.570312 311.710938 L 0 311.710938 Z M 0 63.289062 " fill-opacity="1" fill-rule="nonzero"/></g></g><g clip-path="url(#a57b150dd4)"><g clip-path="url(#e2a6495933)"><path fill="#cdc9be" d="M 0 63.289062 L 374.570312 63.289062 L 374.570312 311.710938 L 0 311.710938 Z M 0 63.289062 " fill-opacity="1" fill-rule="nonzero"/></g></g><g clip-path="url(#ab5a29beef)"><g clip-path="url(#9763bf05d5)"><path fill="#cdc9be" d="M 0 63.289062 L 374.570312 63.289062 L 374.570312 311.710938 L 0 311.710938 Z M 0 63.289062 " fill-opacity="1" fill-rule="nonzero"/></g></g><g clip-path="url(#f3eae6e33b)"><g clip-path="url(#83e527983a)"><path fill="#cdc9be" d="M 0 63.289062 L 374.570312 63.289062 L 374.570312 311.710938 L 0 311.710938 Z M 0 63.289062 " fill-opacity="1" fill-rule="nonzero"/></g></g></svg>