<svg xmlns="http://www.w3.org/2000/svg" xmlns:xlink="http://www.w3.org/1999/xlink" width="500" zoomAndPan="magnify" viewBox="0 0 375 374.999991" height="500" preserveAspectRatio="xMidYMid meet" version="1.0"><defs><clipPath id="6370646268"><path d="M 21 245 L 63.972656 245 L 63.972656 288 L 21 288 Z M 21 245 " clip-rule="nonzero"/></clipPath><clipPath id="fa2d2e15e1"><path d="M 40.988281 282.460938 C 49.84375 283.117188 57.550781 276.476562 58.207031 267.621094 C 58.863281 258.769531 52.179688 251.0625 43.328125 250.40625 C 34.472656 249.75 26.765625 256.390625 26.109375 265.246094 C 25.453125 274.097656 32.136719 281.804688 40.988281 282.460938 L 40.824219 284.839844 L 40.988281 282.460938 M 40.660156 287.214844 C 29.144531 286.394531 20.496094 276.394531 21.355469 264.875 L 23.734375 265.039062 L 21.355469 264.875 C 22.214844 253.359375 32.21875 244.75 43.734375 245.570312 L 43.570312 247.949219 L 43.734375 245.570312 C 55.253906 246.429688 63.902344 256.433594 63.042969 267.910156 L 60.664062 267.746094 L 63.042969 267.910156 C 62.183594 279.425781 52.179688 288.035156 40.660156 287.214844 Z M 40.660156 287.214844 " clip-rule="nonzero"/></clipPath><clipPath id="8cc8c3ed6a"><path d="M 222 193.210938 L 265 193.210938 L 265 236 L 222 236 Z M 222 193.210938 " clip-rule="nonzero"/></clipPath><clipPath id="d22f498645"><path d="M 242.457031 230.691406 C 251.308594 231.347656 259.015625 224.664062 259.671875 215.851562 L 262.046875 216.015625 L 259.671875 215.851562 C 260.328125 207 253.6875 199.292969 244.792969 198.636719 L 244.957031 196.257812 L 244.792969 198.636719 C 235.9375 197.980469 228.230469 204.660156 227.574219 213.476562 C 226.921875 222.328125 233.601562 230.035156 242.457031 230.691406 L 242.292969 233.066406 L 242.457031 230.691406 M 242.085938 235.488281 C 230.566406 234.625 221.917969 224.625 222.78125 213.148438 L 225.15625 213.3125 L 222.78125 213.148438 C 223.640625 201.628906 233.640625 193.019531 245.160156 193.839844 C 256.679688 194.703125 265.328125 204.703125 264.464844 216.222656 C 263.605469 227.699219 253.605469 236.347656 242.085938 235.527344 Z M 242.085938 235.488281 " clip-rule="nonzero"/></clipPath><clipPath id="f0bcd49bb5"><path d="M 53 195.496094 L 129 195.496094 L 129 257 L 53 257 Z M 53 195.496094 " clip-rule="nonzero"/></clipPath><clipPath id="49eeeef8b9"><path d="M 126.945312 199.867188 L 57.550781 256.351562 C 56.523438 257.171875 55.007812 257.046875 54.148438 256.023438 L 53.449219 253.480469 L 123.914062 196.136719 C 124.9375 195.316406 126.453125 195.4375 127.316406 196.464844 L 128.011719 199.003906 Z M 126.945312 199.867188 " clip-rule="nonzero"/></clipPath><clipPath id="0ba40abf49"><path d="M 167 187 L 229 187 L 229 211.488281 L 167 211.488281 Z M 167 187 " clip-rule="nonzero"/></clipPath><clipPath id="01d5cd5b18"><path d="M 170.230469 187.570312 L 226.878906 206.507812 C 228.148438 206.917969 228.804688 208.269531 228.394531 209.539062 L 226.632812 211.464844 L 168.714844 192.117188 C 167.445312 191.710938 166.789062 190.355469 167.199219 189.085938 L 168.960938 187.160156 Z M 170.230469 187.570312 " clip-rule="nonzero"/></clipPath><clipPath id="585bc5a522"><path d="M 185.0625 282.316406 L 215.90625 282.316406 L 215.90625 313 L 185.0625 313 Z M 185.0625 282.316406 " clip-rule="nonzero"/></clipPath><clipPath id="a5fd31d531"><path d="M 199.824219 307.832031 C 205.480469 308.242188 210.402344 303.980469 210.8125 298.363281 L 213.1875 298.527344 L 210.8125 298.363281 C 211.222656 292.707031 206.957031 287.789062 201.300781 287.378906 C 195.644531 286.96875 190.726562 291.191406 190.316406 296.847656 L 187.9375 296.683594 L 190.316406 296.847656 C 189.90625 302.503906 194.167969 307.421875 199.824219 307.832031 L 199.660156 310.210938 L 199.824219 307.832031 M 199.457031 312.628906 C 191.136719 312.015625 184.90625 304.800781 185.519531 296.480469 C 186.136719 288.199219 193.347656 281.96875 201.671875 282.582031 L 201.507812 284.960938 L 201.671875 282.582031 C 209.992188 283.199219 216.222656 290.414062 215.605469 298.691406 C 214.992188 307.015625 207.777344 313.246094 199.457031 312.628906 Z M 199.457031 312.628906 " clip-rule="nonzero"/></clipPath><clipPath id="d55e706213"><path d="M 175 100 L 206 100 L 206 130.382812 L 175 130.382812 Z M 175 100 " clip-rule="nonzero"/></clipPath><clipPath id="1dffcab185"><path d="M 190.070312 125.347656 C 195.726562 125.757812 200.644531 121.492188 201.054688 115.878906 C 201.464844 110.222656 197.242188 105.300781 191.585938 104.894531 L 191.75 102.515625 L 191.585938 104.894531 C 185.929688 104.484375 181.011719 108.703125 180.601562 114.359375 L 178.222656 114.199219 L 180.601562 114.359375 C 180.191406 119.976562 184.414062 124.9375 190.070312 125.347656 L 189.90625 127.722656 L 190.070312 125.347656 M 189.699219 130.140625 C 181.378906 129.527344 175.148438 122.3125 175.765625 114.035156 C 176.378906 105.710938 183.59375 99.480469 191.914062 100.097656 C 200.234375 100.710938 206.464844 107.925781 205.851562 116.246094 L 203.472656 116.082031 L 205.851562 116.246094 C 205.234375 124.527344 198.023438 130.757812 189.742188 130.140625 Z M 189.699219 130.140625 " clip-rule="nonzero"/></clipPath><clipPath id="bc93884261"><path d="M 31 104.105469 L 62 104.105469 L 62 134.949219 L 31 134.949219 Z M 31 104.105469 " clip-rule="nonzero"/></clipPath><clipPath id="5962fc4cec"><path d="M 46.074219 129.527344 C 51.730469 129.9375 56.648438 125.714844 57.058594 120.058594 L 59.433594 120.222656 L 57.058594 120.058594 C 57.46875 114.402344 53.203125 109.484375 47.546875 109.074219 C 41.890625 108.664062 36.972656 112.886719 36.5625 118.542969 L 34.1875 118.378906 L 36.5625 118.542969 C 36.152344 124.199219 40.375 129.117188 46.074219 129.527344 L 45.910156 131.90625 L 46.074219 129.527344 M 45.703125 134.324219 C 37.382812 133.707031 31.152344 126.496094 31.765625 118.214844 C 32.382812 109.933594 39.597656 103.703125 47.917969 104.320312 L 47.753906 106.695312 L 47.917969 104.320312 C 56.238281 104.933594 62.46875 112.148438 61.855469 120.429688 C 61.238281 128.75 54.023438 134.9375 45.703125 134.363281 Z M 45.703125 134.324219 " clip-rule="nonzero"/></clipPath><clipPath id="dda299044d"><path d="M 55 122.382812 L 69 122.382812 L 69 134 L 55 134 Z M 55 122.382812 " clip-rule="nonzero"/></clipPath><clipPath id="ad473feebf"><path d="M 59.105469 123.542969 L 67.796875 129.160156 C 68.902344 129.894531 69.230469 131.371094 68.535156 132.480469 L 66.320312 133.914062 L 56.523438 127.601562 C 55.417969 126.863281 55.089844 125.386719 55.789062 124.28125 L 58 122.847656 Z M 59.105469 123.542969 " clip-rule="nonzero"/></clipPath><clipPath id="cc53ef8e68"><path d="M 80 138.378906 L 109.667969 138.378906 L 109.667969 160 L 80 160 Z M 80 138.378906 " clip-rule="nonzero"/></clipPath><clipPath id="ad6eadfa74"><path d="M 83.949219 139.570312 L 108.132812 155.1875 C 109.238281 155.925781 109.566406 157.402344 108.828125 158.507812 L 106.613281 159.941406 L 81.324219 143.628906 C 80.21875 142.890625 79.890625 141.414062 80.628906 140.308594 L 82.839844 138.875 Z M 83.949219 139.570312 " clip-rule="nonzero"/></clipPath><clipPath id="dc3dc8d098"><path d="M 112 159 L 126 159 L 126 171 L 112 171 Z M 112 159 " clip-rule="nonzero"/></clipPath><clipPath id="217b351603"><path d="M 116.164062 160.394531 L 124.855469 166.007812 C 125.960938 166.746094 126.289062 168.222656 125.59375 169.328125 L 123.378906 170.761719 L 113.582031 164.449219 C 112.476562 163.714844 112.148438 162.238281 112.84375 161.128906 L 115.058594 159.695312 Z M 116.164062 160.394531 " clip-rule="nonzero"/></clipPath><clipPath id="a9fa701b47"><path d="M 188 274.320312 L 198 274.320312 L 198 289 L 188 289 Z M 188 274.320312 " clip-rule="nonzero"/></clipPath><clipPath id="8ae746d701"><path d="M 193.183594 287.132812 L 188.71875 277.828125 C 188.144531 276.640625 188.636719 275.207031 189.824219 274.632812 L 192.449219 274.550781 L 197.488281 285.085938 C 198.0625 286.273438 197.570312 287.707031 196.382812 288.28125 L 193.757812 288.363281 Z M 193.183594 287.132812 " clip-rule="nonzero"/></clipPath><clipPath id="f4dad5bc23"><path d="M 163 222 L 183.921875 222 L 183.921875 258.328125 L 163 258.328125 Z M 163 222 " clip-rule="nonzero"/></clipPath><clipPath id="ee60834073"><path d="M 178.632812 256.964844 L 163.589844 225.648438 C 163.015625 224.460938 163.507812 223.027344 164.699219 222.453125 L 167.320312 222.371094 L 182.980469 254.875 C 183.550781 256.0625 183.0625 257.496094 181.871094 258.070312 L 179.25 258.152344 Z M 178.632812 256.964844 " clip-rule="nonzero"/></clipPath><clipPath id="788ae165f8"><path d="M 153.078125 202.351562 L 163.359375 202.351562 L 163.359375 217 L 153.078125 217 Z M 153.078125 202.351562 " clip-rule="nonzero"/></clipPath><clipPath id="2b0fd4d60e"><path d="M 158.550781 215.195312 L 154.082031 205.890625 C 153.507812 204.703125 154 203.269531 155.1875 202.695312 L 157.8125 202.613281 L 162.851562 213.148438 C 163.425781 214.335938 162.933594 215.769531 161.746094 216.34375 L 159.121094 216.425781 Z M 158.550781 215.195312 " clip-rule="nonzero"/></clipPath><clipPath id="01d61f9e93"><path d="M 169.070312 123 L 187 123 L 187 145 L 169.070312 145 Z M 169.070312 123 " clip-rule="nonzero"/></clipPath><clipPath id="3bed300620"><path d="M 185.929688 127.109375 L 173.960938 143.957031 C 173.183594 145.023438 171.707031 145.308594 170.601562 144.53125 L 169.246094 142.277344 L 181.996094 124.320312 C 182.773438 123.257812 184.25 122.96875 185.355469 123.746094 L 186.707031 126.003906 Z M 185.929688 127.109375 " clip-rule="nonzero"/></clipPath><clipPath id="f74ea7190d"><path d="M 156.503906 140.664062 L 174.78125 140.664062 L 174.78125 163 L 156.503906 163 Z M 156.503906 140.664062 " clip-rule="nonzero"/></clipPath><clipPath id="76b224745e"><path d="M 173.46875 144.652344 L 161.5 161.5 C 160.722656 162.566406 159.246094 162.851562 158.140625 162.074219 L 156.785156 159.820312 L 169.535156 141.867188 C 170.3125 140.800781 171.789062 140.511719 172.894531 141.292969 L 174.246094 143.546875 Z M 173.46875 144.652344 " clip-rule="nonzero"/></clipPath><clipPath id="8efb2cada0"><path d="M 117 153.226562 L 173.640625 153.226562 L 173.640625 210 L 117 210 Z M 117 153.226562 " clip-rule="nonzero"/></clipPath><clipPath id="ef60ea4f10"><path d="M 143.503906 204.867188 C 156.292969 205.808594 167.402344 196.21875 168.34375 183.429688 C 169.289062 170.640625 159.695312 159.53125 146.90625 158.589844 L 147.070312 156.210938 L 146.90625 158.589844 C 134.117188 157.648438 123.011719 167.238281 122.066406 180.027344 L 119.691406 179.863281 L 122.066406 180.027344 C 121.125 192.816406 130.757812 203.925781 143.546875 204.867188 L 143.382812 207.246094 L 143.546875 204.867188 M 143.175781 209.664062 C 127.722656 208.515625 116.125 195.113281 117.273438 179.699219 C 118.417969 164.285156 131.824219 152.6875 147.277344 153.835938 C 162.730469 154.980469 174.289062 168.386719 173.183594 183.796875 L 170.804688 183.632812 L 173.183594 183.796875 C 172.035156 199.210938 158.628906 210.808594 143.175781 209.664062 Z M 143.175781 209.664062 " clip-rule="nonzero"/></clipPath><clipPath id="23a67e2fe6"><path d="M 188 130 L 244.46875 130 L 244.46875 179 L 188 179 Z M 188 130 " clip-rule="nonzero"/></clipPath><clipPath id="ed27814c56"><path d="M 221.917969 134.445312 C 221.835938 134.488281 193.964844 170.476562 193.59375 170.925781 L 193.554688 171.007812 L 193.019531 172.9375 L 193.429688 173.304688 L 194.167969 173.753906 L 195.195312 173.507812 C 195.316406 173.46875 238.644531 164.203125 240.898438 163.507812 L 240.734375 163.550781 L 243.027344 163.386719 L 244.09375 167.117188 L 242.988281 167.8125 L 242.25 168.140625 L 242.292969 168.140625 C 239.789062 168.917969 196.054688 178.265625 196.175781 178.265625 L 195.6875 175.929688 L 196.300781 178.265625 L 191.875 178.386719 L 190.316406 177.074219 C 187.691406 174.863281 187.40625 170.886719 189.824219 168.015625 L 191.667969 169.574219 L 189.78125 168.097656 C 189.457031 168.550781 218.3125 131.167969 219.335938 130.511719 L 221.960938 130.140625 L 223.027344 133.871094 Z M 221.917969 134.445312 " clip-rule="nonzero"/></clipPath><clipPath id="9e1d88d527"><path d="M 197 157 L 210.195312 157 L 210.195312 176 L 197 176 Z M 197 157 " clip-rule="nonzero"/></clipPath><clipPath id="6f579b81fa"><path d="M 201.464844 158.464844 L 209.703125 171.460938 C 210.402344 172.566406 210.074219 174.082031 208.964844 174.78125 L 206.34375 175.148438 L 197.40625 161.007812 C 196.710938 159.902344 197.039062 158.382812 198.144531 157.6875 L 200.769531 157.320312 Z M 201.464844 158.464844 " clip-rule="nonzero"/></clipPath><clipPath id="843525dca7"><path d="M 218.191406 64.125 L 351.847656 64.125 L 351.847656 169 L 218.191406 169 Z M 218.191406 64.125 " clip-rule="nonzero"/></clipPath><clipPath id="a7dc723bdb"><path d="M 344.972656 82.675781 L 340.257812 75.175781 C 336.320312 68.984375 328.164062 67.222656 321.933594 71.199219 L 221.960938 134.445312 L 220.691406 132.398438 L 222.738281 131.125 L 243.808594 164.449219 L 241.757812 165.722656 L 240.488281 163.671875 L 340.421875 100.425781 C 346.816406 96.40625 348.863281 88.742188 345.011719 82.636719 L 347.0625 81.363281 L 345.011719 82.636719 M 349.070312 80.054688 C 354.519531 88.660156 351.324219 99.195312 343.003906 104.484375 L 341.734375 102.433594 L 343.003906 104.484375 L 243.027344 167.769531 C 242.496094 168.097656 241.839844 168.222656 241.226562 168.097656 L 240.078125 167.566406 L 218.640625 133.707031 C 217.941406 132.601562 218.269531 131.085938 219.378906 130.386719 L 319.351562 67.101562 L 320.621094 69.148438 L 319.351562 67.101562 C 327.753906 61.769531 338.90625 64.066406 344.316406 72.59375 L 342.265625 73.863281 L 344.316406 72.59375 L 349.070312 80.09375 Z M 349.070312 80.054688 " clip-rule="nonzero"/></clipPath></defs><g clip-path="url(#6370646268)"><g clip-path="url(#fa2d2e15e1)"><path fill="#cdc9be" d="M 0 41.277344 L 374.695312 41.277344 L 374.695312 333.722656 L 0 333.722656 Z M 0 41.277344 " fill-opacity="1" fill-rule="nonzero"/></g></g><g clip-path="url(#8cc8c3ed6a)"><g clip-path="url(#d22f498645)"><path fill="#cdc9be" d="M 0 41.277344 L 374.695312 41.277344 L 374.695312 333.722656 L 0 333.722656 Z M 0 41.277344 " fill-opacity="1" fill-rule="nonzero"/></g></g><g clip-path="url(#f0bcd49bb5)"><g clip-path="url(#49eeeef8b9)"><path fill="#cdc9be" d="M 0 41.277344 L 374.695312 41.277344 L 374.695312 333.722656 L 0 333.722656 Z M 0 41.277344 " fill-opacity="1" fill-rule="nonzero"/></g></g><g clip-path="url(#0ba40abf49)"><g clip-path="url(#01d5cd5b18)"><path fill="#cdc9be" d="M 0 41.277344 L 374.695312 41.277344 L 374.695312 333.722656 L 0 333.722656 Z M 0 41.277344 " fill-opacity="1" fill-rule="nonzero"/></g></g><g clip-path="url(#585bc5a522)"><g clip-path="url(#a5fd31d531)"><path fill="#cdc9be" d="M 0 41.277344 L 374.695312 41.277344 L 374.695312 333.722656 L 0 333.722656 Z M 0 41.277344 " fill-opacity="1" fill-rule="nonzero"/></g></g><g clip-path="url(#d55e706213)"><g clip-path="url(#1dffcab185)"><path fill="#cdc9be" d="M 0 41.277344 L 374.695312 41.277344 L 374.695312 333.722656 L 0 333.722656 Z M 0 41.277344 " fill-opacity="1" fill-rule="nonzero"/></g></g><g clip-path="url(#bc93884261)"><g clip-path="url(#5962fc4cec)"><path fill="#cdc9be" d="M 0 41.277344 L 374.695312 41.277344 L 374.695312 333.722656 L 0 333.722656 Z M 0 41.277344 " fill-opacity="1" fill-rule="nonzero"/></g></g><g clip-path="url(#dda299044d)"><g clip-path="url(#ad473feebf)"><path fill="#cdc9be" d="M 0 41.277344 L 374.695312 41.277344 L 374.695312 333.722656 L 0 333.722656 Z M 0 41.277344 " fill-opacity="1" fill-rule="nonzero"/></g></g><g clip-path="url(#cc53ef8e68)"><g clip-path="url(#ad6eadfa74)"><path fill="#cdc9be" d="M 0 41.277344 L 374.695312 41.277344 L 374.695312 333.722656 L 0 333.722656 Z M 0 41.277344 " fill-opacity="1" fill-rule="nonzero"/></g></g><g clip-path="url(#dc3dc8d098)"><g clip-path="url(#217b351603)"><path fill="#cdc9be" d="M 0 41.277344 L 374.695312 41.277344 L 374.695312 333.722656 L 0 333.722656 Z M 0 41.277344 " fill-opacity="1" fill-rule="nonzero"/></g></g><g clip-path="url(#a9fa701b47)"><g clip-path="url(#8ae746d701)"><path fill="#cdc9be" d="M 0 41.277344 L 374.695312 41.277344 L 374.695312 333.722656 L 0 333.722656 Z M 0 41.277344 " fill-opacity="1" fill-rule="nonzero"/></g></g><g clip-path="url(#f4dad5bc23)"><g clip-path="url(#ee60834073)"><path fill="#cdc9be" d="M 0 41.277344 L 374.695312 41.277344 L 374.695312 333.722656 L 0 333.722656 Z M 0 41.277344 " fill-opacity="1" fill-rule="nonzero"/></g></g><g clip-path="url(#788ae165f8)"><g clip-path="url(#2b0fd4d60e)"><path fill="#cdc9be" d="M 0 41.277344 L 374.695312 41.277344 L 374.695312 333.722656 L 0 333.722656 Z M 0 41.277344 " fill-opacity="1" fill-rule="nonzero"/></g></g><g clip-path="url(#01d61f9e93)"><g clip-path="url(#3bed300620)"><path fill="#cdc9be" d="M 0 41.277344 L 374.695312 41.277344 L 374.695312 333.722656 L 0 333.722656 Z M 0 41.277344 " fill-opacity="1" fill-rule="nonzero"/></g></g><g clip-path="url(#f74ea7190d)"><g clip-path="url(#76b224745e)"><path fill="#cdc9be" d="M 0 41.277344 L 374.695312 41.277344 L 374.695312 333.722656 L 0 333.722656 Z M 0 41.277344 " fill-opacity="1" fill-rule="nonzero"/></g></g><g clip-path="url(#8efb2cada0)"><g clip-path="url(#ef60ea4f10)"><path fill="#cdc9be" d="M 0 41.277344 L 374.695312 41.277344 L 374.695312 333.722656 L 0 333.722656 Z M 0 41.277344 " fill-opacity="1" fill-rule="nonzero"/></g></g><g clip-path="url(#23a67e2fe6)"><g clip-path="url(#ed27814c56)"><path fill="#cdc9be" d="M 0 41.277344 L 374.695312 41.277344 L 374.695312 333.722656 L 0 333.722656 Z M 0 41.277344 " fill-opacity="1" fill-rule="nonzero"/></g></g><g clip-path="url(#9e1d88d527)"><g clip-path="url(#6f579b81fa)"><path fill="#cdc9be" d="M 0 41.277344 L 374.695312 41.277344 L 374.695312 333.722656 L 0 333.722656 Z M 0 41.277344 " fill-opacity="1" fill-rule="nonzero"/></g></g><g clip-path="url(#843525dca7)"><g clip-path="url(#a7dc723bdb)"><path fill="#cdc9be" d="M 0 41.277344 L 374.695312 41.277344 L 374.695312 333.722656 L 0 333.722656 Z M 0 41.277344 " fill-opacity="1" fill-rule="nonzero"/></g></g></svg>