<svg xmlns="http://www.w3.org/2000/svg" xmlns:xlink="http://www.w3.org/1999/xlink" width="600" zoomAndPan="magnify" viewBox="0 0 450 149.999998" height="200" preserveAspectRatio="xMidYMid meet" version="1.0"><defs><g/><clipPath id="05d3059e06"><path d="M 3 52 L 69 52 L 69 118 L 3 118 Z M 3 52 " clip-rule="nonzero"/></clipPath><clipPath id="37ea710495"><path d="M 16.167969 76.878906 C 17.277344 74.300781 18.832031 72.011719 20.796875 70.03125 C 22.703125 68.089844 24.980469 66.535156 27.542969 65.441406 C 29.882812 64.46875 32.507812 63.921875 35.34375 63.785156 L 35.570312 63.773438 L 35.84375 63.75 L 36.09375 63.761719 L 36.402344 63.785156 C 38.628906 63.886719 40.621094 64.222656 42.402344 64.757812 L 43.671875 65.191406 C 46.792969 66.523438 49.097656 68.078125 51.050781 70.046875 C 55.058594 74.050781 57.085938 78.957031 57.285156 85.003906 L 57.285156 85.3125 C 57.171875 89.074219 56.300781 92.46875 54.734375 95.40625 C 53.75 97.199219 52.519531 98.828125 51.0625 100.257812 C 49.109375 102.214844 46.804688 103.769531 44.242188 104.890625 C 41.691406 105.996094 38.890625 106.554688 35.929688 106.554688 C 32.96875 106.554688 30.179688 105.996094 27.628906 104.890625 C 25.054688 103.78125 22.765625 102.226562 20.785156 100.246094 C 18.832031 98.332031 17.277344 96.054688 16.167969 93.464844 C 15.074219 90.902344 14.515625 88.101562 14.5 85.152344 C 14.488281 82.203125 15.0625 79.414062 16.167969 76.878906 M 68.582031 85.113281 C 68.582031 80.648438 67.726562 76.378906 66.019531 72.445312 C 64.613281 69.1875 62.746094 66.226562 60.445312 63.597656 C 62.535156 63.238281 64.339844 62.304688 65.820312 60.8125 C 67.625 58.984375 68.535156 56.730469 68.535156 54.117188 L 68.535156 53.992188 L 67.875 52.511719 L 35.457031 52.523438 C 31.113281 52.574219 26.984375 53.433594 23.1875 55.074219 L 22.964844 55.175781 L 22.691406 55.300781 C 19.054688 56.878906 15.746094 59.15625 12.796875 62.09375 L 12.785156 62.105469 L 10.792969 64.308594 L 10.570312 64.59375 L 8.953125 66.761719 L 8.726562 67.097656 L 7.257812 69.511719 L 7.160156 69.683594 L 5.816406 72.445312 C 5.542969 73.070312 5.292969 73.742188 5.007812 74.5625 C 3.847656 77.910156 3.253906 81.457031 3.253906 85.175781 C 3.253906 89.644531 4.109375 93.914062 5.816406 97.84375 L 7.121094 100.546875 L 7.320312 100.90625 L 8.554688 102.933594 C 8.789062 103.296875 9.039062 103.65625 9.300781 104.019531 L 9.824219 104.738281 C 11.054688 106.34375 11.914062 107.339844 12.796875 108.234375 C 15.769531 111.210938 19.28125 113.574219 23.1875 115.265625 C 27.121094 116.972656 31.402344 117.832031 35.917969 117.832031 C 40.386719 117.832031 44.652344 116.972656 48.585938 115.265625 C 52.019531 113.785156 55.117188 111.796875 57.84375 109.320312 C 58.328125 110.738281 59.125 111.996094 60.222656 113.078125 C 62.050781 114.882812 64.304688 115.800781 66.917969 115.800781 L 67.039062 115.800781 L 68.519531 115.144531 L 68.519531 87.105469 C 68.558594 86.445312 68.582031 85.785156 68.582031 85.113281 " clip-rule="nonzero"/></clipPath><clipPath id="685064c5fd"><path d="M 206 52 L 272.789062 52 L 272.789062 118 L 206 118 Z M 206 52 " clip-rule="nonzero"/></clipPath><clipPath id="4518fbe261"><path d="M 260.957031 85.300781 C 260.84375 89.058594 259.972656 92.457031 258.40625 95.394531 C 257.421875 97.1875 256.191406 98.816406 254.734375 100.246094 C 252.78125 102.199219 250.480469 103.757812 247.914062 104.875 C 245.363281 105.984375 242.566406 106.542969 239.601562 106.542969 C 236.640625 106.542969 233.855469 105.984375 231.300781 104.875 C 228.726562 103.769531 226.4375 102.214844 224.472656 100.246094 C 222.515625 98.332031 220.960938 96.054688 219.855469 93.464844 C 218.757812 90.902344 218.199219 88.101562 218.1875 85.152344 C 218.175781 82.203125 218.746094 79.429688 219.839844 76.878906 C 220.949219 74.300781 222.503906 72.011719 224.472656 70.046875 C 226.375 68.089844 228.652344 66.546875 231.214844 65.453125 C 233.554688 64.484375 236.191406 63.933594 239.019531 63.796875 L 239.242188 63.785156 L 239.515625 63.761719 L 239.777344 63.773438 L 240.089844 63.796875 C 242.316406 63.898438 244.308594 64.234375 246.085938 64.769531 L 247.355469 65.203125 C 250.480469 66.535156 252.78125 68.089844 254.734375 70.058594 C 258.742188 74.066406 260.769531 78.96875 260.96875 85.015625 Z M 272.257812 85.113281 C 272.257812 80.648438 271.398438 76.378906 269.691406 72.445312 C 268.285156 69.1875 266.417969 66.226562 264.117188 63.597656 C 266.207031 63.238281 268.023438 62.304688 269.507812 60.8125 C 271.308594 58.984375 272.21875 56.730469 272.21875 54.117188 L 272.21875 53.992188 L 271.558594 52.511719 L 239.140625 52.523438 C 234.800781 52.574219 230.667969 53.445312 226.871094 55.074219 L 226.648438 55.175781 L 226.375 55.300781 C 222.742188 56.878906 219.429688 59.144531 216.554688 62.03125 L 216.542969 62.054688 L 216.480469 62.105469 L 214.476562 64.308594 L 214.242188 64.59375 L 212.625 66.761719 L 212.398438 67.097656 L 210.882812 69.597656 L 210.832031 69.683594 L 209.488281 72.445312 C 209.214844 73.082031 208.953125 73.753906 208.679688 74.5625 C 207.523438 77.910156 206.925781 81.457031 206.925781 85.175781 C 206.925781 89.644531 207.785156 93.914062 209.488281 97.84375 L 210.792969 100.546875 L 210.992188 100.90625 L 212.226562 102.933594 C 212.460938 103.296875 212.710938 103.65625 212.972656 104.019531 L 213.496094 104.738281 C 214.726562 106.34375 215.585938 107.339844 216.46875 108.25 C 219.445312 111.222656 222.941406 113.585938 226.859375 115.28125 C 230.792969 116.984375 235.085938 117.84375 239.589844 117.84375 C 244.058594 117.84375 248.3125 116.984375 252.257812 115.28125 C 255.691406 113.796875 258.792969 111.808594 261.503906 109.332031 C 261.988281 110.75 262.785156 112.007812 263.894531 113.101562 C 265.722656 114.90625 267.976562 115.816406 270.589844 115.816406 L 270.714844 115.816406 L 272.195312 115.15625 L 272.195312 87.117188 C 272.230469 86.460938 272.257812 85.800781 272.257812 85.128906 " clip-rule="nonzero"/></clipPath><clipPath id="fb7f5d579d"><path d="M 82 33 L 93.929688 33 L 93.929688 115.988281 L 82 115.988281 Z M 82 33 " clip-rule="nonzero"/></clipPath><clipPath id="5ef8ac0995"><path d="M 90.710938 36.085938 C 88.84375 34.195312 86.503906 33.234375 83.765625 33.234375 L 82.285156 33.894531 L 82.285156 106.121094 C 82.285156 108.785156 83.230469 111.074219 85.097656 112.941406 C 86.964844 114.808594 89.253906 115.753906 91.917969 115.753906 L 92.039062 115.753906 L 93.523438 115.082031 L 93.523438 42.878906 C 93.523438 40.265625 92.574219 37.976562 90.710938 36.097656 " clip-rule="nonzero"/></clipPath><clipPath id="edde7dde81"><path d="M 107 52 L 198 52 L 198 115.988281 L 107 115.988281 Z M 107 52 " clip-rule="nonzero"/></clipPath><clipPath id="a5b598c73e"><path d="M 195.847656 68.167969 C 194.53125 65.105469 192.6875 62.378906 190.386719 60.027344 C 188.085938 57.726562 185.359375 55.882812 182.308594 54.566406 C 179.238281 53.246094 175.914062 52.574219 172.441406 52.574219 C 168.96875 52.574219 165.648438 53.246094 162.574219 54.566406 C 159.523438 55.882812 156.789062 57.714844 154.421875 60.050781 L 152.617188 62.117188 C 149.992188 58.90625 146.746094 56.445312 142.949219 54.789062 C 139.675781 53.320312 136.203125 52.574219 132.644531 52.574219 C 131.425781 52.574219 129.375 52.773438 126.375 53.183594 C 123.550781 53.570312 120.425781 55.222656 116.878906 58.210938 C 115.558594 55.636719 113.417969 53.28125 109.101562 52.535156 L 108.230469 52.585938 L 107.371094 53.570312 L 107.371094 114.382812 C 107.371094 115.203125 108.03125 115.863281 108.851562 115.863281 L 108.976562 115.863281 C 111.640625 115.863281 113.929688 114.917969 115.796875 113.050781 C 117.664062 111.183594 118.609375 108.894531 118.609375 106.234375 L 118.609375 78.035156 C 118.609375 74.089844 119.976562 70.816406 122.800781 68.03125 C 125.105469 65.800781 127.65625 64.457031 130.417969 64.023438 L 131.988281 63.8125 C 134.625 63.8125 136.664062 64.285156 138.855469 65.203125 C 140.972656 66.101562 142.886719 67.707031 144.542969 69.984375 C 146.171875 72.210938 146.992188 74.910156 146.992188 78.035156 L 146.992188 106.234375 C 146.992188 108.894531 147.953125 111.199219 149.84375 113.066406 C 151.734375 114.929688 154.011719 115.875 156.625 115.875 L 156.75 115.875 L 158.230469 115.21875 L 158.230469 78.035156 C 158.230469 74.089844 159.601562 70.816406 162.4375 68.003906 C 165.222656 65.179688 168.496094 63.8125 172.441406 63.8125 C 176.347656 63.8125 179.636719 65.191406 182.460938 68.015625 C 185.246094 70.804688 186.601562 74.089844 186.601562 78.035156 L 186.601562 106.234375 C 186.601562 108.894531 187.5625 111.199219 189.453125 113.066406 C 191.34375 114.929688 193.621094 115.875 196.234375 115.875 L 196.359375 115.875 L 197.851562 115.21875 L 197.851562 78.035156 C 197.851562 74.550781 197.179688 71.226562 195.863281 68.167969 " clip-rule="nonzero"/></clipPath><clipPath id="90ec0004ea"><path d="M 280.242188 44 L 300 44 L 300 63.820312 L 280.242188 63.820312 Z M 280.242188 44 " clip-rule="nonzero"/></clipPath><clipPath id="04374fa32a"><path d="M 289.953125 44.96875 C 284.949219 44.96875 280.890625 49.039062 280.890625 54.03125 C 280.890625 59.019531 284.960938 63.089844 289.953125 63.089844 C 294.941406 63.089844 299.011719 59.019531 299.011719 54.03125 C 299.011719 49.039062 294.953125 44.96875 289.953125 44.96875 " clip-rule="nonzero"/></clipPath></defs><rect x="-45" width="540" fill="#ffffff" y="-15" height="179.999997" fill-opacity="1"/><g clip-path="url(#05d3059e06)"><g clip-path="url(#37ea710495)"><rect x="-45" width="540" fill="#131e29" y="-15" height="179.999997" fill-opacity="1"/></g></g><g clip-path="url(#685064c5fd)"><g clip-path="url(#4518fbe261)"><rect x="-45" width="540" fill="#131e29" y="-15" height="179.999997" fill-opacity="1"/></g></g><g clip-path="url(#fb7f5d579d)"><g clip-path="url(#5ef8ac0995)"><rect x="-45" width="540" fill="#131e29" y="-15" height="179.999997" fill-opacity="1"/></g></g><g clip-path="url(#edde7dde81)"><g clip-path="url(#a5b598c73e)"><rect x="-45" width="540" fill="#131e29" y="-15" height="179.999997" fill-opacity="1"/></g></g><g clip-path="url(#90ec0004ea)"><g clip-path="url(#04374fa32a)"><rect x="-45" width="540" fill="#e92076" y="-15" height="179.999997" fill-opacity="1"/></g></g><g fill="#131e29" fill-opacity="1"><g transform="translate(281.514069, 92.086197)"><g><path d="M 10.109375 -0.8125 C 9.742188 -0.5 9.289062 -0.257812 8.75 -0.09375 C 8.21875 0.0703125 7.664062 0.15625 7.09375 0.15625 C 5.707031 0.15625 4.632812 -0.210938 3.875 -0.953125 C 3.113281 -1.703125 2.734375 -2.769531 2.734375 -4.15625 L 2.734375 -11.71875 L 0.390625 -11.71875 L 0.390625 -13.78125 L 2.734375 -13.78125 L 2.734375 -16.796875 L 5.21875 -16.796875 L 5.21875 -13.78125 L 9.171875 -13.78125 L 9.171875 -11.71875 L 5.21875 -11.71875 L 5.21875 -4.265625 C 5.21875 -3.515625 5.40625 -2.941406 5.78125 -2.546875 C 6.15625 -2.148438 6.691406 -1.953125 7.390625 -1.953125 C 8.148438 -1.953125 8.796875 -2.164062 9.328125 -2.59375 Z M 10.109375 -0.8125 "/></g></g></g><g fill="#131e29" fill-opacity="1"><g transform="translate(292.274845, 92.086197)"><g><path d="M 4.765625 -11.46875 C 5.191406 -12.257812 5.828125 -12.863281 6.671875 -13.28125 C 7.523438 -13.695312 8.5625 -13.90625 9.78125 -13.90625 L 9.78125 -11.484375 C 9.632812 -11.503906 9.441406 -11.515625 9.203125 -11.515625 C 7.847656 -11.515625 6.785156 -11.109375 6.015625 -10.296875 C 5.242188 -9.492188 4.859375 -8.347656 4.859375 -6.859375 L 4.859375 0 L 2.359375 0 L 2.359375 -13.78125 L 4.765625 -13.78125 Z M 4.765625 -11.46875 "/></g></g></g><g fill="#131e29" fill-opacity="1"><g transform="translate(302.931651, 92.086197)"><g><path d="M 7.390625 -13.90625 C 9.296875 -13.90625 10.753906 -13.4375 11.765625 -12.5 C 12.773438 -11.570312 13.28125 -10.175781 13.28125 -8.3125 L 13.28125 0 L 10.921875 0 L 10.921875 -1.8125 C 10.503906 -1.175781 9.910156 -0.6875 9.140625 -0.34375 C 8.367188 -0.0078125 7.453125 0.15625 6.390625 0.15625 C 4.847656 0.15625 3.613281 -0.210938 2.6875 -0.953125 C 1.757812 -1.703125 1.296875 -2.6875 1.296875 -3.90625 C 1.296875 -5.113281 1.738281 -6.085938 2.625 -6.828125 C 3.507812 -7.566406 4.914062 -7.9375 6.84375 -7.9375 L 10.796875 -7.9375 L 10.796875 -8.421875 C 10.796875 -9.492188 10.484375 -10.316406 9.859375 -10.890625 C 9.234375 -11.460938 8.3125 -11.75 7.09375 -11.75 C 6.28125 -11.75 5.484375 -11.613281 4.703125 -11.34375 C 3.921875 -11.082031 3.265625 -10.722656 2.734375 -10.265625 L 1.6875 -12.140625 C 2.394531 -12.710938 3.242188 -13.148438 4.234375 -13.453125 C 5.222656 -13.753906 6.273438 -13.90625 7.390625 -13.90625 Z M 6.8125 -1.765625 C 7.757812 -1.765625 8.582031 -1.976562 9.28125 -2.40625 C 9.976562 -2.832031 10.484375 -3.4375 10.796875 -4.21875 L 10.796875 -6.140625 L 6.9375 -6.140625 C 4.820312 -6.140625 3.765625 -5.425781 3.765625 -4 C 3.765625 -3.3125 4.03125 -2.765625 4.5625 -2.359375 C 5.101562 -1.960938 5.851562 -1.765625 6.8125 -1.765625 Z M 6.8125 -1.765625 "/></g></g></g><g fill="#131e29" fill-opacity="1"><g transform="translate(318.474993, 92.086197)"><g><path d="M 15.359375 -19.296875 L 15.359375 0 L 12.96875 0 L 12.96875 -2.1875 C 12.414062 -1.425781 11.710938 -0.84375 10.859375 -0.4375 C 10.015625 -0.0390625 9.082031 0.15625 8.0625 0.15625 C 6.726562 0.15625 5.53125 -0.132812 4.46875 -0.71875 C 3.414062 -1.3125 2.585938 -2.140625 1.984375 -3.203125 C 1.390625 -4.273438 1.09375 -5.503906 1.09375 -6.890625 C 1.09375 -8.273438 1.390625 -9.492188 1.984375 -10.546875 C 2.585938 -11.609375 3.414062 -12.429688 4.46875 -13.015625 C 5.53125 -13.609375 6.726562 -13.90625 8.0625 -13.90625 C 9.050781 -13.90625 9.957031 -13.71875 10.78125 -13.34375 C 11.613281 -12.976562 12.3125 -12.429688 12.875 -11.703125 L 12.875 -19.296875 Z M 8.265625 -2.03125 C 9.128906 -2.03125 9.914062 -2.234375 10.625 -2.640625 C 11.34375 -3.046875 11.898438 -3.613281 12.296875 -4.34375 C 12.691406 -5.082031 12.890625 -5.929688 12.890625 -6.890625 C 12.890625 -7.835938 12.691406 -8.679688 12.296875 -9.421875 C 11.898438 -10.160156 11.34375 -10.726562 10.625 -11.125 C 9.914062 -11.519531 9.128906 -11.71875 8.265625 -11.71875 C 7.378906 -11.71875 6.585938 -11.519531 5.890625 -11.125 C 5.191406 -10.726562 4.632812 -10.160156 4.21875 -9.421875 C 3.8125 -8.679688 3.609375 -7.835938 3.609375 -6.890625 C 3.609375 -5.929688 3.8125 -5.082031 4.21875 -4.34375 C 4.632812 -3.613281 5.191406 -3.046875 5.890625 -2.640625 C 6.585938 -2.234375 7.378906 -2.03125 8.265625 -2.03125 Z M 8.265625 -2.03125 "/></g></g></g><g fill="#131e29" fill-opacity="1"><g transform="translate(336.201684, 92.086197)"><g><path d="M 14.8125 -6.8125 C 14.8125 -6.625 14.796875 -6.375 14.765625 -6.0625 L 3.59375 -6.0625 C 3.75 -4.84375 4.28125 -3.863281 5.1875 -3.125 C 6.09375 -2.394531 7.222656 -2.03125 8.578125 -2.03125 C 10.222656 -2.03125 11.550781 -2.582031 12.5625 -3.6875 L 13.9375 -2.078125 C 13.3125 -1.347656 12.535156 -0.789062 11.609375 -0.40625 C 10.679688 -0.03125 9.644531 0.15625 8.5 0.15625 C 7.039062 0.15625 5.75 -0.140625 4.625 -0.734375 C 3.5 -1.335938 2.628906 -2.175781 2.015625 -3.25 C 1.398438 -4.320312 1.09375 -5.535156 1.09375 -6.890625 C 1.09375 -8.222656 1.390625 -9.425781 1.984375 -10.5 C 2.585938 -11.570312 3.410156 -12.40625 4.453125 -13 C 5.503906 -13.601562 6.691406 -13.90625 8.015625 -13.90625 C 9.328125 -13.90625 10.5 -13.601562 11.53125 -13 C 12.5625 -12.40625 13.363281 -11.570312 13.9375 -10.5 C 14.519531 -9.425781 14.8125 -8.195312 14.8125 -6.8125 Z M 8.015625 -11.796875 C 6.816406 -11.796875 5.8125 -11.429688 5 -10.703125 C 4.195312 -9.984375 3.726562 -9.035156 3.59375 -7.859375 L 12.421875 -7.859375 C 12.285156 -9.015625 11.8125 -9.957031 11 -10.6875 C 10.195312 -11.425781 9.203125 -11.796875 8.015625 -11.796875 Z M 8.015625 -11.796875 "/></g></g></g><g fill="#131e29" fill-opacity="1"><g transform="translate(281.514069, 116.836195)"><g><path d="M 19.609375 -13.90625 C 21.335938 -13.90625 22.707031 -13.398438 23.71875 -12.390625 C 24.738281 -11.390625 25.25 -9.90625 25.25 -7.9375 L 25.25 0 L 22.75 0 L 22.75 -7.640625 C 22.75 -8.972656 22.441406 -9.976562 21.828125 -10.65625 C 21.210938 -11.332031 20.332031 -11.671875 19.1875 -11.671875 C 17.925781 -11.671875 16.921875 -11.273438 16.171875 -10.484375 C 15.421875 -9.703125 15.046875 -8.570312 15.046875 -7.09375 L 15.046875 0 L 12.5625 0 L 12.5625 -7.640625 C 12.5625 -8.972656 12.253906 -9.976562 11.640625 -10.65625 C 11.023438 -11.332031 10.144531 -11.671875 9 -11.671875 C 7.726562 -11.671875 6.71875 -11.273438 5.96875 -10.484375 C 5.226562 -9.703125 4.859375 -8.570312 4.859375 -7.09375 L 4.859375 0 L 2.359375 0 L 2.359375 -13.78125 L 4.765625 -13.78125 L 4.765625 -11.71875 C 5.265625 -12.4375 5.921875 -12.976562 6.734375 -13.34375 C 7.546875 -13.71875 8.472656 -13.90625 9.515625 -13.90625 C 10.585938 -13.90625 11.539062 -13.6875 12.375 -13.25 C 13.207031 -12.820312 13.847656 -12.191406 14.296875 -11.359375 C 14.816406 -12.160156 15.539062 -12.785156 16.46875 -13.234375 C 17.394531 -13.679688 18.441406 -13.90625 19.609375 -13.90625 Z M 19.609375 -13.90625 "/></g></g></g><g fill="#131e29" fill-opacity="1"><g transform="translate(308.987842, 116.836195)"><g><path d="M 7.390625 -13.90625 C 9.296875 -13.90625 10.753906 -13.4375 11.765625 -12.5 C 12.773438 -11.570312 13.28125 -10.175781 13.28125 -8.3125 L 13.28125 0 L 10.921875 0 L 10.921875 -1.8125 C 10.503906 -1.175781 9.910156 -0.6875 9.140625 -0.34375 C 8.367188 -0.0078125 7.453125 0.15625 6.390625 0.15625 C 4.847656 0.15625 3.613281 -0.210938 2.6875 -0.953125 C 1.757812 -1.703125 1.296875 -2.6875 1.296875 -3.90625 C 1.296875 -5.113281 1.738281 -6.085938 2.625 -6.828125 C 3.507812 -7.566406 4.914062 -7.9375 6.84375 -7.9375 L 10.796875 -7.9375 L 10.796875 -8.421875 C 10.796875 -9.492188 10.484375 -10.316406 9.859375 -10.890625 C 9.234375 -11.460938 8.3125 -11.75 7.09375 -11.75 C 6.28125 -11.75 5.484375 -11.613281 4.703125 -11.34375 C 3.921875 -11.082031 3.265625 -10.722656 2.734375 -10.265625 L 1.6875 -12.140625 C 2.394531 -12.710938 3.242188 -13.148438 4.234375 -13.453125 C 5.222656 -13.753906 6.273438 -13.90625 7.390625 -13.90625 Z M 6.8125 -1.765625 C 7.757812 -1.765625 8.582031 -1.976562 9.28125 -2.40625 C 9.976562 -2.832031 10.484375 -3.4375 10.796875 -4.21875 L 10.796875 -6.140625 L 6.9375 -6.140625 C 4.820312 -6.140625 3.765625 -5.425781 3.765625 -4 C 3.765625 -3.3125 4.03125 -2.765625 4.5625 -2.359375 C 5.101562 -1.960938 5.851562 -1.765625 6.8125 -1.765625 Z M 6.8125 -1.765625 "/></g></g></g><g fill="#131e29" fill-opacity="1"><g transform="translate(324.531183, 116.836195)"><g><path d="M 4.765625 -11.46875 C 5.191406 -12.257812 5.828125 -12.863281 6.671875 -13.28125 C 7.523438 -13.695312 8.5625 -13.90625 9.78125 -13.90625 L 9.78125 -11.484375 C 9.632812 -11.503906 9.441406 -11.515625 9.203125 -11.515625 C 7.847656 -11.515625 6.785156 -11.109375 6.015625 -10.296875 C 5.242188 -9.492188 4.859375 -8.347656 4.859375 -6.859375 L 4.859375 0 L 2.359375 0 L 2.359375 -13.78125 L 4.765625 -13.78125 Z M 4.765625 -11.46875 "/></g></g></g><g fill="#131e29" fill-opacity="1"><g transform="translate(335.18799, 116.836195)"><g><path d="M 7.71875 -6.421875 L 4.859375 -3.765625 L 4.859375 0 L 2.359375 0 L 2.359375 -19.296875 L 4.859375 -19.296875 L 4.859375 -6.921875 L 12.375 -13.78125 L 15.390625 -13.78125 L 9.59375 -8.09375 L 15.96875 0 L 12.890625 0 Z M 7.71875 -6.421875 "/></g></g></g><g fill="#131e29" fill-opacity="1"><g transform="translate(351.199189, 116.836195)"><g><path d="M 14.8125 -6.8125 C 14.8125 -6.625 14.796875 -6.375 14.765625 -6.0625 L 3.59375 -6.0625 C 3.75 -4.84375 4.28125 -3.863281 5.1875 -3.125 C 6.09375 -2.394531 7.222656 -2.03125 8.578125 -2.03125 C 10.222656 -2.03125 11.550781 -2.582031 12.5625 -3.6875 L 13.9375 -2.078125 C 13.3125 -1.347656 12.535156 -0.789062 11.609375 -0.40625 C 10.679688 -0.03125 9.644531 0.15625 8.5 0.15625 C 7.039062 0.15625 5.75 -0.140625 4.625 -0.734375 C 3.5 -1.335938 2.628906 -2.175781 2.015625 -3.25 C 1.398438 -4.320312 1.09375 -5.535156 1.09375 -6.890625 C 1.09375 -8.222656 1.390625 -9.425781 1.984375 -10.5 C 2.585938 -11.570312 3.410156 -12.40625 4.453125 -13 C 5.503906 -13.601562 6.691406 -13.90625 8.015625 -13.90625 C 9.328125 -13.90625 10.5 -13.601562 11.53125 -13 C 12.5625 -12.40625 13.363281 -11.570312 13.9375 -10.5 C 14.519531 -9.425781 14.8125 -8.195312 14.8125 -6.8125 Z M 8.015625 -11.796875 C 6.816406 -11.796875 5.8125 -11.429688 5 -10.703125 C 4.195312 -9.984375 3.726562 -9.035156 3.59375 -7.859375 L 12.421875 -7.859375 C 12.285156 -9.015625 11.8125 -9.957031 11 -10.6875 C 10.195312 -11.425781 9.203125 -11.796875 8.015625 -11.796875 Z M 8.015625 -11.796875 "/></g></g></g><g fill="#131e29" fill-opacity="1"><g transform="translate(367.106419, 116.836195)"><g><path d="M 10.109375 -0.8125 C 9.742188 -0.5 9.289062 -0.257812 8.75 -0.09375 C 8.21875 0.0703125 7.664062 0.15625 7.09375 0.15625 C 5.707031 0.15625 4.632812 -0.210938 3.875 -0.953125 C 3.113281 -1.703125 2.734375 -2.769531 2.734375 -4.15625 L 2.734375 -11.71875 L 0.390625 -11.71875 L 0.390625 -13.78125 L 2.734375 -13.78125 L 2.734375 -16.796875 L 5.21875 -16.796875 L 5.21875 -13.78125 L 9.171875 -13.78125 L 9.171875 -11.71875 L 5.21875 -11.71875 L 5.21875 -4.265625 C 5.21875 -3.515625 5.40625 -2.941406 5.78125 -2.546875 C 6.15625 -2.148438 6.691406 -1.953125 7.390625 -1.953125 C 8.148438 -1.953125 8.796875 -2.164062 9.328125 -2.59375 Z M 10.109375 -0.8125 "/></g></g></g><g fill="#131e29" fill-opacity="1"><g transform="translate(377.867195, 116.836195)"><g><path d="M 2.359375 -13.78125 L 4.859375 -13.78125 L 4.859375 0 L 2.359375 0 Z M 3.609375 -16.4375 C 3.117188 -16.4375 2.710938 -16.59375 2.390625 -16.90625 C 2.078125 -17.21875 1.921875 -17.597656 1.921875 -18.046875 C 1.921875 -18.492188 2.078125 -18.878906 2.390625 -19.203125 C 2.710938 -19.523438 3.117188 -19.6875 3.609375 -19.6875 C 4.085938 -19.6875 4.488281 -19.53125 4.8125 -19.21875 C 5.132812 -18.914062 5.296875 -18.539062 5.296875 -18.09375 C 5.296875 -17.625 5.132812 -17.226562 4.8125 -16.90625 C 4.488281 -16.59375 4.085938 -16.4375 3.609375 -16.4375 Z M 3.609375 -16.4375 "/></g></g></g><g fill="#131e29" fill-opacity="1"><g transform="translate(385.119018, 116.836195)"><g><path d="M 9.71875 -13.90625 C 11.46875 -13.90625 12.859375 -13.398438 13.890625 -12.390625 C 14.921875 -11.378906 15.4375 -9.894531 15.4375 -7.9375 L 15.4375 0 L 12.953125 0 L 12.953125 -7.640625 C 12.953125 -8.972656 12.628906 -9.976562 11.984375 -10.65625 C 11.347656 -11.332031 10.429688 -11.671875 9.234375 -11.671875 C 7.878906 -11.671875 6.8125 -11.273438 6.03125 -10.484375 C 5.25 -9.703125 4.859375 -8.570312 4.859375 -7.09375 L 4.859375 0 L 2.359375 0 L 2.359375 -13.78125 L 4.765625 -13.78125 L 4.765625 -11.703125 C 5.265625 -12.410156 5.941406 -12.953125 6.796875 -13.328125 C 7.660156 -13.710938 8.632812 -13.90625 9.71875 -13.90625 Z M 9.71875 -13.90625 "/></g></g></g><g fill="#131e29" fill-opacity="1"><g transform="translate(402.819719, 116.836195)"><g><path d="M 15.546875 -13.78125 L 15.546875 -1.875 C 15.546875 0.53125 14.945312 2.3125 13.75 3.46875 C 12.550781 4.625 10.765625 5.203125 8.390625 5.203125 C 7.097656 5.203125 5.859375 5.023438 4.671875 4.671875 C 3.492188 4.316406 2.539062 3.804688 1.8125 3.140625 L 3.015625 1.21875 C 3.660156 1.769531 4.453125 2.207031 5.390625 2.53125 C 6.335938 2.851562 7.3125 3.015625 8.3125 3.015625 C 9.925781 3.015625 11.117188 2.632812 11.890625 1.875 C 12.660156 1.113281 13.046875 -0.046875 13.046875 -1.609375 L 13.046875 -2.703125 C 12.460938 -1.992188 11.738281 -1.460938 10.875 -1.109375 C 10.019531 -0.753906 9.09375 -0.578125 8.09375 -0.578125 C 6.769531 -0.578125 5.570312 -0.859375 4.5 -1.421875 C 3.4375 -1.984375 2.601562 -2.769531 2 -3.78125 C 1.394531 -4.789062 1.09375 -5.945312 1.09375 -7.25 C 1.09375 -8.550781 1.394531 -9.707031 2 -10.71875 C 2.601562 -11.738281 3.4375 -12.523438 4.5 -13.078125 C 5.570312 -13.628906 6.769531 -13.90625 8.09375 -13.90625 C 9.125 -13.90625 10.085938 -13.710938 10.984375 -13.328125 C 11.878906 -12.953125 12.613281 -12.390625 13.1875 -11.640625 L 13.1875 -13.78125 Z M 8.375 -2.75 C 9.269531 -2.75 10.078125 -2.941406 10.796875 -3.328125 C 11.515625 -3.710938 12.078125 -4.242188 12.484375 -4.921875 C 12.898438 -5.609375 13.109375 -6.382812 13.109375 -7.25 C 13.109375 -8.582031 12.664062 -9.660156 11.78125 -10.484375 C 10.894531 -11.304688 9.757812 -11.71875 8.375 -11.71875 C 6.96875 -11.71875 5.820312 -11.304688 4.9375 -10.484375 C 4.050781 -9.660156 3.609375 -8.582031 3.609375 -7.25 C 3.609375 -6.382812 3.8125 -5.609375 4.21875 -4.921875 C 4.632812 -4.242188 5.203125 -3.710938 5.921875 -3.328125 C 6.640625 -2.941406 7.457031 -2.75 8.375 -2.75 Z M 8.375 -2.75 "/></g></g></g></svg>