<svg xmlns="http://www.w3.org/2000/svg" xmlns:xlink="http://www.w3.org/1999/xlink" width="500" zoomAndPan="magnify" viewBox="0 0 375 374.999991" height="500" preserveAspectRatio="xMidYMid meet" version="1.0"><defs><clipPath id="6a74e40abf"><path d="M 20 134.742188 L 55.535156 134.742188 L 55.535156 170.839844 L 20 170.839844 Z M 20 134.742188 " clip-rule="nonzero"/></clipPath><clipPath id="6182ddc388"><path d="M 55.480469 152.375 C 55.480469 162.121094 47.597656 170.007812 37.851562 170.007812 C 28.105469 170.007812 20.21875 162.121094 20.21875 152.375 L 22.886719 152.375 L 20.21875 152.375 C 20.21875 142.632812 28.105469 134.746094 37.851562 134.746094 L 37.851562 137.414062 L 37.851562 134.746094 C 47.597656 134.746094 55.480469 142.632812 55.480469 152.375 L 52.8125 152.375 L 55.480469 152.375 M 50.144531 152.375 C 50.144531 145.582031 44.644531 140.082031 37.851562 140.082031 C 31.058594 140.082031 25.558594 145.582031 25.558594 152.375 C 25.558594 159.171875 31.058594 164.671875 37.851562 164.671875 C 44.644531 164.671875 50.144531 159.171875 50.144531 152.375 Z M 50.144531 152.375 " clip-rule="nonzero"/></clipPath><clipPath id="160159a504"><path d="M 311 179.167969 L 331.820312 179.167969 L 331.820312 262.472656 L 311 262.472656 Z M 311 179.167969 " clip-rule="nonzero"/></clipPath><clipPath id="3acc9800c2"><path d="M 331.074219 182.058594 C 333.417969 210.164062 328.082031 236.855469 316.921875 260.226562 L 314.695312 262.128906 L 311.460938 259.257812 L 312.109375 257.921875 C 322.863281 235.359375 328.042969 209.636719 325.734375 182.464844 L 326.707031 179.714844 L 330.914062 180.5625 Z M 331.074219 182.058594 " clip-rule="nonzero"/></clipPath><clipPath id="860a885610"><path d="M 266 72.265625 L 322 72.265625 L 322 143 L 266 143 Z M 266 72.265625 " clip-rule="nonzero"/></clipPath><clipPath id="51ee003c70"><path d="M 270.820312 73.683594 C 293.140625 90.382812 310.691406 113.109375 321.085938 139.4375 L 320.964844 142.347656 L 316.675781 142.753906 L 316.152344 141.378906 C 306.125 115.980469 289.179688 94.0625 267.664062 77.929688 L 266.25 75.382812 L 269.6875 72.792969 Z M 270.820312 73.683594 " clip-rule="nonzero"/></clipPath><clipPath id="482e527c9e"><path d="M 140 43.109375 L 251 43.109375 L 251 66 L 140 66 Z M 140 43.109375 " clip-rule="nonzero"/></clipPath><clipPath id="efe731036c"><path d="M 141.535156 48.449219 C 153.828125 45.214844 166.769531 43.515625 180.074219 43.515625 L 180.074219 46.183594 L 180.074219 43.515625 C 204.78125 43.515625 228.117188 49.417969 248.738281 59.933594 L 250.558594 62.199219 L 247.609375 65.351562 L 246.3125 64.703125 C 226.457031 54.59375 203.933594 48.894531 180.074219 48.894531 C 167.214844 48.894531 154.761719 50.550781 142.910156 53.664062 L 140.039062 53.179688 L 140.160156 48.894531 Z M 141.535156 48.449219 " clip-rule="nonzero"/></clipPath><clipPath id="01d212324d"><path d="M 39 65.324219 L 105 65.324219 L 105 141.683594 L 39 141.683594 Z M 39 65.324219 " clip-rule="nonzero"/></clipPath><clipPath id="fbec4fcdb6"><path d="M 39.996094 137.132812 C 52.246094 107.53125 73.597656 82.660156 100.613281 66.039062 L 103.484375 65.675781 L 104.65625 69.800781 L 103.402344 70.570312 C 77.359375 86.621094 56.734375 110.601562 44.886719 139.152344 L 42.785156 141.175781 L 39.429688 138.507812 Z M 39.996094 137.132812 " clip-rule="nonzero"/></clipPath><clipPath id="1d25a3771e"><path d="M 28 163.898438 L 45 163.898438 L 45 254 L 28 254 Z M 28 163.898438 " clip-rule="nonzero"/></clipPath><clipPath id="f43d1217b4"><path d="M 39.75 252.421875 C 32.511719 234.710938 28.550781 215.378906 28.550781 195.082031 L 31.21875 195.082031 L 28.550781 195.082031 C 28.550781 185.214844 29.480469 175.628906 31.257812 166.289062 L 32.917969 163.902344 L 36.757812 165.84375 L 36.476562 167.296875 C 34.738281 176.277344 33.847656 185.578125 33.847656 195.082031 C 33.847656 214.652344 37.6875 233.335938 44.644531 250.402344 L 44.5625 253.3125 L 40.277344 253.757812 Z M 39.75 252.421875 " clip-rule="nonzero"/></clipPath><clipPath id="4410f707f1"><path d="M 95 30 L 145.777344 30 L 145.777344 80.59375 L 95 80.59375 Z M 95 30 " clip-rule="nonzero"/></clipPath><clipPath id="de0e5dc0ec"><path d="M 145.257812 55.121094 C 145.257812 68.992188 134.015625 80.234375 120.144531 80.234375 C 106.273438 80.234375 95.03125 68.992188 95.03125 55.121094 L 97.699219 55.121094 L 95.03125 55.121094 C 95.03125 41.25 106.273438 30.007812 120.144531 30.007812 L 120.144531 32.675781 L 120.144531 30.007812 C 134.015625 30.007812 145.257812 41.25 145.257812 55.121094 L 142.585938 55.121094 L 145.257812 55.121094 M 139.917969 55.121094 C 139.917969 44.203125 131.0625 35.347656 120.144531 35.347656 C 109.226562 35.347656 100.371094 44.203125 100.371094 55.121094 C 100.371094 66.039062 109.226562 74.894531 120.144531 74.894531 C 131.0625 74.894531 139.917969 66.039062 139.917969 55.121094 Z M 139.917969 55.121094 " clip-rule="nonzero"/></clipPath><clipPath id="8d5d1d9ee2"><path d="M 35 239 L 86 239 L 86 290 L 35 290 Z M 35 239 " clip-rule="nonzero"/></clipPath><clipPath id="8241891699"><path d="M 85.40625 264.636719 C 85.40625 278.507812 74.164062 289.746094 60.292969 289.746094 C 46.425781 289.746094 35.183594 278.507812 35.183594 264.636719 L 37.851562 264.636719 L 35.183594 264.636719 C 35.183594 250.765625 46.425781 239.523438 60.292969 239.523438 L 60.292969 242.191406 L 60.292969 239.523438 C 74.164062 239.523438 85.40625 250.765625 85.40625 264.636719 L 82.738281 264.636719 L 85.40625 264.636719 M 80.070312 264.636719 C 80.070312 253.71875 71.214844 244.859375 60.292969 244.859375 C 49.375 244.859375 40.519531 253.71875 40.519531 264.636719 C 40.519531 275.554688 49.375 284.410156 60.292969 284.410156 C 71.214844 284.410156 80.070312 275.554688 80.070312 264.636719 Z M 80.070312 264.636719 " clip-rule="nonzero"/></clipPath><clipPath id="2559ffa8f2"><path d="M 304.050781 134.742188 L 355 134.742188 L 355 185 L 304.050781 185 Z M 304.050781 134.742188 " clip-rule="nonzero"/></clipPath><clipPath id="75c236081d"><path d="M 354.769531 159.859375 C 354.769531 173.726562 343.527344 184.96875 329.660156 184.96875 C 315.789062 184.96875 304.546875 173.726562 304.546875 159.859375 L 307.214844 159.859375 L 304.546875 159.859375 C 304.546875 145.988281 315.789062 134.746094 329.660156 134.746094 L 329.660156 137.414062 L 329.660156 134.746094 C 343.527344 134.746094 354.769531 145.988281 354.769531 159.859375 L 352.101562 159.859375 L 354.769531 159.859375 M 349.433594 159.859375 C 349.433594 148.9375 340.578125 140.082031 329.660156 140.082031 C 318.738281 140.082031 309.882812 148.9375 309.882812 159.859375 C 309.882812 170.777344 318.738281 179.632812 329.660156 179.632812 C 340.578125 179.632812 349.433594 170.777344 349.433594 159.859375 Z M 349.433594 159.859375 " clip-rule="nonzero"/></clipPath><clipPath id="dab0bb7ba9"><path d="M 244.351562 44.5 L 280 44.5 L 280 80.59375 L 244.351562 80.59375 Z M 244.351562 44.5 " clip-rule="nonzero"/></clipPath><clipPath id="8d7334182e"><path d="M 279.960938 62.601562 C 279.960938 72.347656 272.074219 80.234375 262.328125 80.234375 C 252.582031 80.234375 244.695312 72.347656 244.695312 62.601562 L 247.367188 62.601562 L 244.695312 62.601562 C 244.695312 52.898438 252.582031 44.972656 262.328125 44.972656 L 262.328125 47.640625 L 262.328125 44.972656 C 272.074219 44.972656 279.960938 52.855469 279.960938 62.601562 L 277.289062 62.601562 L 279.960938 62.601562 M 274.621094 62.601562 C 274.621094 55.808594 269.121094 50.308594 262.328125 50.308594 C 255.535156 50.308594 250.035156 55.808594 250.035156 62.601562 C 250.035156 69.394531 255.535156 74.894531 262.328125 74.894531 C 269.121094 74.894531 274.621094 69.394531 274.621094 62.601562 Z M 274.621094 62.601562 " clip-rule="nonzero"/></clipPath><clipPath id="b9edf5f211"><path d="M 289 254.140625 L 324.878906 254.140625 L 324.878906 290 L 289 290 Z M 289 254.140625 " clip-rule="nonzero"/></clipPath><clipPath id="86512fd897"><path d="M 324.847656 272.117188 C 324.847656 281.863281 316.960938 289.746094 307.214844 289.746094 C 297.46875 289.746094 289.582031 281.863281 289.582031 272.117188 L 292.253906 272.117188 L 289.582031 272.117188 C 289.582031 262.371094 297.46875 254.484375 307.214844 254.484375 L 307.214844 257.152344 L 307.214844 254.484375 C 316.960938 254.484375 324.847656 262.371094 324.847656 272.117188 L 322.175781 272.117188 L 324.847656 272.117188 M 319.507812 272.117188 C 319.507812 265.324219 314.007812 259.824219 307.214844 259.824219 C 300.421875 259.824219 294.921875 265.324219 294.921875 272.117188 C 294.921875 278.910156 300.421875 284.410156 307.214844 284.410156 C 314.007812 284.410156 319.507812 278.910156 319.507812 272.117188 Z M 319.507812 272.117188 " clip-rule="nonzero"/></clipPath><clipPath id="98b21c7dc8"><path d="M 132 68.101562 L 301 68.101562 L 301 263 L 132 263 Z M 132 68.101562 " clip-rule="nonzero"/></clipPath><clipPath id="a44b68393d"><path d="M 136.722656 69.074219 C 167.699219 85.085938 264.550781 157.269531 300.542969 259.460938 L 300.300781 262.371094 L 296.011719 262.613281 L 295.527344 261.238281 C 260.144531 160.746094 164.546875 89.453125 134.296875 73.804688 L 132.476562 71.539062 L 135.429688 68.425781 Z M 136.722656 69.074219 " clip-rule="nonzero"/></clipPath><clipPath id="6dd7d5273b"><path d="M 78 268.023438 L 112 268.023438 L 112 276 L 78 276 Z M 78 268.023438 " clip-rule="nonzero"/></clipPath><clipPath id="0159771ba0"><path d="M 109.429688 274.988281 L 81.363281 273.9375 C 79.90625 273.773438 78.855469 272.480469 78.976562 271.023438 L 80.433594 268.515625 L 81.890625 268.679688 C 91.148438 269.648438 100.25 269.972656 109.226562 269.730469 L 111.933594 270.863281 L 110.84375 275.027344 Z M 109.429688 274.988281 " clip-rule="nonzero"/></clipPath><clipPath id="df624236fc"><path d="M 271 173 L 316.546875 173 L 316.546875 211 L 271 211 Z M 271 173 " clip-rule="nonzero"/></clipPath><clipPath id="6c3d5ebba0"><path d="M 315.179688 177.972656 C 315.101562 178.054688 301.433594 191.644531 275.957031 210.246094 L 273.085938 210.851562 L 271.628906 206.808594 L 272.800781 205.957031 C 298.035156 187.519531 311.5 174.132812 311.421875 174.214844 L 314.128906 173.164062 L 316.191406 176.921875 Z M 315.179688 177.972656 " clip-rule="nonzero"/></clipPath><clipPath id="75c377aef5"><path d="M 50 115.304688 L 312 115.304688 L 312 156 L 50 156 Z M 50 115.304688 " clip-rule="nonzero"/></clipPath><clipPath id="fe54cc7fab"><path d="M 51.921875 147 C 53.742188 146.351562 56.492188 145.257812 60.171875 143.722656 C 66.804688 140.972656 76.1875 137.089844 87.792969 133.085938 C 135.875 116.507812 222.292969 97.863281 309.84375 150.476562 L 311.5 152.863281 L 308.347656 155.773438 L 307.09375 155.003906 C 221.523438 103.605469 137.007812 121.722656 89.53125 138.101562 C 78.085938 142.066406 68.828125 145.867188 62.234375 148.617188 L 53.703125 152.011719 C 52.328125 152.496094 50.792969 151.769531 50.304688 150.355469 L 50.546875 147.441406 Z M 51.921875 147 " clip-rule="nonzero"/></clipPath><clipPath id="ad39cf9e69"><path d="M 75 72.265625 L 258 72.265625 L 258 255 L 75 255 Z M 75 72.265625 " clip-rule="nonzero"/></clipPath><clipPath id="e524fb4c84"><path d="M 76.550781 249.46875 C 78.9375 247.246094 82.65625 241.261719 88.398438 231.878906 C 102.1875 209.355469 126.167969 170.167969 166.933594 132.480469 C 190.023438 111.128906 218.492188 90.222656 253.59375 73.074219 L 256.503906 72.996094 L 257.230469 77.242188 L 255.898438 77.886719 C 221.363281 94.710938 193.296875 115.292969 170.53125 136.363281 C 130.335938 173.527344 106.679688 212.144531 92.929688 234.628906 C 87.46875 243.566406 83.265625 250.480469 80.148438 253.351562 L 77.398438 254.28125 L 75.460938 250.441406 Z M 76.550781 249.46875 " clip-rule="nonzero"/></clipPath><clipPath id="740e2dc5ea"><path d="M 179.097656 206 L 202.703125 206 L 202.703125 233 L 179.097656 233 Z M 179.097656 206 " clip-rule="nonzero"/></clipPath><clipPath id="2c36db9cd3"><path d="M 202.679688 217.726562 C 202.679688 223.183594 198.191406 232.164062 190.914062 232.164062 C 183.632812 232.164062 179.144531 223.183594 179.144531 217.726562 L 181.8125 217.726562 L 179.144531 217.726562 C 179.144531 211.296875 184.484375 206.160156 190.914062 206.160156 L 190.914062 208.828125 L 190.914062 206.160156 C 197.34375 206.160156 202.679688 211.296875 202.679688 217.726562 L 200.011719 217.726562 L 202.679688 217.726562 M 197.34375 217.726562 C 197.34375 214.328125 194.511719 211.457031 190.871094 211.457031 C 187.234375 211.457031 184.402344 214.328125 184.402344 217.726562 C 184.402344 222.09375 188.082031 226.867188 190.871094 226.867188 C 193.664062 226.867188 197.34375 222.09375 197.34375 217.726562 Z M 197.34375 217.726562 " clip-rule="nonzero"/></clipPath><clipPath id="ac49cec4f8"><path d="M 163 236 L 219 236 L 219 345 L 163 345 Z M 163 236 " clip-rule="nonzero"/></clipPath><clipPath id="cc7b6ae8a2"><path d="M 208.058594 241.421875 L 200.011719 241.421875 L 200.011719 238.753906 L 201.910156 240.65625 C 194.671875 247.894531 186.261719 247.894531 179.023438 240.65625 L 180.925781 238.753906 L 180.925781 241.421875 L 173.363281 241.421875 L 168.628906 243.566406 L 168.628906 246.558594 L 166.042969 247.164062 L 168.671875 246.800781 L 173.96875 283.804688 L 171.339844 284.167969 L 173.96875 283.804688 C 174.292969 286.148438 176.3125 287.886719 178.660156 287.886719 L 181.207031 288.9375 L 185.535156 342.117188 L 182.863281 342.320312 L 182.863281 339.648438 L 199.039062 339.648438 L 199.039062 342.320312 L 196.371094 342.117188 L 200.132812 290.355469 C 200.214844 288.980469 201.386719 287.886719 202.800781 287.886719 L 207.167969 286.148438 L 212.789062 246.84375 L 215.417969 247.207031 L 212.789062 246.84375 C 213.152344 244.214844 211.335938 241.828125 208.785156 241.464844 L 208.339844 241.421875 L 208.097656 238.753906 L 208.097656 241.421875 M 208.097656 236.085938 L 209.070312 236.125 L 209.554688 236.207031 C 214.972656 236.976562 218.855469 241.988281 218.085938 247.570312 L 212.789062 284.570312 L 210.160156 284.207031 L 212.789062 284.570312 C 212.101562 289.503906 207.855469 293.226562 202.84375 293.226562 L 202.84375 290.558594 L 205.511719 290.757812 L 201.75 342.519531 C 201.667969 343.894531 200.496094 344.988281 199.082031 344.988281 L 182.90625 344.988281 C 181.53125 344.988281 180.359375 343.9375 180.238281 342.5625 L 176.03125 290.800781 L 178.699219 290.597656 L 178.699219 293.265625 C 173.683594 293.265625 169.4375 289.585938 168.75 284.652344 L 163.453125 247.652344 C 163.375 247.164062 163.332031 246.679688 163.332031 246.234375 C 163.332031 240.777344 167.78125 236.207031 173.402344 236.207031 L 180.964844 236.207031 C 181.652344 236.207031 182.339844 236.488281 182.863281 236.976562 C 188 242.109375 193.054688 242.109375 198.191406 236.976562 L 199.363281 236.207031 L 208.097656 236.207031 Z M 208.097656 236.085938 " clip-rule="nonzero"/></clipPath><clipPath id="2b03c461e4"><path d="M 119.398438 206 L 144 206 L 144 233 L 119.398438 233 Z M 119.398438 206 " clip-rule="nonzero"/></clipPath><clipPath id="c760cb07d8"><path d="M 143.519531 217.726562 C 143.519531 223.183594 139.027344 232.164062 131.75 232.164062 C 124.472656 232.164062 119.941406 223.183594 119.941406 217.726562 L 122.609375 217.726562 L 119.941406 217.726562 C 119.941406 211.253906 125.28125 206.160156 131.75 206.160156 L 131.75 208.828125 L 131.75 206.160156 C 138.179688 206.160156 143.519531 211.296875 143.519531 217.726562 L 140.847656 217.726562 L 143.519531 217.726562 M 138.179688 217.726562 C 138.179688 214.328125 135.347656 211.457031 131.710938 211.457031 C 128.070312 211.457031 125.238281 214.328125 125.238281 217.726562 C 125.238281 222.09375 128.917969 226.867188 131.710938 226.867188 C 134.5 226.867188 138.179688 222.09375 138.179688 217.726562 Z M 138.179688 217.726562 " clip-rule="nonzero"/></clipPath><clipPath id="069127063a"><path d="M 104 236 L 159 236 L 159 345 L 104 345 Z M 104 236 " clip-rule="nonzero"/></clipPath><clipPath id="06b4525aa2"><path d="M 148.894531 241.421875 L 140.847656 241.421875 L 140.847656 238.753906 L 142.710938 240.65625 C 135.46875 247.894531 127.058594 247.894531 119.820312 240.65625 L 121.722656 238.753906 L 121.722656 241.421875 L 114.160156 241.421875 L 109.429688 243.566406 L 109.429688 246.558594 L 114.726562 283.761719 L 112.097656 284.125 L 114.726562 283.761719 C 115.050781 286.109375 117.070312 287.847656 119.417969 287.847656 L 121.964844 288.898438 L 126.289062 342.074219 L 123.621094 342.277344 L 123.621094 339.609375 L 139.796875 339.609375 L 139.796875 342.277344 L 137.128906 342.074219 L 140.890625 290.3125 C 140.96875 288.9375 142.144531 287.847656 143.558594 287.847656 L 147.925781 286.109375 L 150.878906 284.167969 L 148.25 283.804688 L 153.546875 246.800781 L 156.175781 247.164062 L 153.546875 246.800781 C 153.910156 244.171875 152.089844 241.789062 149.542969 241.421875 L 149.097656 241.382812 L 148.855469 238.714844 L 148.855469 241.382812 M 148.855469 236.046875 L 149.828125 236.085938 L 150.3125 236.167969 C 155.730469 236.933594 159.652344 241.949219 158.84375 247.53125 L 153.546875 284.53125 C 152.820312 289.464844 148.574219 293.144531 143.597656 293.144531 L 143.597656 290.476562 L 146.269531 290.679688 L 142.507812 342.441406 C 142.425781 343.816406 141.253906 344.90625 139.839844 344.90625 L 123.664062 344.90625 C 122.289062 344.90625 121.113281 343.855469 120.992188 342.480469 L 116.789062 290.71875 L 119.457031 290.515625 L 119.457031 293.183594 C 114.441406 293.183594 110.195312 289.503906 109.46875 284.570312 L 104.171875 247.570312 L 106.800781 247.207031 L 104.171875 247.570312 L 104.050781 246.597656 L 104.050781 246.113281 C 104.050781 240.65625 108.457031 236.085938 114.117188 236.085938 L 121.679688 236.085938 C 122.367188 236.085938 123.054688 236.367188 123.582031 236.855469 C 128.71875 241.988281 133.773438 241.988281 138.90625 236.855469 L 140.082031 236.085938 L 148.816406 236.085938 Z M 148.855469 236.046875 " clip-rule="nonzero"/></clipPath><clipPath id="d27c832d2c"><path d="M 238 206 L 262 206 L 262 233 L 238 233 Z M 238 206 " clip-rule="nonzero"/></clipPath><clipPath id="7354425cef"><path d="M 261.882812 217.726562 C 261.882812 223.183594 257.394531 232.164062 250.074219 232.164062 C 242.753906 232.164062 238.308594 223.183594 238.308594 217.726562 L 240.976562 217.726562 L 238.308594 217.726562 C 238.308594 211.253906 243.644531 206.160156 250.074219 206.160156 L 250.074219 208.828125 L 250.074219 206.160156 C 256.546875 206.160156 261.882812 211.296875 261.882812 217.726562 L 259.214844 217.726562 L 261.882812 217.726562 M 256.546875 217.726562 C 256.546875 214.328125 253.714844 211.457031 250.074219 211.457031 C 246.433594 211.457031 243.605469 214.328125 243.605469 217.726562 C 243.605469 222.09375 247.285156 226.867188 250.074219 226.867188 C 252.863281 226.867188 256.546875 222.09375 256.546875 217.726562 Z M 256.546875 217.726562 " clip-rule="nonzero"/></clipPath><clipPath id="549742f539"><path d="M 149 191.664062 L 173.546875 191.664062 L 173.546875 218 L 149 218 Z M 149 191.664062 " clip-rule="nonzero"/></clipPath><clipPath id="56bb58e71b"><path d="M 173.121094 203.289062 C 173.121094 208.75 168.628906 217.726562 161.351562 217.726562 C 154.074219 217.726562 149.582031 208.75 149.582031 203.289062 L 152.253906 203.289062 L 149.582031 203.289062 C 149.582031 196.859375 154.921875 191.722656 161.351562 191.722656 L 161.351562 194.394531 L 161.351562 191.722656 C 167.820312 191.722656 173.121094 196.859375 173.121094 203.289062 L 170.449219 203.289062 L 173.121094 203.289062 M 167.78125 203.289062 C 167.78125 199.890625 164.949219 197.0625 161.3125 197.0625 C 157.671875 197.0625 154.839844 199.933594 154.839844 203.289062 C 154.839844 207.65625 158.519531 212.429688 161.3125 212.429688 C 164.101562 212.429688 167.78125 207.65625 167.78125 203.289062 Z M 167.78125 203.289062 " clip-rule="nonzero"/></clipPath><clipPath id="360579765e"><path d="M 179.097656 170 L 202.703125 170 L 202.703125 197 L 179.097656 197 Z M 179.097656 170 " clip-rule="nonzero"/></clipPath><clipPath id="6575d43373"><path d="M 202.679688 181.65625 C 202.679688 187.113281 198.191406 196.089844 190.914062 196.089844 C 183.632812 196.089844 179.144531 187.113281 179.144531 181.65625 L 181.8125 181.65625 L 179.144531 181.65625 C 179.144531 175.226562 184.484375 170.089844 190.914062 170.089844 L 190.914062 172.757812 L 190.914062 170.089844 C 197.34375 170.089844 202.679688 175.183594 202.679688 181.65625 L 200.011719 181.65625 L 202.679688 181.65625 M 197.34375 181.65625 C 197.34375 178.257812 194.511719 175.425781 190.871094 175.425781 C 187.234375 175.425781 184.402344 178.296875 184.402344 181.65625 C 184.402344 186.023438 188.082031 190.792969 190.871094 190.792969 C 193.664062 190.792969 197.34375 186.023438 197.34375 181.65625 Z M 197.34375 181.65625 " clip-rule="nonzero"/></clipPath><clipPath id="b07ed9587b"><path d="M 208.253906 191.664062 L 233 191.664062 L 233 218 L 208.253906 218 Z M 208.253906 191.664062 " clip-rule="nonzero"/></clipPath><clipPath id="028a7892a2"><path d="M 232.28125 203.289062 C 232.28125 208.75 227.792969 217.726562 220.515625 217.726562 C 213.234375 217.726562 208.707031 208.75 208.707031 203.289062 L 211.375 203.289062 L 208.707031 203.289062 C 208.707031 196.859375 214.042969 191.722656 220.515625 191.722656 L 220.515625 194.394531 L 220.515625 191.722656 C 226.945312 191.722656 232.28125 196.859375 232.28125 203.289062 L 229.613281 203.289062 L 232.28125 203.289062 M 226.945312 203.289062 C 226.945312 199.890625 224.113281 197.0625 220.472656 197.0625 C 216.832031 197.0625 214.003906 199.933594 214.003906 203.289062 C 214.003906 207.65625 217.683594 212.429688 220.472656 212.429688 C 223.261719 212.429688 226.945312 207.65625 226.945312 203.289062 Z M 226.945312 203.289062 " clip-rule="nonzero"/></clipPath><clipPath id="048e99206e"><path d="M 222.140625 236.09375 L 277.671875 236.09375 L 277.671875 345 L 222.140625 345 Z M 222.140625 236.09375 " clip-rule="nonzero"/></clipPath><clipPath id="ebded03014"><path d="M 267.261719 241.421875 L 259.214844 241.421875 L 259.214844 238.753906 L 261.074219 240.65625 C 253.835938 247.894531 245.425781 247.894531 238.1875 240.65625 L 240.085938 238.753906 L 240.085938 241.421875 L 232.523438 241.421875 L 227.792969 243.566406 L 227.792969 246.558594 L 225.203125 247.164062 L 227.832031 246.800781 L 233.128906 283.804688 L 230.503906 284.167969 L 233.128906 283.804688 C 233.453125 286.148438 235.476562 287.886719 237.820312 287.886719 L 240.371094 288.9375 L 244.695312 342.117188 L 242.027344 342.320312 L 242.027344 339.648438 L 258.203125 339.648438 L 258.203125 342.320312 L 255.535156 342.117188 L 259.292969 290.355469 C 259.375 288.980469 260.546875 287.886719 261.964844 287.886719 L 266.332031 286.148438 L 269.285156 284.207031 L 266.65625 283.84375 L 271.953125 246.84375 C 272.316406 244.214844 270.496094 241.867188 267.949219 241.503906 L 267.503906 241.464844 L 267.261719 238.792969 L 267.261719 241.464844 M 267.261719 236.125 L 268.230469 236.167969 L 268.71875 236.246094 C 274.09375 237.015625 278.019531 242.03125 277.25 247.609375 L 274.621094 247.246094 L 277.25 247.609375 L 271.953125 284.613281 C 271.222656 289.546875 266.976562 293.226562 262.003906 293.226562 L 262.003906 290.558594 L 264.671875 290.757812 L 260.914062 342.519531 C 260.832031 343.894531 259.660156 344.988281 258.242188 344.988281 L 242.066406 344.988281 C 240.691406 344.988281 239.519531 343.9375 239.398438 342.5625 L 235.191406 290.800781 L 237.863281 290.597656 L 237.863281 293.265625 C 232.847656 293.265625 228.601562 289.585938 227.914062 284.652344 L 222.617188 247.652344 C 222.535156 247.164062 222.496094 246.679688 222.496094 246.234375 C 222.496094 240.777344 226.902344 236.207031 232.566406 236.207031 L 240.125 236.207031 C 240.8125 236.207031 241.5 236.488281 242.027344 236.976562 C 247.164062 242.109375 252.21875 242.109375 257.355469 236.976562 L 258.527344 236.207031 L 267.261719 236.207031 Z M 267.261719 236.125 " clip-rule="nonzero"/></clipPath></defs><g clip-path="url(#6a74e40abf)"><g clip-path="url(#6182ddc388)"><path fill="#cdc9be" d="M 0 9.789062 L 374.859375 9.789062 L 374.859375 365.210938 L 0 365.210938 Z M 0 9.789062 " fill-opacity="1" fill-rule="nonzero"/></g></g><g clip-path="url(#160159a504)"><g clip-path="url(#3acc9800c2)"><path fill="#cdc9be" d="M 0 9.789062 L 374.859375 9.789062 L 374.859375 365.210938 L 0 365.210938 Z M 0 9.789062 " fill-opacity="1" fill-rule="nonzero"/></g></g><g clip-path="url(#860a885610)"><g clip-path="url(#51ee003c70)"><path fill="#cdc9be" d="M 0 9.789062 L 374.859375 9.789062 L 374.859375 365.210938 L 0 365.210938 Z M 0 9.789062 " fill-opacity="1" fill-rule="nonzero"/></g></g><g clip-path="url(#482e527c9e)"><g clip-path="url(#efe731036c)"><path fill="#cdc9be" d="M 0 9.789062 L 374.859375 9.789062 L 374.859375 365.210938 L 0 365.210938 Z M 0 9.789062 " fill-opacity="1" fill-rule="nonzero"/></g></g><g clip-path="url(#01d212324d)"><g clip-path="url(#fbec4fcdb6)"><path fill="#cdc9be" d="M 0 9.789062 L 374.859375 9.789062 L 374.859375 365.210938 L 0 365.210938 Z M 0 9.789062 " fill-opacity="1" fill-rule="nonzero"/></g></g><g clip-path="url(#1d25a3771e)"><g clip-path="url(#f43d1217b4)"><path fill="#cdc9be" d="M 0 9.789062 L 374.859375 9.789062 L 374.859375 365.210938 L 0 365.210938 Z M 0 9.789062 " fill-opacity="1" fill-rule="nonzero"/></g></g><g clip-path="url(#4410f707f1)"><g clip-path="url(#de0e5dc0ec)"><path fill="#cdc9be" d="M 0 9.789062 L 374.859375 9.789062 L 374.859375 365.210938 L 0 365.210938 Z M 0 9.789062 " fill-opacity="1" fill-rule="nonzero"/></g></g><g clip-path="url(#8d5d1d9ee2)"><g clip-path="url(#8241891699)"><path fill="#cdc9be" d="M 0 9.789062 L 374.859375 9.789062 L 374.859375 365.210938 L 0 365.210938 Z M 0 9.789062 " fill-opacity="1" fill-rule="nonzero"/></g></g><g clip-path="url(#2559ffa8f2)"><g clip-path="url(#75c236081d)"><path fill="#cdc9be" d="M 0 9.789062 L 374.859375 9.789062 L 374.859375 365.210938 L 0 365.210938 Z M 0 9.789062 " fill-opacity="1" fill-rule="nonzero"/></g></g><g clip-path="url(#dab0bb7ba9)"><g clip-path="url(#8d7334182e)"><path fill="#cdc9be" d="M 0 9.789062 L 374.859375 9.789062 L 374.859375 365.210938 L 0 365.210938 Z M 0 9.789062 " fill-opacity="1" fill-rule="nonzero"/></g></g><g clip-path="url(#b9edf5f211)"><g clip-path="url(#86512fd897)"><path fill="#cdc9be" d="M 0 9.789062 L 374.859375 9.789062 L 374.859375 365.210938 L 0 365.210938 Z M 0 9.789062 " fill-opacity="1" fill-rule="nonzero"/></g></g><g clip-path="url(#98b21c7dc8)"><g clip-path="url(#a44b68393d)"><path fill="#cdc9be" d="M 0 9.789062 L 374.859375 9.789062 L 374.859375 365.210938 L 0 365.210938 Z M 0 9.789062 " fill-opacity="1" fill-rule="nonzero"/></g></g><g clip-path="url(#6dd7d5273b)"><g clip-path="url(#0159771ba0)"><path fill="#cdc9be" d="M 0 9.789062 L 374.859375 9.789062 L 374.859375 365.210938 L 0 365.210938 Z M 0 9.789062 " fill-opacity="1" fill-rule="nonzero"/></g></g><g clip-path="url(#df624236fc)"><g clip-path="url(#6c3d5ebba0)"><path fill="#cdc9be" d="M 0 9.789062 L 374.859375 9.789062 L 374.859375 365.210938 L 0 365.210938 Z M 0 9.789062 " fill-opacity="1" fill-rule="nonzero"/></g></g><g clip-path="url(#75c377aef5)"><g clip-path="url(#fe54cc7fab)"><path fill="#cdc9be" d="M 0 9.789062 L 374.859375 9.789062 L 374.859375 365.210938 L 0 365.210938 Z M 0 9.789062 " fill-opacity="1" fill-rule="nonzero"/></g></g><g clip-path="url(#ad39cf9e69)"><g clip-path="url(#e524fb4c84)"><path fill="#cdc9be" d="M 0 9.789062 L 374.859375 9.789062 L 374.859375 365.210938 L 0 365.210938 Z M 0 9.789062 " fill-opacity="1" fill-rule="nonzero"/></g></g><g clip-path="url(#740e2dc5ea)"><g clip-path="url(#2c36db9cd3)"><path fill="#cdc9be" d="M 0 9.789062 L 374.859375 9.789062 L 374.859375 365.210938 L 0 365.210938 Z M 0 9.789062 " fill-opacity="1" fill-rule="nonzero"/></g></g><g clip-path="url(#ac49cec4f8)"><g clip-path="url(#cc7b6ae8a2)"><path fill="#cdc9be" d="M 0 9.789062 L 374.859375 9.789062 L 374.859375 365.210938 L 0 365.210938 Z M 0 9.789062 " fill-opacity="1" fill-rule="nonzero"/></g></g><g clip-path="url(#2b03c461e4)"><g clip-path="url(#c760cb07d8)"><path fill="#cdc9be" d="M 0 9.789062 L 374.859375 9.789062 L 374.859375 365.210938 L 0 365.210938 Z M 0 9.789062 " fill-opacity="1" fill-rule="nonzero"/></g></g><g clip-path="url(#069127063a)"><g clip-path="url(#06b4525aa2)"><path fill="#cdc9be" d="M 0 9.789062 L 374.859375 9.789062 L 374.859375 365.210938 L 0 365.210938 Z M 0 9.789062 " fill-opacity="1" fill-rule="nonzero"/></g></g><g clip-path="url(#d27c832d2c)"><g clip-path="url(#7354425cef)"><path fill="#cdc9be" d="M 0 9.789062 L 374.859375 9.789062 L 374.859375 365.210938 L 0 365.210938 Z M 0 9.789062 " fill-opacity="1" fill-rule="nonzero"/></g></g><g clip-path="url(#549742f539)"><g clip-path="url(#56bb58e71b)"><path fill="#cdc9be" d="M 0 9.789062 L 374.859375 9.789062 L 374.859375 365.210938 L 0 365.210938 Z M 0 9.789062 " fill-opacity="1" fill-rule="nonzero"/></g></g><g clip-path="url(#360579765e)"><g clip-path="url(#6575d43373)"><path fill="#cdc9be" d="M 0 9.789062 L 374.859375 9.789062 L 374.859375 365.210938 L 0 365.210938 Z M 0 9.789062 " fill-opacity="1" fill-rule="nonzero"/></g></g><g clip-path="url(#b07ed9587b)"><g clip-path="url(#028a7892a2)"><path fill="#cdc9be" d="M 0 9.789062 L 374.859375 9.789062 L 374.859375 365.210938 L 0 365.210938 Z M 0 9.789062 " fill-opacity="1" fill-rule="nonzero"/></g></g><g clip-path="url(#048e99206e)"><g clip-path="url(#ebded03014)"><path fill="#cdc9be" d="M 0 9.789062 L 374.859375 9.789062 L 374.859375 365.210938 L 0 365.210938 Z M 0 9.789062 " fill-opacity="1" fill-rule="nonzero"/></g></g></svg>