<svg xmlns="http://www.w3.org/2000/svg" xmlns:xlink="http://www.w3.org/1999/xlink" width="500" zoomAndPan="magnify" viewBox="0 0 375 374.999991" height="500" preserveAspectRatio="xMidYMid meet" version="1.0"><defs><clipPath id="c00fb25a9f"><path d="M 184.429688 132 L 354 132 L 354 352.753906 L 184.429688 352.753906 Z M 184.429688 132 " clip-rule="nonzero"/></clipPath><clipPath id="d98b694d2f"><path d="M 308.515625 145.011719 L 297.273438 133.8125 C 296.46875 133.007812 295.753906 132.515625 295.351562 132.472656 L 294.945312 132.425781 L 292.839844 132.648438 L 291.273438 135.875 C 299.917969 144.5625 306.679688 151.234375 313.753906 158.222656 L 314.292969 158.757812 L 342.148438 189.480469 C 342.148438 189.480469 329.027344 188.628906 317.695312 188.269531 L 300.230469 187.554688 C 293.511719 187.644531 287.152344 187.734375 281.019531 188.449219 C 233.996094 194.09375 191.316406 236.726562 185.898438 283.4375 C 184.285156 297.230469 184.507812 311.605469 184.6875 325.578125 L 184.734375 349.941406 C 184.777344 350.03125 184.777344 350.164062 184.824219 350.253906 L 186.480469 352.402344 L 190.152344 349.984375 C 190.421875 341.523438 190.285156 333.953125 190.109375 326.609375 C 189.839844 312.679688 189.570312 298.394531 191.628906 283.929688 C 198.976562 232.429688 244.070312 185.851562 317.832031 192.527344 L 342.28125 193.734375 L 323.117188 212.679688 C 320.070312 215.679688 317.070312 218.636719 314.070312 221.589844 L 293.738281 241.742188 C 290.558594 244.96875 291.902344 246.3125 292.527344 246.9375 L 293.691406 247.832031 L 296.199219 247.339844 C 316.441406 227.324219 333.683594 210.082031 350.390625 193.152344 L 353.121094 189.613281 C 336.550781 172.867188 322.265625 158.625 308.425781 144.832031 " clip-rule="nonzero"/></clipPath><clipPath id="9345d26abd"><path d="M 129 21 L 245.902344 21 L 245.902344 181 L 129 181 Z M 129 21 " clip-rule="nonzero"/></clipPath><clipPath id="a2352b6bb8"><path d="M 184.734375 85.3125 L 184.6875 174.476562 C 184.6875 175.640625 184.6875 177.703125 184.867188 178.375 L 186.929688 180.253906 L 190.242188 179.316406 C 190.285156 160.730469 190.285156 145.054688 190.285156 129.425781 L 190.285156 126.738281 C 190.285156 106.675781 190.285156 86.613281 190.332031 66.59375 L 190.285156 66.324219 C 190.0625 63.773438 189.570312 49.53125 189.570312 42.1875 L 189.570312 29.066406 L 205.378906 47.292969 L 210.125 52.039062 C 213.082031 54.996094 215.992188 57.949219 218.949219 60.90625 L 239.234375 81.191406 C 242.460938 84.328125 243.804688 83.027344 244.429688 82.359375 L 245.324219 80.835938 L 244.609375 78.417969 C 224.679688 58.308594 207.394531 41.023438 190.601562 24.40625 L 187.242188 21.675781 C 171.65625 37.082031 158.714844 50.023438 146.265625 62.519531 L 131.484375 77.296875 C 129.917969 78.863281 129.828125 79.492188 129.828125 79.492188 L 130.050781 82.042969 L 131.394531 82.761719 L 133.230469 83.613281 C 141.742188 75.148438 148.636719 68.117188 155.894531 60.683594 L 157.191406 59.382812 C 159.96875 56.515625 162.878906 53.5625 165.835938 50.5625 L 184.734375 31.304688 Z M 184.734375 85.3125 " clip-rule="nonzero"/></clipPath><clipPath id="ae54bb9bb8"><path d="M 21 132 L 158 132 L 158 248.832031 L 21 248.832031 Z M 21 132 " clip-rule="nonzero"/></clipPath><clipPath id="57688dd513"><path d="M 154.191406 217.335938 C 140.933594 205.066406 125.082031 196.242188 107.121094 191.183594 C 91.898438 186.882812 75.011719 187.195312 58.667969 187.511719 L 31.035156 188.003906 L 60.683594 158.757812 C 67.535156 152.042969 73.9375 145.726562 80.296875 139.414062 L 83.03125 133.949219 L 81.105469 132.425781 L 78.550781 133.007812 C 57.679688 153.789062 41.023438 170.449219 25.390625 186.167969 L 21.40625 190.195312 C 35.109375 204.035156 44.828125 213.707031 54.546875 223.425781 L 65.207031 234.085938 C 66.503906 235.382812 67.804688 236.683594 69.101562 238.027344 L 78.011719 246.757812 C 80.519531 249.042969 81.953125 247.609375 82.402344 247.117188 L 84.238281 245.238281 C 79.9375 240.488281 77.878906 238.472656 75.730469 236.371094 L 33.632812 195.570312 L 57.816406 193.554688 C 96.285156 190.332031 126.78125 199.691406 151.011719 222.082031 L 152.800781 223.292969 L 154.816406 222.664062 L 157.058594 220.066406 Z M 154.191406 217.335938 " clip-rule="nonzero"/></clipPath></defs><g clip-path="url(#c00fb25a9f)"><g clip-path="url(#d98b694d2f)"><path fill="#cdc9be" d="M 0 0 L 374.710938 0 L 374.710938 374.710938 L 0 374.710938 Z M 0 0 " fill-opacity="1" fill-rule="nonzero"/></g></g><g clip-path="url(#9345d26abd)"><g clip-path="url(#a2352b6bb8)"><path fill="#cdc9be" d="M 0 0 L 374.710938 0 L 374.710938 374.710938 L 0 374.710938 Z M 0 0 " fill-opacity="1" fill-rule="nonzero"/></g></g><g clip-path="url(#ae54bb9bb8)"><g clip-path="url(#57688dd513)"><path fill="#cdc9be" d="M 0 0 L 374.710938 0 L 374.710938 374.710938 L 0 374.710938 Z M 0 0 " fill-opacity="1" fill-rule="nonzero"/></g></g></svg>